<?xml version="1.0" encoding="UTF-8"?>
<svg xmlns="http://www.w3.org/2000/svg" xmlns:xlink="http://www.w3.org/1999/xlink" width="900" height="970" viewBox="-17 -44 900 970">

    <!-- often used paths -->
    <defs>
    <path id="hex" d="m 173.20693,700 -43.30552,25 v 50 l 43.30551,25 43.30173,-25 -0,-50 z" fill="#888"/>
    <path id="triangle" d="m433.01 236.77-43.301 25v50l-43.301 25v50l-43.301 25v50l-43.301 25v50l-43.301 25v50l-43.301 25v50l-43.301 25v50l43.301 25 43.301-25 43.301 25 43.301-25 43.301 25 43.301-25 43.301 25 43.301-25 43.301 25 43.301-25 43.301 25 43.301-25 43.301 25 43.301-25v-50l-43.301-25v-50l-43.301-25v-50l-43.301-25v-50l-43.301-25v-50l-43.301-25v-50l-43.301-25v-50z"/>
    <path id="n0" d="m 33.199218,39.00293 c 0,-1.01562 0.103516,-1.832025 0.310547,-2.449219 0.210938,-0.621086 0.521484,-1.099602 0.931641,-1.435547 0.41406,-0.335929 0.933591,-0.503898 1.558594,-0.503906 0.460933,8e-6 0.86523,0.09376 1.21289,0.28125 0.347652,0.183602 0.634761,0.45118 0.861328,0.802734 0.226557,0.347664 0.404292,0.773445 0.533204,1.277344 0.1289,0.500006 0.193353,1.175786 0.193359,2.027344 -6e-6,1.007815 -0.103522,1.822268 -0.310547,2.443359 -0.207037,0.617189 -0.517583,1.095704 -0.931641,1.435547 -0.410159,0.335938 -0.92969,0.503906 -1.558593,0.503906 -0.828128,0 -1.478518,-0.296875 -1.951172,-0.890625 -0.566407,-0.714842 -0.84961,-1.878903 -0.84961,-3.492187 m 1.083985,0 c -2e-6,1.410159 0.164061,2.349611 0.492187,2.818359 0.332029,0.464845 0.740232,0.697266 1.22461,0.697266 0.484372,0 0.890622,-0.234374 1.21875,-0.703125 0.332026,-0.468748 0.498042,-1.406247 0.498047,-2.8125 -5e-6,-1.414057 -0.166021,-2.353509 -0.498047,-2.81836 -0.328128,-0.464836 -0.738285,-0.697257 -1.230469,-0.697265 -0.484378,8e-6 -0.871096,0.205085 -1.160156,0.615234 -0.363283,0.523444 -0.544924,1.49024 -0.544922,2.900391"/>
    <path id="n1" d="m 36.91409,43.3125 -1.054687,0 0,-6.720703 c -0.253909,0.242194 -0.587894,0.484381 -1.001953,0.726563 -0.410158,0.242193 -0.779299,0.423833 -1.107422,0.544922 l 0,-1.019532 c 0.589842,-0.277337 1.105466,-0.613274 1.546875,-1.007812 0.441403,-0.394524 0.753903,-0.777336 0.9375,-1.148438 l 0.679687,0 0,8.625"/>
    <path id="n2" d="m 38.839335,42.298828 0,1.013672 -5.677735,0 c -0.0078,-0.253906 0.0332,-0.498046 0.123047,-0.732422 0.144531,-0.386718 0.374999,-0.767576 0.691406,-1.142578 0.320311,-0.374998 0.781248,-0.808591 1.382813,-1.300781 0.93359,-0.765621 1.564449,-1.371089 1.892578,-1.816407 0.32812,-0.449213 0.492182,-0.873041 0.492187,-1.271484 -5e-6,-0.417962 -0.150395,-0.769524 -0.451171,-1.054687 -0.29688,-0.289055 -0.685551,-0.433586 -1.166016,-0.433594 -0.507815,8e-6 -0.914065,0.152351 -1.21875,0.457031 -0.304689,0.304695 -0.458986,0.726569 -0.462891,1.265625 l -1.083984,-0.111328 c 0.07422,-0.808587 0.353515,-1.423821 0.837891,-1.845703 0.484373,-0.425773 1.134763,-0.638663 1.951171,-0.638672 0.824215,9e-6 1.476558,0.228524 1.957032,0.685547 0.480463,0.457039 0.720697,1.023444 0.720703,1.699219 -6e-6,0.343756 -0.07032,0.681646 -0.210938,1.013671 -0.14063,0.332037 -0.375005,0.681646 -0.703125,1.048829 -0.324223,0.367191 -0.865238,0.871097 -1.623047,1.511718 -0.632815,0.531253 -1.039065,0.89258 -1.21875,1.083985 -0.179689,0.187501 -0.328127,0.376954 -0.445312,0.568359 l 4.212891,0"/>
    <path id="n3" d="m 33.1875,40.968749 1.054688,-0.140625 c 0.121092,0.597658 0.32617,1.029298 0.615234,1.294922 0.292966,0.261719 0.648435,0.392579 1.066406,0.392578 0.49609,10e-7 0.914059,-0.171874 1.253906,-0.515625 0.343746,-0.343749 0.51562,-0.76953 0.515625,-1.277343 -5e-6,-0.484373 -0.158208,-0.88281 -0.474609,-1.195313 -0.31641,-0.316402 -0.718754,-0.474605 -1.207031,-0.474609 -0.199222,3e-6 -0.447269,0.03907 -0.744141,0.117187 l 0.117188,-0.925781 c 0.07031,0.0078 0.12695,0.01172 0.169922,0.01172 0.449215,6e-6 0.853511,-0.117182 1.21289,-0.351563 0.359371,-0.234369 0.539058,-0.595697 0.539063,-1.083984 -5e-6,-0.386712 -0.130864,-0.707024 -0.392578,-0.960937 -0.261723,-0.253899 -0.599613,-0.380852 -1.013672,-0.38086 -0.410159,8e-6 -0.751956,0.128914 -1.025391,0.386719 -0.273439,0.257819 -0.44922,0.644538 -0.527344,1.160156 l -1.054687,-0.1875 c 0.128905,-0.707024 0.421874,-1.253899 0.878906,-1.640625 0.457029,-0.390616 1.025388,-0.585929 1.705078,-0.585937 0.468747,8e-6 0.900387,0.101571 1.294922,0.304687 0.394526,0.199227 0.695307,0.472664 0.902344,0.820313 0.210932,0.347663 0.3164,0.716803 0.316406,1.107422 -6e-6,0.371099 -0.09962,0.70899 -0.298828,1.013671 -0.199224,0.304694 -0.494146,0.546881 -0.884766,0.726563 0.507808,0.117193 0.902339,0.361332 1.183594,0.732422 0.281244,0.367191 0.421869,0.828128 0.421875,1.382812 -6e-6,0.750002 -0.273443,1.38672 -0.820312,1.910157 -0.54688,0.519531 -1.238286,0.779296 -2.074219,0.779296 -0.753909,0 -1.380861,-0.224609 -1.88086,-0.673828 C 33.541015,42.265625 33.257812,41.683595 33.1875,40.96875"/>
    <path id="n4" d="m 36.75586,43.294922 0,-2.056641 -3.726563,0 0,-0.966796 3.919922,-5.566407 0.861328,0 0,5.566407 1.160156,0 0,0.966796 -1.160156,0 0,2.056641 -1.054687,0 m 0,-3.023437 0,-3.873047 -2.689453,3.873047 2.689453,0"/>
    <path id="n5" d="m 33.152344,40.913085 1.107422,-0.09375 c 0.08203,0.539066 0.271482,0.945315 0.568359,1.21875 0.300779,0.269534 0.662107,0.404298 1.083985,0.404297 0.507808,10e-7 0.937495,-0.191405 1.289062,-0.574218 0.351558,-0.38281 0.527339,-0.890623 0.527344,-1.523438 -5e-6,-0.601559 -0.169927,-1.076168 -0.509766,-1.423828 -0.335941,-0.347651 -0.777347,-0.521479 -1.324218,-0.521484 -0.339847,4e-6 -0.646487,0.07813 -0.919922,0.234375 -0.27344,0.152349 -0.488283,0.351566 -0.644532,0.597656 l -0.990234,-0.128906 0.832031,-4.41211 4.271485,0 0,1.007813 -3.427735,0 -0.46289,2.308593 c 0.515622,-0.359369 1.056637,-0.539056 1.623047,-0.539062 0.749995,6e-6 1.382807,0.259771 1.898437,0.779297 0.515619,0.519535 0.773431,1.187504 0.773438,2.003906 -7e-6,0.777347 -0.226569,1.44922 -0.679688,2.015625 -0.550786,0.695313 -1.302739,1.042969 -2.255859,1.042969 -0.781253,0 -1.419924,-0.21875 -1.916016,-0.65625 -0.492188,-0.437499 -0.773438,-1.017577 -0.84375,-1.740235"/>
    <path id="n6" d="m 38.683593,36.752931 -1.048828,0.08203 c -0.09376,-0.414056 -0.226567,-0.714837 -0.398437,-0.902344 -0.28516,-0.300774 -0.636722,-0.451164 -1.054688,-0.451172 -0.33594,8e-6 -0.630861,0.09376 -0.884765,0.28125 -0.332033,0.242195 -0.593752,0.59571 -0.785157,1.060547 -0.191407,0.46485 -0.291016,1.126958 -0.298828,1.986328 0.253905,-0.386714 0.564452,-0.673823 0.931641,-0.861328 0.367185,-0.187495 0.75195,-0.281244 1.154297,-0.28125 0.703121,6e-6 1.300776,0.259771 1.792968,0.779297 0.496088,0.515629 0.744135,1.183597 0.744141,2.003906 -6e-6,0.539065 -0.117193,1.041018 -0.351562,1.50586 -0.230475,0.460938 -0.548834,0.814453 -0.955079,1.060546 -0.406253,0.246094 -0.86719,0.369141 -1.382812,0.369141 -0.878908,0 -1.595704,-0.322265 -2.150391,-0.966797 -0.554687,-0.648436 -0.832031,-1.714841 -0.832031,-3.199219 0,-1.66015 0.306641,-2.86718 0.919922,-3.621093 0.535155,-0.656242 1.255857,-0.984367 2.162109,-0.984375 0.675777,8e-6 1.228511,0.189461 1.658203,0.568359 0.433588,0.378914 0.693354,0.902351 0.779297,1.570313 m -4.30664,3.703125 c -10e-7,0.363283 0.07617,0.710939 0.228515,1.042968 0.156249,0.332033 0.373046,0.585939 0.650391,0.761719 0.277342,0.171876 0.568357,0.257813 0.873047,0.257813 0.445309,0 0.828121,-0.179687 1.148437,-0.539063 0.320308,-0.359373 0.480464,-0.847654 0.480469,-1.464844 -5e-6,-0.593746 -0.158208,-1.060543 -0.474609,-1.40039 -0.31641,-0.343746 -0.714847,-0.515621 -1.195313,-0.515625 -0.476565,4e-6 -0.880861,0.171879 -1.21289,0.515625 -0.332033,0.339847 -0.498048,0.787112 -0.498047,1.341797"/>
    <path id="n7" d="m 33.219727,35.774414 0,-1.013672 5.560547,0 0,0.820312 c -0.546881,0.582038 -1.089849,1.355475 -1.628906,2.320313 -0.535161,0.964849 -0.949223,1.957034 -1.242188,2.976562 -0.21094,0.718753 -0.345706,1.50586 -0.404297,2.361328 l -1.083984,0 c 0.01172,-0.67578 0.144529,-1.492185 0.398437,-2.449218 0.253904,-0.957027 0.617185,-1.878902 1.089844,-2.765625 0.476559,-0.890619 0.982418,-1.640619 1.517578,-2.25 l -4.207031,0"/>
    </defs>

    <g transform="translate(3.8104e-7 13.229)">
    <g transform="matrix(3.7795 0 0 3.7795 2.0583e-6 36.771)">

    <!-- image background -->
    <rect transform="translate(-1.381e-6 -66.146)" x="-11.457" y="33.073" width="252.05" height="300" fill="#fff"/>

    </g>

    <!-- triangle background -->
    <use xlink:href="#triangle" fill="none" stroke="#888" stroke-width="19.2"/>
    <use xlink:href="#triangle" fill="none" stroke="#fff" stroke-width="13.5"/>
    <use xlink:href="#triangle" fill="#eee" stroke="none"/>

    </g>





    <!-- white exposet in black circles -->
    <g transform="translate(40.1, 727.5) scale(2.5)" opacity=".5">
            <use x="0.0" y="0" xlink:href="#n0"/>
            <use x="34.64101615137754" y="0" xlink:href="#n1"/>
            <use x="69.28203230275508" y="0" xlink:href="#n2"/>
            <use x="103.92304845413264" y="0" xlink:href="#n3"/>
            <use x="138.56406460551017" y="0" xlink:href="#n4"/>
            <use x="173.20508075688772" y="0" xlink:href="#n5"/>
            <use x="207.84609690826528" y="0" xlink:href="#n6"/>
            <use x="242.4871130596428" y="0" xlink:href="#n7"/>
    </g>

    <!-- permutation -->
    <g transform="translate(-24.7, 712) scale(4.3)">
            <use x="0.0" y="0" xlink:href="#n0"/>
            <use x="20.14012566940555" y="0" xlink:href="#n3"/>
            <use x="40.2802513388111" y="0" xlink:href="#n5"/>
            <use x="60.420377008216654" y="0" xlink:href="#n6"/>
            <use x="80.5605026776222" y="0" xlink:href="#n4"/>
            <use x="100.70062834702775" y="0" xlink:href="#n7"/>
            <use x="120.84075401643331" y="0" xlink:href="#n1"/>
            <use x="140.98087968583883" y="0" xlink:href="#n2"/>
    </g>

    <!--inversion entries (hexagons)-->
                <use x="259.8076211353316" y="-300.0" xlink:href="#hex"/>
                <use x="303.1088913245535" y="-375.0" xlink:href="#hex"/>
                <use x="216.50635094610965" y="-75.0" xlink:href="#hex"/>
                <use x="303.1088913245535" y="-225.0" xlink:href="#hex"/>
                <use x="346.41016151377545" y="-300.0" xlink:href="#hex"/>
                <use x="259.8076211353316" y="-0.0" xlink:href="#hex"/>
                <use x="346.41016151377545" y="-150.0" xlink:href="#hex"/>
                <use x="389.7114317029974" y="-225.0" xlink:href="#hex"/>
                <use x="389.7114317029974" y="-75.0" xlink:href="#hex"/>
                <use x="433.0127018922193" y="-150.0" xlink:href="#hex"/>
                <use x="433.0127018922193" y="-0.0" xlink:href="#hex"/>
                <use x="476.31397208144125" y="-75.0" xlink:href="#hex"/>

    <!-- left labels for ascending diagonals -->
    <g transform="translate(71.40127018922193, 652.5) scale(2.5)" opacity=".2">
                <use x="0.0" y="-0.0" xlink:href="#n0"/>
                <use x="17.32050807568877" y="-30.0" xlink:href="#n0"/>
                <use x="34.64101615137754" y="-60.0" xlink:href="#n0"/>
                <use x="51.96152422706632" y="-90.0" xlink:href="#n0"/>
                <use x="69.28203230275508" y="-120.0" xlink:href="#n0"/>
                <use x="86.60254037844386" y="-150.0" xlink:href="#n0"/>
                <use x="103.92304845413264" y="-180.0" xlink:href="#n0"/>
                <use x="34.64101615137754" y="-0.0" xlink:href="#n1"/>
                <use x="51.96152422706632" y="-30.0" xlink:href="#n1"/>
                <use x="69.28203230275508" y="-60.0" xlink:href="#n1"/>
                <use x="86.60254037844386" y="-90.0" xlink:href="#n1"/>
                <use x="103.92304845413264" y="-120.0" xlink:href="#n1"/>
                <use x="121.2435565298214" y="-150.0" xlink:href="#n1"/>
                <use x="69.28203230275508" y="-0.0" xlink:href="#n2"/>
                <use x="86.60254037844386" y="-30.0" xlink:href="#n2"/>
                <use x="103.92304845413264" y="-60.0" xlink:href="#n2"/>
                <use x="121.2435565298214" y="-90.0" xlink:href="#n2"/>
                <use x="138.56406460551017" y="-120.0" xlink:href="#n2"/>
                <use x="103.92304845413264" y="-0.0" xlink:href="#n3"/>
                <use x="121.2435565298214" y="-30.0" xlink:href="#n3"/>
                <use x="138.56406460551017" y="-60.0" xlink:href="#n3"/>
                <use x="155.88457268119896" y="-90.0" xlink:href="#n3"/>
                <use x="138.56406460551017" y="-0.0" xlink:href="#n4"/>
                <use x="155.88457268119896" y="-30.0" xlink:href="#n4"/>
                <use x="173.20508075688772" y="-60.0" xlink:href="#n4"/>
                <use x="173.20508075688772" y="-0.0" xlink:href="#n5"/>
                <use x="190.5255888325765" y="-30.0" xlink:href="#n5"/>
                <use x="207.84609690826528" y="-0.0" xlink:href="#n6"/>
    </g>

    <!-- right labels for descending diagonals -->
    <g transform="translate(95.40127018922193, 652.5) scale(2.5)" opacity=".2">
                <use x="0.0" y="-0.0" xlink:href="#n1"/>
                <use x="34.64101615137754" y="-0.0" xlink:href="#n2"/>
                <use x="17.32050807568877" y="-30.0" xlink:href="#n2"/>
                <use x="69.28203230275508" y="-0.0" xlink:href="#n3"/>
                <use x="51.96152422706632" y="-30.0" xlink:href="#n3"/>
                <use x="34.64101615137754" y="-60.0" xlink:href="#n3"/>
                <use x="103.92304845413264" y="-0.0" xlink:href="#n4"/>
                <use x="86.60254037844386" y="-30.0" xlink:href="#n4"/>
                <use x="69.28203230275508" y="-60.0" xlink:href="#n4"/>
                <use x="51.96152422706632" y="-90.0" xlink:href="#n4"/>
                <use x="138.56406460551017" y="-0.0" xlink:href="#n5"/>
                <use x="121.2435565298214" y="-30.0" xlink:href="#n5"/>
                <use x="103.92304845413264" y="-60.0" xlink:href="#n5"/>
                <use x="86.60254037844386" y="-90.0" xlink:href="#n5"/>
                <use x="69.28203230275508" y="-120.0" xlink:href="#n5"/>
                <use x="173.20508075688772" y="-0.0" xlink:href="#n6"/>
                <use x="155.88457268119896" y="-30.0" xlink:href="#n6"/>
                <use x="138.56406460551017" y="-60.0" xlink:href="#n6"/>
                <use x="121.2435565298214" y="-90.0" xlink:href="#n6"/>
                <use x="103.92304845413264" y="-120.0" xlink:href="#n6"/>
                <use x="86.60254037844386" y="-150.0" xlink:href="#n6"/>
                <use x="207.84609690826528" y="-0.0" xlink:href="#n7"/>
                <use x="190.5255888325765" y="-30.0" xlink:href="#n7"/>
                <use x="173.20508075688772" y="-60.0" xlink:href="#n7"/>
                <use x="155.88457268119896" y="-90.0" xlink:href="#n7"/>
                <use x="138.56406460551017" y="-120.0" xlink:href="#n7"/>
                <use x="121.2435565298214" y="-150.0" xlink:href="#n7"/>
                <use x="103.92304845413264" y="-180.0" xlink:href="#n7"/>
    </g>

    <!-- vectors (brownish) -->
    <g font-family="Arial" font-size="50px" text-anchor="middle" fill="#e39959">
        <!--number of inversions-->
        <text transform="translate(431, 49.5)" opacity="1">12</text>

        <!--left inversion count-->
        <text transform="translate(60.937838199147755, 705.6705956414078) rotate(-30)" opacity=".2">0</text> <!--dummy-->
            <text transform="translate(104.23910838836969, 630.6705956414078) rotate(-30)" opacity="0.6">0</text>
            <text transform="translate(147.5403785775916, 555.6705956414078) rotate(-30)" opacity="0.6">0</text>
            <text transform="translate(190.84164876681353, 480.6705956414078) rotate(-30)" opacity="0.6">0</text>
            <text transform="translate(234.1429189560355, 405.6705956414078) rotate(-30)" opacity="1">2</text>
            <text transform="translate(277.44418914525744, 330.6705956414078) rotate(-30)" opacity="0.6">0</text>
            <text transform="translate(320.74545933447934, 255.67059564140777) rotate(-30)" opacity="1">5</text>
            <text transform="translate(364.0467295237013, 180.67059564140777) rotate(-30)" opacity="1">5</text>

        <!--right inversion count-->
        <text transform="translate(805.0875655852909, 705.6705956414078) rotate(30)" opacity=".2">0</text> <!--dummy-->
            <text transform="translate(761.786295396069, 630.6705956414078) rotate(30)" opacity="0.6">0</text>
            <text transform="translate(718.485025206847, 555.6705956414078) rotate(30)" opacity="1">2</text>
            <text transform="translate(675.1837550176251, 480.6705956414078) rotate(30)" opacity="1">2</text>
            <text transform="translate(631.8824848284032, 405.6705956414078) rotate(30)" opacity="1">3</text>
            <text transform="translate(588.5812146391812, 330.6705956414078) rotate(30)" opacity="1">3</text>
            <text transform="translate(545.2799444499593, 255.67059564140777) rotate(30)" opacity="1">2</text>
            <text transform="translate(501.97867426073736, 180.67059564140777) rotate(30)" opacity="0.6">0</text>
    </g>

    <!-- sort ranks (greenish) -->
    <g font-family="Arial" font-size="32px" text-anchor="middle" fill="#73731b" opacity=".8">
        <text transform="translate(129, 117)">28848</text>
        <text transform="translate(737, 117)">1888</text>
    </g>

    <!-- borders and text labels -->
    <g transform="translate(3.8104e-7 13.229)">
    <g transform="matrix(3.7795 0 0 3.7795 2.0583e-6 36.771)">

    <text transform="matrix(.22914 -.13229 .13229 .22914 1.7646 41.586)" x="301.13428" y="87.679749" dominant-baseline="auto" fill="#73731b" font-family="Arial" font-size="16.667px" letter-spacing="0px" opacity=".85" stop-color="#000000" word-spacing="0px" style="font-feature-settings:normal;font-variant-alternates:normal;font-variant-caps:normal;font-variant-east-asian:normal;font-variant-ligatures:normal;font-variant-numeric:normal;font-variant-position:normal;font-variation-settings:normal;inline-size:0;line-height:74.25;shape-margin:0;shape-padding:0;text-decoration-color:#000000;text-decoration-line:none;text-decoration-style:solid;text-indent:0;text-orientation:mixed;text-transform:none;white-space:normal" xml:space="preserve"><tspan x="301.13428" y="87.679749">5040</tspan></text>
    <text transform="matrix(.22914 -.13229 .13229 .22914 -9.734 61.451)" x="301.13428" y="87.679749" dominant-baseline="auto" fill="#73731b" font-family="Arial" font-size="16.667px" letter-spacing="0px" opacity=".85" stop-color="#000000" word-spacing="0px" style="font-feature-settings:normal;font-variant-alternates:normal;font-variant-caps:normal;font-variant-east-asian:normal;font-variant-ligatures:normal;font-variant-numeric:normal;font-variant-position:normal;font-variation-settings:normal;inline-size:0;line-height:74.25;shape-margin:0;shape-padding:0;text-decoration-color:#000000;text-decoration-line:none;text-decoration-style:solid;text-indent:0;text-orientation:mixed;text-transform:none;white-space:normal" xml:space="preserve"><tspan x="301.13428" y="87.679749">720</tspan></text>
    <text transform="matrix(.22914 -.13229 .13229 .22914 -21.447 81.418)" x="301.13428" y="87.679749" dominant-baseline="auto" fill="#73731b" font-family="Arial" font-size="16.667px" letter-spacing="0px" opacity=".85" stop-color="#000000" word-spacing="0px" style="font-feature-settings:normal;font-variant-alternates:normal;font-variant-caps:normal;font-variant-east-asian:normal;font-variant-ligatures:normal;font-variant-numeric:normal;font-variant-position:normal;font-variation-settings:normal;inline-size:0;line-height:74.25;shape-margin:0;shape-padding:0;text-decoration-color:#000000;text-decoration-line:none;text-decoration-style:solid;text-indent:0;text-orientation:mixed;text-transform:none;white-space:normal" xml:space="preserve"><tspan x="301.13428" y="87.679749">120</tspan></text>
    <text transform="matrix(.22914 -.13229 .13229 .22914 -32.58 101.12)" x="301.13428" y="87.679749" dominant-baseline="auto" fill="#73731b" font-family="Arial" font-size="16.667px" letter-spacing="0px" opacity=".85" stop-color="#000000" word-spacing="0px" style="font-feature-settings:normal;font-variant-alternates:normal;font-variant-caps:normal;font-variant-east-asian:normal;font-variant-ligatures:normal;font-variant-numeric:normal;font-variant-position:normal;font-variation-settings:normal;inline-size:0;line-height:74.25;shape-margin:0;shape-padding:0;text-decoration-color:#000000;text-decoration-line:none;text-decoration-style:solid;text-indent:0;text-orientation:mixed;text-transform:none;white-space:normal" xml:space="preserve"><tspan x="301.13428" y="87.679749">24</tspan></text>
    <text transform="matrix(.22914 -.13229 .13229 .22914 -44.081 120.95)" x="301.13428" y="87.679749" dominant-baseline="auto" fill="#73731b" font-family="Arial" font-size="16.667px" letter-spacing="0px" opacity=".85" stop-color="#000000" word-spacing="0px" style="font-feature-settings:normal;font-variant-alternates:normal;font-variant-caps:normal;font-variant-east-asian:normal;font-variant-ligatures:normal;font-variant-numeric:normal;font-variant-position:normal;font-variation-settings:normal;inline-size:0;line-height:74.25;shape-margin:0;shape-padding:0;text-decoration-color:#000000;text-decoration-line:none;text-decoration-style:solid;text-indent:0;text-orientation:mixed;text-transform:none;white-space:normal" xml:space="preserve"><tspan x="301.13428" y="87.679749">6</tspan></text>
    <text transform="matrix(.22914 -.13229 .13229 .22914 -55.504 140.81)" x="301.13428" y="87.679749" dominant-baseline="auto" fill="#73731b" font-family="Arial" font-size="16.667px" letter-spacing="0px" opacity=".85" stop-color="#000000" word-spacing="0px" style="font-feature-settings:normal;font-variant-alternates:normal;font-variant-caps:normal;font-variant-east-asian:normal;font-variant-ligatures:normal;font-variant-numeric:normal;font-variant-position:normal;font-variation-settings:normal;inline-size:0;line-height:74.25;shape-margin:0;shape-padding:0;text-decoration-color:#000000;text-decoration-line:none;text-decoration-style:solid;text-indent:0;text-orientation:mixed;text-transform:none;white-space:normal" xml:space="preserve"><tspan x="301.13428" y="87.679749">2</tspan></text>
    <text transform="matrix(.22914 -.13229 .13229 .22914 -67.268 160.84)" x="301.13428" y="87.679749" dominant-baseline="auto" fill="#73731b" font-family="Arial" font-size="16.667px" letter-spacing="0px" opacity=".85" stop-color="#000000" word-spacing="0px" style="font-feature-settings:normal;font-variant-alternates:normal;font-variant-caps:normal;font-variant-east-asian:normal;font-variant-ligatures:normal;font-variant-numeric:normal;font-variant-position:normal;font-variation-settings:normal;inline-size:0;line-height:74.25;shape-margin:0;shape-padding:0;text-decoration-color:#000000;text-decoration-line:none;text-decoration-style:solid;text-indent:0;text-orientation:mixed;text-transform:none;white-space:normal" xml:space="preserve"><tspan x="301.13428" y="87.679749">1</tspan></text>
    <text transform="matrix(.22914 -.13229 .13229 .22914 -78.73 180.67)" x="301.13428" y="87.679749" dominant-baseline="auto" fill="#73731b" font-family="Arial" font-size="16.667px" letter-spacing="0px" opacity=".25" stop-color="#000000" word-spacing="0px" style="font-feature-settings:normal;font-variant-alternates:normal;font-variant-caps:normal;font-variant-east-asian:normal;font-variant-ligatures:normal;font-variant-numeric:normal;font-variant-position:normal;font-variation-settings:normal;inline-size:0;line-height:74.25;shape-margin:0;shape-padding:0;text-decoration-color:#000000;text-decoration-line:none;text-decoration-style:solid;text-indent:0;text-orientation:mixed;text-transform:none;white-space:normal" xml:space="preserve"><tspan x="301.13428" y="87.679749">1</tspan></text>
    <text transform="matrix(.22914 .13229 -.13229 .22914 80.92 -42.991)" x="301.13428" y="87.679749" dominant-baseline="auto" fill="#73731b" font-family="Arial" font-size="16.667px" letter-spacing="0px" opacity=".85" stop-color="#000000" word-spacing="0px" style="font-feature-settings:normal;font-variant-alternates:normal;font-variant-caps:normal;font-variant-east-asian:normal;font-variant-ligatures:normal;font-variant-numeric:normal;font-variant-position:normal;font-variation-settings:normal;inline-size:0;line-height:74.25;shape-margin:0;shape-padding:0;text-decoration-color:#000000;text-decoration-line:none;text-decoration-style:solid;text-indent:0;text-orientation:mixed;text-transform:none;white-space:normal" xml:space="preserve"><tspan x="301.13428" y="87.679749">5040</tspan></text>
    <text transform="matrix(.22914 .13229 -.13229 .22914 94.491 -21.907)" x="301.13428" y="87.679749" dominant-baseline="auto" fill="#73731b" font-family="Arial" font-size="16.667px" letter-spacing="0px" opacity=".85" stop-color="#000000" word-spacing="0px" style="font-feature-settings:normal;font-variant-alternates:normal;font-variant-caps:normal;font-variant-east-asian:normal;font-variant-ligatures:normal;font-variant-numeric:normal;font-variant-position:normal;font-variation-settings:normal;inline-size:0;line-height:74.25;shape-margin:0;shape-padding:0;text-decoration-color:#000000;text-decoration-line:none;text-decoration-style:solid;text-indent:0;text-orientation:mixed;text-transform:none;white-space:normal" xml:space="preserve"><tspan x="301.13428" y="87.679749">720</tspan></text>
    <text transform="matrix(.22914 .13229 -.13229 .22914 105.97 -2.0728)" x="301.13428" y="87.679749" dominant-baseline="auto" fill="#73731b" font-family="Arial" font-size="16.667px" letter-spacing="0px" opacity=".85" stop-color="#000000" word-spacing="0px" style="font-feature-settings:normal;font-variant-alternates:normal;font-variant-caps:normal;font-variant-east-asian:normal;font-variant-ligatures:normal;font-variant-numeric:normal;font-variant-position:normal;font-variation-settings:normal;inline-size:0;line-height:74.25;shape-margin:0;shape-padding:0;text-decoration-color:#000000;text-decoration-line:none;text-decoration-style:solid;text-indent:0;text-orientation:mixed;text-transform:none;white-space:normal" xml:space="preserve"><tspan x="301.13428" y="87.679749">120</tspan></text>
    <text transform="matrix(.22914 .13229 -.13229 .22914 119.56 19.037)" x="301.13428" y="87.679749" dominant-baseline="auto" fill="#73731b" font-family="Arial" font-size="16.667px" letter-spacing="0px" opacity=".85" stop-color="#000000" word-spacing="0px" style="font-feature-settings:normal;font-variant-alternates:normal;font-variant-caps:normal;font-variant-east-asian:normal;font-variant-ligatures:normal;font-variant-numeric:normal;font-variant-position:normal;font-variation-settings:normal;inline-size:0;line-height:74.25;shape-margin:0;shape-padding:0;text-decoration-color:#000000;text-decoration-line:none;text-decoration-style:solid;text-indent:0;text-orientation:mixed;text-transform:none;white-space:normal" xml:space="preserve"><tspan x="301.13428" y="87.679749">24</tspan></text>
    <text transform="matrix(.22914 .13229 -.13229 .22914 133.13 40.082)" x="301.13428" y="87.679749" dominant-baseline="auto" fill="#73731b" font-family="Arial" font-size="16.667px" letter-spacing="0px" opacity=".85" stop-color="#000000" word-spacing="0px" style="font-feature-settings:normal;font-variant-alternates:normal;font-variant-caps:normal;font-variant-east-asian:normal;font-variant-ligatures:normal;font-variant-numeric:normal;font-variant-position:normal;font-variation-settings:normal;inline-size:0;line-height:74.25;shape-margin:0;shape-padding:0;text-decoration-color:#000000;text-decoration-line:none;text-decoration-style:solid;text-indent:0;text-orientation:mixed;text-transform:none;white-space:normal" xml:space="preserve"><tspan x="301.13428" y="87.679749">6</tspan></text>
    <text transform="matrix(.22914 .13229 -.13229 .22914 144.61 59.956)" x="301.13428" y="87.679749" dominant-baseline="auto" fill="#73731b" font-family="Arial" font-size="16.667px" letter-spacing="0px" opacity=".85" stop-color="#000000" word-spacing="0px" style="font-feature-settings:normal;font-variant-alternates:normal;font-variant-caps:normal;font-variant-east-asian:normal;font-variant-ligatures:normal;font-variant-numeric:normal;font-variant-position:normal;font-variation-settings:normal;inline-size:0;line-height:74.25;shape-margin:0;shape-padding:0;text-decoration-color:#000000;text-decoration-line:none;text-decoration-style:solid;text-indent:0;text-orientation:mixed;text-transform:none;white-space:normal" xml:space="preserve"><tspan x="301.13428" y="87.679749">2</tspan></text>
    <text transform="matrix(.22914 .13229 -.13229 .22914 156.57 80.095)" x="301.13428" y="87.679749" dominant-baseline="auto" fill="#73731b" font-family="Arial" font-size="16.667px" letter-spacing="0px" opacity=".85" stop-color="#000000" word-spacing="0px" style="font-feature-settings:normal;font-variant-alternates:normal;font-variant-caps:normal;font-variant-east-asian:normal;font-variant-ligatures:normal;font-variant-numeric:normal;font-variant-position:normal;font-variation-settings:normal;inline-size:0;line-height:74.25;shape-margin:0;shape-padding:0;text-decoration-color:#000000;text-decoration-line:none;text-decoration-style:solid;text-indent:0;text-orientation:mixed;text-transform:none;white-space:normal" xml:space="preserve"><tspan x="301.13428" y="87.679749">1</tspan></text>
    <text transform="matrix(.22914 .13229 -.13229 .22914 168.02 99.94)" x="301.13428" y="87.679749" dominant-baseline="auto" fill="#73731b" font-family="Arial" font-size="16.667px" letter-spacing="0px" opacity=".25" stop-color="#000000" word-spacing="0px" style="font-feature-settings:normal;font-variant-alternates:normal;font-variant-caps:normal;font-variant-east-asian:normal;font-variant-ligatures:normal;font-variant-numeric:normal;font-variant-position:normal;font-variation-settings:normal;inline-size:0;line-height:74.25;shape-margin:0;shape-padding:0;text-decoration-color:#000000;text-decoration-line:none;text-decoration-style:solid;text-indent:0;text-orientation:mixed;text-transform:none;white-space:normal" xml:space="preserve"><tspan x="301.13428" y="87.679749">1</tspan></text>
    <text transform="matrix(.26458 0 0 .26458 .38019 -8.8772)" x="52.137798" y="117.28363" dominant-baseline="auto" fill="#000000" font-family="Arial" font-size="12px" letter-spacing="0px" opacity=".5" stop-color="#000000" word-spacing="0px" style="-inkscape-stroke:none;font-feature-settings:normal;font-variant-alternates:normal;font-variant-caps:normal;font-variant-east-asian:normal;font-variant-ligatures:normal;font-variant-numeric:normal;font-variant-position:normal;font-variation-settings:normal;inline-size:0;line-height:74.25;shape-margin:0;shape-padding:0;text-decoration-color:#000000;text-decoration-line:none;text-decoration-style:solid;text-indent:0;text-orientation:mixed;text-transform:none;white-space:normal" xml:space="preserve"><tspan x="52.137798" y="117.28363">reverse colexicographic rank</tspan></text>
    <text transform="matrix(.26458 0 0 .26458 -1.896 -16.412)" x="384.4292" y="109.99792" dominant-baseline="auto" fill="#000000" font-family="Arial" font-size="12px" letter-spacing="0px" opacity=".5" stop-color="#000000" word-spacing="0px" style="-inkscape-stroke:none;font-feature-settings:normal;font-variant-alternates:normal;font-variant-caps:normal;font-variant-east-asian:normal;font-variant-ligatures:normal;font-variant-numeric:normal;font-variant-position:normal;font-variation-settings:normal;inline-size:0;line-height:74.25;shape-margin:0;shape-padding:0;text-decoration-color:#000000;text-decoration-line:none;text-decoration-style:solid;text-indent:0;text-orientation:mixed;text-transform:none;white-space:normal" xml:space="preserve"><tspan x="384.4292" y="109.99792">number of inversions</tspan></text>
    <text transform="matrix(.26458 0 0 .26458 167.99 -8.8929)" x="52.137798" y="117.28363" dominant-baseline="auto" fill="#000000" font-family="Arial" font-size="12px" letter-spacing="0px" opacity=".5" stop-color="#000000" word-spacing="0px" style="font-feature-settings:normal;font-variant-alternates:normal;font-variant-caps:normal;font-variant-east-asian:normal;font-variant-ligatures:normal;font-variant-numeric:normal;font-variant-position:normal;font-variation-settings:normal;inline-size:0;line-height:74.25;shape-margin:0;shape-padding:0;text-decoration-color:#000000;text-decoration-line:none;text-decoration-style:solid;text-indent:0;text-orientation:mixed;text-transform:none;white-space:normal" xml:space="preserve"><tspan x="52.137798" y="117.28363">lexicographic rank</tspan></text>
    <path d="m27.849 58.799-3.1812 11.069q-0.23254 0.82786-0.23254 1.0139 0 0.13953 0.08376 0.23254 0.09296 0.09302 0.2232 0.09302 0.17672 0 0.38138-0.15813 0.48368-0.38137 1.0139-1.1813l0.27902 0.28835q-0.88367 1.2464-1.6278 1.7394-0.54883 0.35347-1.0418 0.35347-0.35344 0-0.59531-0.24185-0.23254-0.24185-0.23254-0.55811 0-0.33486 0.29769-1.3767l2.5208-8.7251q0.30696-1.0697 0.30696-1.2278 0-0.22325-0.17672-0.36277-0.17672-0.14883-0.54883-0.14883-0.21393 0-0.65113 0.06511v-0.34416z" color="#000000" color-rendering="auto" fill="#e39959" fill-rule="evenodd" image-rendering="auto" shape-rendering="auto" solid-color="#000000" style="isolation:auto;mix-blend-mode:normal;text-decoration-color:#000000;text-decoration-line:none;text-decoration-style:solid;text-indent:0;text-transform:none;white-space:normal"/>
    <path d="m199.75 64.352 3.2091-0.5209-1.3395 4.5207q1.6278-2.7812 2.958-3.8881 0.75342-0.63252 1.2278-0.63252 0.30696 0 0.48368 0.18604 0.17672 0.17673 0.17672 0.5209 0 0.61391-0.31623 1.172-0.22326 0.41858-0.64179 0.41858-0.214 0-0.37211-0.13953-0.14885-0.13953-0.18606-0.42788-0.0184-0.17673-0.0837-0.23254-0.0744-0.07442-0.17672-0.07442-0.15812 0-0.29769 0.07442-0.24181 0.13023-0.73482 0.72554-0.77203 0.91157-1.6743 2.3626-0.39065 0.61392-0.66973 1.386-0.39065 1.0604-0.44647 1.2743l-0.29769 1.172h-1.4232l1.7208-5.7764q0.29763-1.0046 0.29763-1.4325 0-0.16743-0.13951-0.27905-0.18606-0.14883-0.49302-0.14883-0.19532 0-0.71621 0.08372z" color="#000000" color-rendering="auto" fill="#e39959" fill-rule="evenodd" image-rendering="auto" shape-rendering="auto" solid-color="#000000" style="isolation:auto;mix-blend-mode:normal;text-decoration-color:#000000;text-decoration-line:none;text-decoration-style:solid;text-indent:0;text-transform:none;white-space:normal"/>
    <g fill="none" opacity=".7" stroke="#e39959" stroke-width=".52917">
    <path d="m25.329 136.48-11.457 6.6146v13.229l11.457 6.6146 11.457-6.6146v-13.229z" stop-color="#000000" style="font-variation-settings:normal"/>
    <path d="m36.786 116.63-11.457 6.6146v13.229l11.457 6.6146 11.457-6.6146v-13.229z" stop-color="#000000" style="font-variation-settings:normal"/>
    <path d="m48.243 96.789-11.457 6.6146v13.229l11.457 6.6146 11.457-6.6146v-13.229z" stop-color="#000000" style="font-variation-settings:normal"/>
    <path d="m59.7 76.946-11.457 6.6146v13.229l11.457 6.6146 11.457-6.6146v-13.229z" stop-color="#000000" style="font-variation-settings:normal"/>
    <path d="m71.156 57.102-11.457 6.6146v13.229l11.457 6.6146 11.457-6.6146v-13.229z" stop-color="#000000" style="font-variation-settings:normal"/>
    <path d="m82.613 37.258-11.457 6.6146v13.229l11.457 6.6146 11.457-6.6146v-13.229z" stop-color="#000000" style="font-variation-settings:normal"/>
    <path d="m94.07 17.414-11.457 6.6146v13.229l11.457 6.6146 11.457-6.6146v-13.229z" stop-color="#000000" style="font-variation-settings:normal"/>
    <path d="m13.872 156.32-11.457 6.6146v13.229l11.457 6.6146 11.457-6.6146v-13.229z" opacity=".3" stop-color="#000000" style="font-variation-settings:normal"/>
    </g>
    <g fill="none" opacity=".7" stroke="#e39959" stroke-width=".52917">
    <path d="m203.81 136.48-11.457 6.6146v13.229l11.457 6.6146 11.457-6.6146v-13.229z" stop-color="#000000" style="font-variation-settings:normal"/>
    <path d="m215.27 156.32-11.457 6.6146v13.229l11.457 6.6146 11.457-6.6146v-13.229z" opacity=".3" stop-color="#000000" style="font-variation-settings:normal"/>
    <path d="m192.36 116.63-11.457 6.6146v13.229l11.457 6.6146 11.457-6.6146v-13.229z" stop-color="#000000" style="font-variation-settings:normal"/>
    <path d="m180.9 96.789-11.457 6.6146v13.229l11.457 6.6146 11.457-6.6146v-13.229z" stop-color="#000000" style="font-variation-settings:normal"/>
    <path d="m169.44 76.946-11.457 6.6146v13.229l11.457 6.6146 11.457-6.6146v-13.229z" stop-color="#000000" style="font-variation-settings:normal"/>
    <path d="m157.99 57.102-11.457 6.6146v13.229l11.457 6.6146 11.457-6.6146v-13.229z" stop-color="#000000" style="font-variation-settings:normal"/>
    <path d="m146.53 37.258-11.457 6.6146v13.229l11.457 6.6146 11.457-6.6146v-13.229z" stop-color="#000000" style="font-variation-settings:normal"/>
    <path d="m135.07 17.414-11.457 6.6146v13.229l11.457 6.6146 11.457-6.6146v-13.229z" stop-color="#000000" style="font-variation-settings:normal"/>
    </g>
    <path d="m114.57-18.095-11.457 6.6146v13.229l11.457 6.6146 11.457-6.6146v-13.229z" fill="none" opacity=".7" stop-color="#000000" stroke="#e39959" stroke-width=".52917" style="font-variation-settings:normal"/>
    </g>

    <!-- triangle foreground (hexagon borders) -->
    <path d="m173.21 686.77-43.301 25v50l43.301 25 43.301-25v-50z" fill="none" stop-color="#000000" stroke="#fff" stroke-width="3.5" style="font-variation-settings:normal"/>
    <path d="m259.81 686.77-43.301 25v50l43.301 25 43.301-25v-50z" fill="none" stop-color="#000000" stroke="#fff" stroke-width="3.5" style="font-variation-settings:normal"/>
    <path d="m346.41 686.77-43.301 25v50l43.301 25 43.301-25v-50z" fill="none" stop-color="#000000" stroke="#fff" stroke-width="3.5" style="font-variation-settings:normal"/>
    <path d="m433.01 686.77-43.301 25v50l43.301 25 43.301-25v-50z" fill="none" stop-color="#000000" stroke="#fff" stroke-width="3.5" style="font-variation-settings:normal"/>
    <path d="m519.62 686.77-43.301 25v50l43.301 25 43.301-25v-50z" fill="none" stop-color="#000000" stroke="#fff" stroke-width="3.5" style="font-variation-settings:normal"/>
    <path d="m606.22 686.77-43.301 25v50l43.301 25 43.301-25v-50z" fill="none" stop-color="#000000" stroke="#fff" stroke-width="3.5" style="font-variation-settings:normal"/>
    <path d="m692.82 686.77-43.301 25v50l43.301 25 43.301-25v-50z" fill="none" stop-color="#000000" stroke="#fff" stroke-width="3.5" style="font-variation-settings:normal"/>
    <path d="m216.51 611.77-43.301 25v50l43.301 25 43.301-25v-50z" fill="none" stop-color="#000000" stroke="#fff" stroke-width="3.5" style="font-variation-settings:normal"/>
    <path d="m303.11 611.77-43.301 25v50l43.301 25 43.301-25v-50z" fill="none" stop-color="#000000" stroke="#fff" stroke-width="3.5" style="font-variation-settings:normal"/>
    <path d="m389.71 611.77-43.301 25v50l43.301 25 43.301-25v-50z" fill="none" stop-color="#000000" stroke="#fff" stroke-width="3.5" style="font-variation-settings:normal"/>
    <path d="m476.31 611.77-43.301 25v50l43.301 25 43.301-25v-50z" fill="none" stop-color="#000000" stroke="#fff" stroke-width="3.5" style="font-variation-settings:normal"/>
    <path d="m562.92 611.77-43.301 25v50l43.301 25 43.301-25v-50z" fill="none" stop-color="#000000" stroke="#fff" stroke-width="3.5" style="font-variation-settings:normal"/>
    <path d="m649.52 611.77-43.301 25v50l43.301 25 43.301-25v-50z" fill="none" stop-color="#000000" stroke="#fff" stroke-width="3.5" style="font-variation-settings:normal"/>
    <path d="m259.81 536.77-43.301 25v50l43.301 25 43.301-25v-50z" fill="none" stop-color="#000000" stroke="#fff" stroke-width="3.5" style="font-variation-settings:normal"/>
    <path d="m346.41 536.77-43.301 25v50l43.301 25 43.301-25v-50z" fill="none" stop-color="#000000" stroke="#fff" stroke-width="3.5" style="font-variation-settings:normal"/>
    <path d="m433.01 536.77-43.301 25v50l43.301 25 43.301-25v-50z" fill="none" stop-color="#000000" stroke="#fff" stroke-width="3.5" style="font-variation-settings:normal"/>
    <path d="m519.62 536.77-43.301 25v50l43.301 25 43.301-25v-50z" fill="none" stop-color="#000000" stroke="#fff" stroke-width="3.5" style="font-variation-settings:normal"/>
    <path d="m606.22 536.77-43.301 25v50l43.301 25 43.301-25v-50z" fill="none" stop-color="#000000" stroke="#fff" stroke-width="3.5" style="font-variation-settings:normal"/>
    <path d="m303.11 461.77-43.301 25v50l43.301 25 43.301-25v-50z" fill="none" stop-color="#000000" stroke="#fff" stroke-width="3.5" style="font-variation-settings:normal"/>
    <path d="m389.71 461.77-43.301 25v50l43.301 25 43.301-25v-50z" fill="none" stop-color="#000000" stroke="#fff" stroke-width="3.5" style="font-variation-settings:normal"/>
    <path d="m476.31 461.77-43.301 25v50l43.301 25 43.301-25v-50z" fill="none" stop-color="#000000" stroke="#fff" stroke-width="3.5" style="font-variation-settings:normal"/>
    <path d="m562.92 461.77-43.301 25v50l43.301 25 43.301-25v-50z" fill="none" stop-color="#000000" stroke="#fff" stroke-width="3.5" style="font-variation-settings:normal"/>
    <path d="m346.41 386.77-43.301 25v50l43.301 25 43.301-25v-50z" fill="none" stop-color="#000000" stroke="#fff" stroke-width="3.5" style="font-variation-settings:normal"/>
    <path d="m433.01 386.77-43.301 25v50l43.301 25 43.301-25v-50z" fill="none" stop-color="#000000" stroke="#fff" stroke-width="3.5" style="font-variation-settings:normal"/>
    <path d="m519.62 386.77-43.301 25v50l43.301 25 43.301-25v-50z" fill="none" stop-color="#000000" stroke="#fff" stroke-width="3.5" style="font-variation-settings:normal"/>
    <path d="m389.71 311.77-43.301 25v50l43.301 25 43.301-25v-50z" fill="none" stop-color="#000000" stroke="#fff" stroke-width="3.5" style="font-variation-settings:normal"/>
    <path d="m476.31 311.77-43.301 25v50l43.301 25 43.301-25v-50z" fill="none" stop-color="#000000" stroke="#fff" stroke-width="3.5" style="font-variation-settings:normal"/>
    <path d="m433.01 236.77-43.301 25v50l43.301 25 43.301-25v-50z" fill="none" stop-color="#000000" stroke="#fff" stroke-width="3.5" style="font-variation-settings:normal"/>

    </g>

</svg>