<?xml version="1.0" encoding="UTF-8"?>
<svg xmlns="http://www.w3.org/2000/svg" xmlns:xlink="http://www.w3.org/1999/xlink" width="2780" height="460" viewBox="-4 -4 278 46">


    <defs>

        <g id="grid_16x256" stroke="black">
            <rect width="256" height="16" fill="none" stroke-width=".3"/>
            <g stroke-width="256">
                <path stroke-dasharray=".03, .97" d="M 128, -.015 v 17"/>
                <path stroke-dasharray=".08, 3.92" d="M 128, -.04 v 17"/>
            </g>
            <g stroke-width="16">
                <path stroke-dasharray=".03, .97" d="M -.015, 8 h 257"/>
                <path stroke-dasharray=".08, 3.92" d="M -.04, 8 h 257"/>
                <path stroke-dasharray=".17, 15.83" d="M -.085, 8 h 257"/>
                <path stroke-dasharray=".3, 63.7" d="M -.15, 8 h 257"/>
            </g>
        </g>

        <g id="grid_16x8" stroke="black">
            <rect width="8" height="16" fill="none" stroke-width=".3"/>
            <g stroke-width="8">
                <path stroke-dasharray=".03, .97" d="M4, -.015 v 17"/>
                <path stroke-dasharray=".08, 3.92" d="M 4, -.04 v 17"/>
                <path stroke-dasharray=".15, 15.85" d="M 4, -.075 v 17"/>
            </g>
            <g stroke-width="16">
                <path stroke-dasharray=".03, .97" d="M -.015, 8 h 9"/>
                <path stroke-dasharray=".08, 3.92" d="M -.04, 8 h 9"/>
                <path stroke-dasharray=".15, 15.85" d="M -.085, 8 h 9"/>
            </g>
        </g>

    </defs>


    <!-- upper small matrix -->
    <g transform="translate(0, 0)">
        <rect fill="#fff" width="8" height="16"/>
        <path fill="#e95959" d="M0,0h1v1h-1M1,1h1v1h-1M2,2h1v1h-1M3,3h1v1h-1M4,8h1v1h-1M5,9h1v1h-1M6,10h1v1h-1M7,11h1v1h-1"/>
        <path fill="#5a6f87" d="M0,4h1v4h-1M0,12h1v4h-1" transform="scale(8, 1)"/>
        <use xlink:href="#grid_16x8"/>
    </g>

    <!-- upper main matrix -->
    <g transform="translate(14, 0)">
        <rect fill="#fff" width="256" height="16"/>
        <path fill="#e95959" d="M1,0h1v1h-1M3,0h1v2h-2v-1h1M5,0h1v1h-1M7,0h1v3h-4v-1h2v-1h1M9,0h1v1h-1M11,0h1v2h-2v-1h1M13,0h1v1h-1M15,0h1v4h-8v-1h4v-1h2v-1h1M17,0h1v1h-1M19,0h1v2h-2v-1h1M21,0h1v1h-1M23,0h1v3h-4v-1h2v-1h1M25,0h1v1h-1M27,0h1v2h-2v-1h1M29,0h1v1h-1M31,0h1v4h-8v-1h4v-1h2v-1h1M33,0h1v1h-1M35,0h1v2h-2v-1h1M37,0h1v1h-1M39,0h1v3h-4v-1h2v-1h1M41,0h1v1h-1M43,0h1v2h-2v-1h1M45,0h1v1h-1M47,0h1v4h-8v-1h4v-1h2v-1h1M49,0h1v1h-1M51,0h1v2h-2v-1h1M53,0h1v1h-1M55,0h1v3h-4v-1h2v-1h1M57,0h1v1h-1M59,0h1v2h-2v-1h1M61,0h1v1h-1M63,0h1v4h-8v-1h4v-1h2v-1h1M65,0h1v1h-1M67,0h1v2h-2v-1h1M69,0h1v1h-1M71,0h1v3h-4v-1h2v-1h1M73,0h1v1h-1M75,0h1v2h-2v-1h1M77,0h1v1h-1M79,0h1v4h-8v-1h4v-1h2v-1h1M81,0h1v1h-1M83,0h1v2h-2v-1h1M85,0h1v1h-1M87,0h1v3h-4v-1h2v-1h1M89,0h1v1h-1M91,0h1v2h-2v-1h1M93,0h1v1h-1M95,0h1v4h-8v-1h4v-1h2v-1h1M97,0h1v1h-1M99,0h1v2h-2v-1h1M101,0h1v1h-1M103,0h1v3h-4v-1h2v-1h1M105,0h1v1h-1M107,0h1v2h-2v-1h1M109,0h1v1h-1M111,0h1v4h-8v-1h4v-1h2v-1h1M113,0h1v1h-1M115,0h1v2h-2v-1h1M117,0h1v1h-1M119,0h1v3h-4v-1h2v-1h1M121,0h1v1h-1M123,0h1v2h-2v-1h1M125,0h1v1h-1M127,0h1v4h-8v-1h4v-1h2v-1h1M129,0h1v1h-1M131,0h1v2h-2v-1h1M133,0h1v1h-1M135,0h1v3h-4v-1h2v-1h1M137,0h1v1h-1M139,0h1v2h-2v-1h1M141,0h1v1h-1M143,0h1v4h-8v-1h4v-1h2v-1h1M145,0h1v1h-1M147,0h1v2h-2v-1h1M149,0h1v1h-1M151,0h1v3h-4v-1h2v-1h1M153,0h1v1h-1M155,0h1v2h-2v-1h1M157,0h1v1h-1M159,0h1v4h-8v-1h4v-1h2v-1h1M161,0h1v1h-1M163,0h1v2h-2v-1h1M165,0h1v1h-1M167,0h1v3h-4v-1h2v-1h1M169,0h1v1h-1M171,0h1v2h-2v-1h1M173,0h1v1h-1M175,0h1v4h-8v-1h4v-1h2v-1h1M177,0h1v1h-1M179,0h1v2h-2v-1h1M181,0h1v1h-1M183,0h1v3h-4v-1h2v-1h1M185,0h1v1h-1M187,0h1v2h-2v-1h1M189,0h1v1h-1M191,0h1v4h-8v-1h4v-1h2v-1h1M193,0h1v1h-1M195,0h1v2h-2v-1h1M197,0h1v1h-1M199,0h1v3h-4v-1h2v-1h1M201,0h1v1h-1M203,0h1v2h-2v-1h1M205,0h1v1h-1M207,0h1v4h-8v-1h4v-1h2v-1h1M209,0h1v1h-1M211,0h1v2h-2v-1h1M213,0h1v1h-1M215,0h1v3h-4v-1h2v-1h1M217,0h1v1h-1M219,0h1v2h-2v-1h1M221,0h1v1h-1M223,0h1v4h-8v-1h4v-1h2v-1h1M225,0h1v1h-1M227,0h1v2h-2v-1h1M229,0h1v1h-1M231,0h1v3h-4v-1h2v-1h1M233,0h1v1h-1M235,0h1v2h-2v-1h1M237,0h1v1h-1M239,0h1v4h-8v-1h4v-1h2v-1h1M241,0h1v1h-1M243,0h1v2h-2v-1h1M245,0h1v1h-1M247,0h1v3h-4v-1h2v-1h1M249,0h1v1h-1M251,0h1v2h-2v-1h1M253,0h1v1h-1M255,0h1v4h-8v-1h4v-1h2v-1h1M16,8h16v1h-16M48,8h16v2h-32v-1h16M80,8h16v1h-16M112,8h16v3h-64v-1h32v-1h16M144,8h16v1h-16M176,8h16v2h-32v-1h16M208,8h16v1h-16M240,8h16v4h-128v-1h64v-1h32v-1h16"/>
        <path fill="#5a6f87" d="M0,4h1v4h-1M0,12h1v4h-1" transform="scale(256, 1)"/>
        <use xlink:href="#grid_16x256" stroke="#000"/>
    </g>

    <!-- lower small matrix -->
    <g transform="translate(0, 22)">
        <rect fill="#fff" width="8" height="16"/>
        <path fill="#e95959" d="M0,0h1v1h1v1h-1v1h1v-1h1v1h1v1h-3v1h1v1h-1v1h1v-1h1v1h1v1h-3v1h1v1h-1v1h1v-1h1v1h1v-3h1v1h1v1h-1v1h1v-1h1v1h1v1h-3v1h1v1h-1v1h1v-1h1v1h1v1h-8M1,12v1h1v1h-1v1h1v-1h1v1h1v-3"/>
        <path fill="#5a6f87" d="" transform="scale(8, 1)"/>
        <use xlink:href="#grid_16x8"/>
    </g>

    <!-- lower main matrix -->
    <g transform="translate(14, 22)">
        <rect fill="#fff" width="256" height="16"/>
        <path fill="#e95959" d="M1,0h1v1h1v1h-1v1h1v1h-1v1h1v1h-1v1h1v1h-1v1h1v1h-1v1h1v1h-1v1h1v1h-1v1h1v1h-2M3,0h1v1h-1M5,0h1v1h1v2h-1v-1h-1M7,0h1v1h-1M9,0h1v1h1v1h-1v1h-1M11,0h1v1h-1M13,0h1v1h1v3h-1v1h1v3h-1v1h1v3h-1v1h1v3h-2v-1h1v-1h-1v-3h1v-1h-1v-3h1v-1h-1v-3h1v-1h-1M15,0h1v1h-1M17,0h1v1h1v1h-1v1h1v1h-1v1h1v1h-1v1h1v2h-1v-1h-1M19,0h1v1h-1M21,0h1v1h1v2h-1v-1h-1M23,0h1v1h-1M25,0h1v1h1v1h-1v1h-1M27,0h1v1h-1M29,0h1v1h1v3h-1v1h1v4h-1v-1h-1v-1h1v-1h-1v-3h1v-1h-1M31,0h1v1h-1M33,0h1v1h1v1h-1v1h1v1h-1v1h1v1h-1v1h1v1h-1v1h-1M35,0h1v1h-1M37,0h1v1h1v2h-1v-1h-1M39,0h1v1h-1M41,0h1v1h1v1h-1v1h-1M43,0h1v1h-1M45,0h1v1h1v3h-1v1h1v3h-1v1h-1v-2h1v-1h-1v-3h1v-1h-1M47,0h1v1h-1M49,0h1v1h1v1h-1v1h1v1h-1v1h1v1h-1v1h1v9h-2v-1h1v-1h-1v-1h1v-1h-1v-1h1v-1h-1v-1h1v-1h-1M51,0h1v1h-1M53,0h1v1h1v2h-1v-1h-1M55,0h1v1h-1M57,0h1v1h1v1h-1v1h-1M59,0h1v1h-1M61,0h1v1h1v3h-1v1h1v5h-1v1h1v3h-1v1h1v1h-2v-3h1v-1h-1v-3h1v-1h-1v-1h1v-1h-1v-3h1v-1h-1M63,0h1v1h-1M65,0h1v1h1v1h-1v1h1v1h-1v1h1v1h-1v1h1v1h-1v1h1v2h-1v-1h-1M67,0h1v1h-1M69,0h1v1h1v2h-1v-1h-1M71,0h1v1h-1M73,0h1v1h1v1h-1v1h-1M75,0h1v1h-1M77,0h1v1h1v3h-1v1h1v3h-1v1h1v1h-1v1h-1v-4h1v-1h-1v-3h1v-1h-1M79,0h1v1h-1M81,0h1v1h1v1h-1v1h1v1h-1v1h1v1h-1v1h1v2h-1v-1h-1M83,0h1v1h-1M85,0h1v1h1v2h-1v-1h-1M87,0h1v1h-1M89,0h1v1h1v1h-1v1h-1M91,0h1v1h-1M93,0h1v1h1v3h-1v1h1v4h-1v-1h-1v-1h1v-1h-1v-3h1v-1h-1M95,0h1v1h-1M97,0h1v1h1v1h-1v1h1v1h-1v1h1v1h-1v1h1v1h-1v1h-1M99,0h1v1h-1M101,0h1v1h1v2h-1v-1h-1M103,0h1v1h-1M105,0h1v1h1v1h-1v1h-1M107,0h1v1h-1M109,0h1v1h1v3h-1v1h1v3h-1v1h-1v-2h1v-1h-1v-3h1v-1h-1M111,0h1v1h-1M113,0h1v1h1v1h-1v1h1v1h-1v1h1v1h-1v1h1v3h-1v1h-1v-2h1v-1h-1M115,0h1v1h-1M117,0h1v1h1v2h-1v-1h-1M119,0h1v1h-1M121,0h1v1h1v1h-1v1h-1M123,0h1v1h-1M125,0h1v1h1v3h-1v1h1v6h-1v-1h-1v-1h1v-1h-1v-1h1v-1h-1v-3h1v-1h-1M127,0h1v1h-1M129,0h1v1h1v1h-1v1h1v1h-1v1h1v1h-1v1h1v1h-1v1h1v1h-1v1h-1M131,0h1v1h-1M133,0h1v1h1v2h-1v-1h-1M135,0h1v1h-1M137,0h1v1h1v1h-1v1h-1M139,0h1v1h-1M141,0h1v1h1v3h-1v1h1v3h-1v1h1v2h-1v-1h-1v-3h1v-1h-1v-3h1v-1h-1M143,0h1v1h-1M145,0h1v1h1v1h-1v1h1v1h-1v1h1v1h-1v1h1v2h-1v-1h-1M147,0h1v1h-1M149,0h1v1h1v2h-1v-1h-1M151,0h1v1h-1M153,0h1v1h1v1h-1v1h-1M155,0h1v1h-1M157,0h1v1h1v3h-1v1h1v4h-1v-1h-1v-1h1v-1h-1v-3h1v-1h-1M159,0h1v1h-1M161,0h1v1h1v1h-1v1h1v1h-1v1h1v1h-1v1h1v1h-1v1h-1M163,0h1v1h-1M165,0h1v1h1v2h-1v-1h-1M167,0h1v1h-1M169,0h1v1h1v1h-1v1h-1M171,0h1v1h-1M173,0h1v1h1v3h-1v1h1v3h-1v1h-1v-2h1v-1h-1v-3h1v-1h-1M175,0h1v1h-1M177,0h1v1h1v1h-1v1h1v1h-1v1h1v1h-1v1h1v4h-1v-1h-1v-1h1v-1h-1M179,0h1v1h-1M181,0h1v1h1v2h-1v-1h-1M183,0h1v1h-1M185,0h1v1h1v1h-1v1h-1M187,0h1v1h-1M189,0h1v1h1v3h-1v1h1v5h-1v1h-1v-2h1v-1h-1v-1h1v-1h-1v-3h1v-1h-1M191,0h1v1h-1M193,0h1v1h1v1h-1v1h1v1h-1v1h1v1h-1v1h1v1h-1v1h1v3h-1v1h1v3h-2v-1h1v-1h-1v-3h1v-1h-1M195,0h1v1h-1M197,0h1v1h1v2h-1v-1h-1M199,0h1v1h-1M201,0h1v1h1v1h-1v1h-1M203,0h1v1h-1M205,0h1v1h1v3h-1v1h1v3h-1v1h1v1h-1v1h1v1h-1v1h1v1h-1v1h1v1h-2v-9h1v-1h-1v-3h1v-1h-1M207,0h1v1h-1M209,0h1v1h1v1h-1v1h1v1h-1v1h1v1h-1v1h1v2h-1v-1h-1M211,0h1v1h-1M213,0h1v1h1v2h-1v-1h-1M215,0h1v1h-1M217,0h1v1h1v1h-1v1h-1M219,0h1v1h-1M221,0h1v1h1v3h-1v1h1v4h-1v-1h-1v-1h1v-1h-1v-3h1v-1h-1M223,0h1v1h-1M225,0h1v1h1v1h-1v1h1v1h-1v1h1v1h-1v1h1v1h-1v1h-1M227,0h1v1h-1M229,0h1v1h1v2h-1v-1h-1M231,0h1v1h-1M233,0h1v1h1v1h-1v1h-1M235,0h1v1h-1M237,0h1v1h1v3h-1v1h1v3h-1v1h-1v-2h1v-1h-1v-3h1v-1h-1M239,0h1v1h-1M241,0h1v1h1v1h-1v1h1v1h-1v1h1v1h-1v1h1v3h-1v1h1v3h-1v1h1v1h-2v-3h1v-1h-1v-3h1v-1h-1M243,0h1v1h-1M245,0h1v1h1v2h-1v-1h-1M247,0h1v1h-1M249,0h1v1h1v1h-1v1h-1M251,0h1v1h-1M253,0h1v1h1v3h-1v1h1v11h-2v-1h1v-1h-1v-1h1v-1h-1v-1h1v-1h-1v-1h1v-1h-1v-1h1v-1h-1v-3h1v-1h-1M255,0h1v1h-1M3,2h2v2h-1v-1h-1M11,2h2v1h-1v2h-1M19,2h2v2h-1v-1h-1M27,2h2v1h-1v2h-1M35,2h2v2h-1v-1h-1M43,2h2v1h-1v2h-1M51,2h2v2h-1v-1h-1M59,2h2v1h-1v2h-1M67,2h2v2h-1v-1h-1M75,2h2v1h-1v2h-1M83,2h2v2h-1v-1h-1M91,2h2v1h-1v2h-1M99,2h2v2h-1v-1h-1M107,2h2v1h-1v2h-1M115,2h2v2h-1v-1h-1M123,2h2v1h-1v2h-1M131,2h2v2h-1v-1h-1M139,2h2v1h-1v2h-1M147,2h2v2h-1v-1h-1M155,2h2v1h-1v2h-1M163,2h2v2h-1v-1h-1M171,2h2v1h-1v2h-1M179,2h2v2h-1v-1h-1M187,2h2v1h-1v2h-1M195,2h2v2h-1v-1h-1M203,2h2v1h-1v2h-1M211,2h2v2h-1v-1h-1M219,2h2v1h-1v2h-1M227,2h2v2h-1v-1h-1M235,2h2v1h-1v2h-1M243,2h2v2h-1v-1h-1M251,2h2v1h-1v2h-1M7,3h2v1h-1v1h-1M23,3h2v1h-1v1h-1M39,3h2v1h-1v1h-1M55,3h2v1h-1v1h-1M71,3h2v1h-1v1h-1M87,3h2v1h-1v1h-1M103,3h2v1h-1v1h-1M119,3h2v1h-1v1h-1M135,3h2v1h-1v1h-1M151,3h2v1h-1v1h-1M167,3h2v1h-1v1h-1M183,3h2v1h-1v1h-1M199,3h2v1h-1v1h-1M215,3h2v1h-1v1h-1M231,3h2v1h-1v1h-1M247,3h2v1h-1v1h-1M3,4h1v1h-1M5,4h1v1h1v2h-1v-1h-1M9,4h1v1h1v1h-1v1h-1M15,4h1v1h-1M19,4h1v1h-1M21,4h1v1h1v2h-1v-1h-1M25,4h1v1h1v1h-1v1h-1M31,4h1v1h-1M35,4h1v1h-1M37,4h1v1h1v2h-1v-1h-1M41,4h1v1h1v1h-1v1h-1M47,4h1v1h-1M51,4h1v1h-1M53,4h1v1h1v2h-1v-1h-1M57,4h1v1h1v1h-1v1h-1M63,4h1v1h-1M67,4h1v1h-1M69,4h1v1h1v2h-1v-1h-1M73,4h1v1h1v1h-1v1h-1M79,4h1v1h-1M83,4h1v1h-1M85,4h1v1h1v2h-1v-1h-1M89,4h1v1h1v1h-1v1h-1M95,4h1v1h-1M99,4h1v1h-1M101,4h1v1h1v2h-1v-1h-1M105,4h1v1h1v1h-1v1h-1M111,4h1v1h-1M115,4h1v1h-1M117,4h1v1h1v2h-1v-1h-1M121,4h1v1h1v1h-1v1h-1M127,4h1v1h-1M131,4h1v1h-1M133,4h1v1h1v2h-1v-1h-1M137,4h1v1h1v1h-1v1h-1M143,4h1v1h-1M147,4h1v1h-1M149,4h1v1h1v2h-1v-1h-1M153,4h1v1h1v1h-1v1h-1M159,4h1v1h-1M163,4h1v1h-1M165,4h1v1h1v2h-1v-1h-1M169,4h1v1h1v1h-1v1h-1M175,4h1v1h-1M179,4h1v1h-1M181,4h1v1h1v2h-1v-1h-1M185,4h1v1h1v1h-1v1h-1M191,4h1v1h-1M195,4h1v1h-1M197,4h1v1h1v2h-1v-1h-1M201,4h1v1h1v1h-1v1h-1M207,4h1v1h-1M211,4h1v1h-1M213,4h1v1h1v2h-1v-1h-1M217,4h1v1h1v1h-1v1h-1M223,4h1v1h-1M227,4h1v1h-1M229,4h1v1h1v2h-1v-1h-1M233,4h1v1h1v1h-1v1h-1M239,4h1v1h-1M243,4h1v1h-1M245,4h1v1h1v2h-1v-1h-1M249,4h1v1h1v1h-1v1h-1M255,4h1v1h-1M3,6h2v2h-1v-1h-1M11,6h2v1h-1v2h-1M19,6h2v4h-2v-1h1v-2h-1M27,6h2v1h-1v1h-1M35,6h2v2h-1v-1h-1M43,6h2v1h-1v2h1v3h-1v-1h-1M51,6h2v3h-1v-2h-1M59,6h2v1h-1v1h-1M67,6h2v2h-1v-1h-1M75,6h2v1h-1v2h-1M83,6h2v10h-1v-1h-1v-2h1v-2h-1v-2h1v-2h-1M91,6h2v1h-1v1h-1M99,6h2v2h-1v-1h-1M107,6h2v1h-1v2h1v1h-2M115,6h2v3h-1v-2h-1M123,6h2v1h-1v1h-1M131,6h2v2h-1v-1h-1M139,6h2v1h-1v2h-1M147,6h2v4h-2v-1h1v-2h-1M155,6h2v1h-1v1h-1M163,6h2v2h-1v-1h-1M171,6h2v1h-1v2h1v2h-1v2h1v2h-1v1h-1M179,6h2v3h-1v-2h-1M187,6h2v1h-1v1h-1M195,6h2v2h-1v-1h-1M203,6h2v1h-1v2h-1M211,6h2v5h-1v1h-1v-3h1v-2h-1M219,6h2v1h-1v1h-1M227,6h2v2h-1v-1h-1M235,6h2v1h-1v2h1v1h-2M243,6h2v3h-1v-2h-1M251,6h2v1h-1v1h-1M7,7h2v1h-1v1h-1M23,7h2v4h-2v-2h1v-1h-1M39,7h2v1h-1v1h1v1h-2M55,7h2v2h-1v-1h-1M71,7h2v1h-1v1h-1M87,7h2v3h-2v-1h1v-1h-1M103,7h2v1h-1v1h1v3h-1v1h1v3h-2M119,7h2v2h-1v-1h-1M135,7h2v1h-1v1h-1M151,7h2v9h-2v-3h1v-1h-1v-3h1v-1h-1M167,7h2v1h-1v1h1v1h-2M183,7h2v2h-1v-1h-1M199,7h2v1h-1v1h-1M215,7h2v3h-2v-1h1v-1h-1M231,7h2v1h-1v1h1v2h-2M247,7h2v2h-1v-1h-1M3,8h1v1h-1M5,8h1v1h1v2h-1v-1h-1M9,8h1v1h1v1h-1v1h-1M15,8h2v8h-1v-3h-1v-1h1v-3h-1M22,8h1v1h-1M26,8h1v1h-1M28,8h1v2h-2v-1h1M35,8h1v1h1v2h-1v2h1v2h-1v1h-1M37,8h1v1h-1M41,8h1v1h-1M47,8h2v1h-1v1h-1M54,8h1v2h-1v1h-1v-2h1M58,8h1v3h-1v-1h-1v-1h1M60,8h1v1h-1M67,8h1v1h-1M69,8h1v1h1v1h-1v1h1v1h-1v1h1v1h-1v1h1v1h-2M73,8h1v1h1v3h-1v1h1v3h-2v-1h1v-1h-1v-3h1v-1h-1M79,8h2v2h-1v-1h-1M86,8h1v1h-1M90,8h1v1h-1M92,8h1v3h-1v1h-1v-3h1M99,8h1v1h1v1h-2M101,8h1v1h-1M105,8h1v1h-1M111,8h2v1h-1v2h-1M118,8h1v8h-2v-1h1v-1h-1v-1h1v-1h-1v-1h1v-1h-1v-1h1M122,8h1v2h-1v1h1v3h-1v1h1v1h-2v-3h1v-1h-1v-3h1M124,8h1v1h-1M131,8h1v1h-1M133,8h1v1h1v3h-1v1h1v3h-2v-1h1v-1h-1v-3h1v-1h-1M137,8h1v1h1v1h-1v1h1v1h-1v1h1v1h-1v1h1v1h-2M143,8h2v3h-1v-2h-1M150,8h1v1h-1M154,8h1v1h-1M156,8h1v2h-2v-1h1M163,8h1v1h1v3h-1v-1h-1M165,8h1v1h-1M169,8h1v1h-1M175,8h2v1h-1v1h-1M182,8h1v2h-1v1h1v3h-1v1h1v1h-2v-3h1v-1h-1v-3h1M186,8h1v8h-2v-1h1v-1h-1v-1h1v-1h-1v-1h1v-1h-1v-1h1M188,8h1v1h-1M195,8h1v1h-1M197,8h1v1h1v1h-1v1h-1M201,8h1v1h1v2h-1v-1h-1M207,8h2v2h-1v-1h-1M214,8h1v1h-1M218,8h1v1h-1M220,8h1v8h-1v-1h-1v-2h1v-2h-1v-2h1M227,8h1v1h1v1h-2M229,8h1v1h-1M233,8h1v1h-1M239,8h2v1h-1v3h1v1h-1v3h-1M246,8h1v3h-1v-1h-1v-1h1M250,8h1v2h-1v1h-1v-2h1M252,8h1v1h-1M31,9h2v1h-1v1h1v1h-2M95,9h2v2h-1v-1h-1M159,9h2v1h-1v1h-1M223,9h2v3h-2v-1h1v-1h-1M3,10h2v2h-1v-1h-1M11,10h2v1h-1v2h-1M18,10h1v1h-1M21,10h1v1h1v2h-1v-1h-1M26,10h1v3h-1v-1h-1v-1h1M29,10h1v1h-1M33,10h1v1h-1M38,10h1v2h-1v1h-1v-2h1M41,10h1v1h1v1h-1v1h-1M46,10h1v1h-1M48,10h1v1h-1M55,10h2v3h-1v-1h-1M63,10h2v2h-1v-1h-1M71,10h2v1h-2M79,10h1v2h1v2h-1v-1h-1M81,10h1v1h1v2h-1v-1h-1M86,10h1v1h-1M89,10h1v1h-1M94,10h1v3h-1v-1h-1v-1h1M98,10h1v2h-1v1h-1v-2h1M101,10h1v1h-1M106,10h1v1h-1M109,10h1v1h1v1h-1v1h-1M115,10h2v1h-1v1h-1M123,10h2v3h-1v-2h-1M131,10h2v1h-1v2h-1M139,10h2v2h-1v-1h-1M146,10h1v3h-1v-1h-1v-1h1M149,10h1v1h-1M154,10h1v1h-1M157,10h1v1h1v2h-1v-1h-1M161,10h1v1h1v1h-1v1h-1M166,10h1v1h-1M169,10h1v1h-1M174,10h1v2h-1v1h-1v-2h1M176,10h1v3h-1v1h-1v-2h1M183,10h2v1h-2M191,10h2v1h-1v1h-1M199,10h2v2h-1v1h-1M207,10h1v1h-1M209,10h1v1h-1M214,10h1v3h-1v-1h-1v-1h1M217,10h1v1h1v2h-1v-1h-1M222,10h1v1h-1M226,10h1v1h-1M229,10h1v1h1v1h-1v1h-1M234,10h1v2h-1v1h-1v-2h1M237,10h1v1h-1M243,10h2v3h-1v-2h-1M251,10h2v1h-1v1h-1M7,11h2v1h-1v1h-1M19,11h1v1h-1M28,11h1v3h-2v-1h1M47,11h1v1h1v1h-1v1h-1M52,11h1v2h-1M59,11h1v1h-1M67,11h1v2h-1M76,11h1v1h-1M87,11h2v3h-2v-1h1v-1h-1M100,11h1v1h-1M107,11h1v2h1v1h-2M112,11h1v2h-1v2h-1v-3h1M127,11h2v1h-2M143,11h1v1h1v3h-1v-2h-1M148,11h1v3h-2v-1h1M155,11h1v1h-1M167,11h2v1h-1v1h1v1h-2M179,11h1v1h-1M188,11h1v2h-1M196,11h1v1h-1M203,11h1v2h-1M208,11h1v3h-1v-1h-1v-1h1M227,11h1v2h1v1h-2M236,11h1v1h-1M247,11h2v2h-1v-1h-1M3,12h1v1h-1M5,12h1v1h1v2h-1v-1h-1M9,12h1v1h1v1h-1v1h-1M18,12h1v1h-1M20,12h1v2h-2v-1h1M24,12h1v3h-2v-2h1M30,12h1v1h-1M33,12h1v1h-1M39,12h1v1h1v1h-2M43,12h1v1h1v3h-1v-1h-1M45,12h1v1h-1M54,12h1v2h-1v1h-1v-2h1M58,12h1v3h-1v-1h-1v-1h1M60,12h1v1h-1M65,12h1v1h1v2h-1v-1h-1M71,12h1v1h-1M75,12h1v1h-1M77,12h1v1h1v1h-1v1h-1M86,12h1v1h-1M90,12h1v1h-1M92,12h1v3h-1v1h-1v-3h1M99,12h1v1h1v1h-2M101,12h1v1h-1M105,12h1v1h-1M114,12h1v2h-1v1h-1v-2h1M116,12h1v1h-1M120,12h1v1h-1M126,12h1v3h-1v-1h-1v-1h1M129,12h1v1h1v1h-1v1h-1M135,12h1v1h-1M139,12h1v1h-1M141,12h1v1h1v2h-1v-1h-1M150,12h1v1h-1M154,12h1v1h-1M156,12h1v2h-2v-1h1M163,12h1v1h1v3h-1v-1h-1M165,12h1v1h-1M169,12h1v1h-1M178,12h1v3h-1v-1h-1v-1h1M180,12h1v1h-1M184,12h1v1h-1M190,12h1v2h-1v1h-1v-2h1M195,12h1v1h-1M197,12h1v1h1v1h-1v1h-1M201,12h1v1h1v2h-1v-1h-1M210,12h1v1h-1M212,12h1v3h-1v1h-1v-3h1M216,12h1v2h-2v-1h1M222,12h1v1h-1M225,12h1v1h-1M231,12h1v1h1v2h-2M235,12h1v1h1v1h-2M237,12h1v1h-1M246,12h1v3h-1v-1h-1v-1h1M250,12h1v2h-1v1h-1v-2h1M252,12h1v1h-1M31,13h2v1h-1v1h1v1h-2M95,13h2v2h-1v-1h-1M159,13h2v1h-1v1h-1M223,13h2v3h-2v-1h1v-1h-1M3,14h2v2h-1v-1h-1M11,14h2v1h-1v1h-1M18,14h1v1h-1M21,14h1v1h1v1h-2M26,14h1v2h-2v-1h1M29,14h1v1h-1M33,14h1v1h-1M38,14h1v2h-2v-1h1M41,14h1v1h1v1h-2M46,14h1v1h-1M48,14h1v1h-1M55,14h2v2h-2M63,14h2v2h-1v-1h-1M71,14h2v1h-2M79,14h1v2h-1M81,14h1v1h1v1h-2M86,14h1v1h-1M89,14h1v1h-1M94,14h1v2h-2v-1h1M98,14h1v2h-2v-1h1M101,14h1v1h-1M106,14h1v1h-1M109,14h1v1h1v1h-2M115,14h2v1h-1v1h-1M123,14h2v2h-1v-1h-1M131,14h2v1h-1v1h-1M139,14h2v2h-1v-1h-1M146,14h1v2h-2v-1h1M149,14h1v1h-1M154,14h1v1h-1M157,14h1v1h1v1h-2M161,14h1v1h1v1h-2M166,14h1v1h-1M169,14h1v1h-1M174,14h1v2h-2v-1h1M176,14h1v2h-1M183,14h2v1h-2M191,14h2v1h-1v1h-1M199,14h2v2h-2M207,14h1v1h-1M209,14h1v1h-1M214,14h1v2h-2v-1h1M217,14h1v1h1v1h-2M222,14h1v1h-1M226,14h1v1h-1M229,14h1v1h1v1h-2M234,14h1v2h-2v-1h1M237,14h1v1h-1M243,14h2v2h-1v-1h-1M251,14h2v1h-1v1h-1M7,15h2v1h-2M19,15h1v1h-1M28,15h1v1h-1M47,15h1v1h-1M52,15h1v1h-1M59,15h1v1h-1M67,15h1v1h-1M76,15h1v1h-1M87,15h2v1h-2M100,15h1v1h-1M107,15h1v1h-1M112,15h1v1h-1M127,15h2v1h-2M143,15h1v1h-1M148,15h1v1h-1M155,15h1v1h-1M167,15h2v1h-2M179,15h1v1h-1M188,15h1v1h-1M196,15h1v1h-1M203,15h1v1h-1M208,15h1v1h-1M227,15h1v1h-1M236,15h1v1h-1M247,15h2v1h-2"/>
        <path fill="#5a6f87" d="" transform="scale(256, 1)"/>
        <use xlink:href="#grid_16x256" stroke="#000"/>
    </g>


</svg>