<?xml version="1.0" encoding="UTF-8"?>
<svg xmlns="http://www.w3.org/2000/svg" xmlns:xlink="http://www.w3.org/1999/xlink" width="3039.0" height="2130">


<!-- MATRICES -->

<!-- red matrix -->
<g transform="translate(95, 225) scale(50)">
    <rect width="24" height="16" fill="white"/>
    <path fill="#eb4e4e" d="M0,0h24v1h-1v1h1v3h-6v-1h-3v1h-1v-1h-1v1h-1v-1h-3v1h-1v-1h-1v1h-1v-1h-3v1h-1v-1h-1v1h-1v-3h3v-1h-3M4,1v1h1v-1M12,1v1h1v-1M14,1v1h2v-1M17,1v1h2v-1M20,1v1h2v-1M0,6h24v1h-3v1h3v8h-24v-8h1v-1h-1M2,7v1h2v-1M5,7v1h2v-1M8,7v1h2v-1M11,7v1h1v-1M19,7v1h1v-1M6,13v1h3v-1M10,13v1h1v-1M12,13v1h3v-1M16,13v1h1v-1M18,13v1h3v-1M22,13v1h1v-1"/>
    <use xlink:href="#matrix-grid" />
</g>
<g transform="translate(95, 225)">
    <use xlink:href="#integer-matrix" />
    <use xlink:href="#indices-vertical-neutral" />
    <use xlink:href="#indices-horizontal" />
</g>

<!-- top right green matrix -->
<g transform="translate(1465, 225) scale(50)">
    <rect width="24" height="16" fill="white"/>
    <path fill="#36b136" d="M0,1h3v1h-3M4,1h1v1h-1M12,1h1v1h-1M14,1h2v1h-2M17,1h2v1h-2M20,1h2v1h-2M23,1h1v1h-1M0,3h3v1h-1v4h-1v-4h-1M4,3h1v1h1v1h-1v1h1v1h-1v1h-1v-1h-1v-1h1v-1h-1v-1h1M12,3h1v1h-1M14,3h2v1h1v-1h2v1h-1v4h-1v-1h-1v1h-1v-4h-1M20,3h2v1h-2M23,3h1v1h-1M7,4h1v1h-1M9,4h3v1h-3M13,4h1v1h-1M6,5h1v1h-1M8,5h1v1h-1M16,5v1h1v-1M19,5h1v1h-1M22,5h1v1h-1M7,6h1v1h-1M9,6h3v1h-3M13,6h1v1h-1M6,7h1v1h-1M8,7h1v1h-1M19,7h1v1h-1M22,7h1v1h-1M0,9h3v1h-3M4,9h1v1h-1M12,9h1v1h-1M14,9h2v1h-2M17,9h2v1h-2M20,9h2v1h-2M23,9h1v1h-1M0,11h3v1h-1v4h-1v-4h-1M4,11h1v1h1v1h-1v1h1v1h-1v1h-1v-1h-1v-1h1v-1h-1v-1h1M12,11h1v1h-1M14,11h2v1h1v-1h2v1h-1v4h-1v-1h-1v1h-1v-4h-1M20,11h2v1h-2M23,11h1v1h-1M7,12h1v1h-1M9,12h3v1h-3M13,12h1v1h-1M6,13h1v1h-1M8,13h1v1h-1M16,13v1h1v-1M19,13h1v1h-1M22,13h1v1h-1M7,14h1v1h-1M9,14h3v1h-3M13,14h1v1h-1M6,15h1v1h-1M8,15h1v1h-1M19,15h1v1h-1M22,15h1v1h-1"/>
    <use xlink:href="#matrix-grid" />
    <use xlink:href="#repr-squares" />
</g>
<g transform="translate(1465, 225)">
    <use xlink:href="#indices-vertical-negations" />
    <use xlink:href="#indices-horizontal" />
    <use xlink:href="#index-digit" />
    <use xlink:href="#partition" />
</g>

<!-- bottom left green matrix -->
<g transform="translate(95, 1295) scale(50)">
    <rect width="24" height="16" fill="white"/>
    <path fill="#36b136" d="M0,0h24v2h-1v-1h-1v1h-2v-1h-1v1h-2v-1h-1v1h-2v-1h-1v1h-1v-1h-7v1h-1v-1h-1v1h-3M0,3h3v1h-1v3h1v-1h1v-1h-1v-1h1v-1h1v1h1v1h-1v1h1v2h-6v-1h1v-3h-1M12,3h1v1h-1M14,3h2v1h1v-1h2v1h-1v4h-1v-1h-1v1h-1v-4h-1M20,3h2v1h-2M23,3h1v1h-1M7,4h1v1h-1M9,4h3v1h-3M13,4h1v1h-1M6,5h1v1h-1M8,5h1v1h-1M16,5v1h1v-1M19,5h1v1h-1M22,5h1v1h-1M7,6h1v1h-1M9,6h3v2h-1v-1h-1v1h-1M13,6h1v1h-1M21,7h1v1h-1M23,7h1v1h-1M0,9h3v1h-3M4,9h1v1h-1M12,9h1v1h-1M14,9h2v1h-2M17,9h2v1h-2M20,9h2v1h-2M23,9h1v1h-1M0,11h3v1h-1v3h1v-1h1v-1h-1v-1h1v-1h1v1h1v1h-1v1h1v1h1v-3h1v3h1v-1h1v-1h-1v-1h3v1h-1v1h1v1h1v-1h-1v-1h1v-1h1v1h1v-1h-1v-1h2v1h1v-1h2v1h-1v1h1v1h-1v1h6v1h-24v-1h1v-3h-1M12,11h1v1h-1M20,11h2v1h-2M23,11h1v1h-1M20,13h1v1h-1M14,14v1h1v-1"/>
    <use xlink:href="#matrix-grid" />
</g>
<g transform="translate(95, 1295)">
    <use xlink:href="#indices-vertical-digits" />
    <use xlink:href="#indices-horizontal" />
    <use xlink:href="#index-negation" />
</g>

<!-- blue matrix -->
<g transform="translate(1465, 1295)">
    <rect width="24" height="16" fill="white" transform="scale(50)"/>
    <path fill="#2d66b0" d="M0,1h3v1h-3M4,1h1v1h-1M12,1h1v1h-1M14,1h2v1h-2M17,1h2v1h-2M20,1h2v1h-2M23,1h1v1h-1M1,4h1v1h1v-1h3v1h1v-1h1v1h1v-1h3v1h1v-1h1v1h1v-1h3v1h6v1h-24v-1h1" transform="scale(50)" />
    <use xlink:href="#integer-matrix" />
    <path fill="#d0d0d0" fill-opacity=".92" d="M0,2h1v2h-1M0,6h1v10h-1" transform="scale(1200, 50)"/>
    <use xlink:href="#indices-vertical-neutral" />
    <use xlink:href="#indices-horizontal" />
    <use xlink:href="#matrix-grid" transform="scale(50)" />
</g>

<!-- small curtain matrix -->
<g transform="translate(2745, 18) scale(11.5)">
    <rect width="24" height="16" fill="white"/>
    <path fill="#366f36" d="M0,0h24v6h-1v1h1v7h-1v1h1v1h-24v-1h1v-1h-1v-7h1v-1h-1M7,1v1h-1v1h1v-1h1v1h1v-1h-1v-1M10,1v1h1v-1M13,1v1h1v-1M16,1v1h1v-1M19,2v1h1v-1M22,2v1h1v-1M12,4v1h1v-1M14,4v1h1v-1M18,4v1h1v-1M20,4v1h1v-1M2,6v1h1v-1M21,6v1h1v-1M7,9v1h-1v1h1v-1h1v1h1v-1h-1v-1M10,9v1h1v-1M13,9v1h1v-1M16,9v1h1v-1M19,10v1h1v-1M22,10v1h1v-1M12,12v1h1v-1M14,12v1h1v-1M18,12v1h1v-1M20,12v1h1v-1M2,14v1h1v-1M21,14v1h1v-1"/>
    <path fill="#36b136" d="M0,1h3v1h-3M4,1h1v1h-1M12,1h1v1h-1M14,1h2v1h-2M17,1h2v1h-2M20,1h2v1h-2M23,1h1v1h-1M0,3h3v1h-1v4h-1v-4h-1M4,3h1v1h1v1h-1v1h1v1h-1v1h-1v-1h-1v-1h1v-1h-1v-1h1M12,3h1v1h-1M14,3h2v1h1v-1h2v1h-1v4h-1v-1h-1v1h-1v-4h-1M20,3h2v1h-2M23,3h1v1h-1M7,4h1v1h-1M9,4h3v1h-3M13,4h1v1h-1M6,5h1v1h-1M8,5h1v1h-1M16,5v1h1v-1M19,5h1v1h-1M22,5h1v1h-1M7,6h1v1h-1M9,6h3v1h-3M13,6h1v1h-1M6,7h1v1h-1M8,7h1v1h-1M19,7h1v1h-1M22,7h1v1h-1M0,9h3v1h-3M4,9h1v1h-1M12,9h1v1h-1M14,9h2v1h-2M17,9h2v1h-2M20,9h2v1h-2M23,9h1v1h-1M0,11h3v1h-1v4h-1v-4h-1M4,11h1v1h1v1h-1v1h1v1h-1v1h-1v-1h-1v-1h1v-1h-1v-1h1M12,11h1v1h-1M14,11h2v1h1v-1h2v1h-1v4h-1v-1h-1v1h-1v-4h-1M20,11h2v1h-2M23,11h1v1h-1M7,12h1v1h-1M9,12h3v1h-3M13,12h1v1h-1M6,13h1v1h-1M8,13h1v1h-1M16,13v1h1v-1M19,13h1v1h-1M22,13h1v1h-1M7,14h1v1h-1M9,14h3v1h-3M13,14h1v1h-1M6,15h1v1h-1M8,15h1v1h-1M19,15h1v1h-1M22,15h1v1h-1"/>
    <use xlink:href="#matrix-grid" />
    <use xlink:href="#repr-squares" />
</g>


<!-- LABELS NEXT TO MATRICES -->

<!-- red sequence -->
<g style="text-anchor: end; letter-spacing: -1;" font-size="30px" font-family="sans-serif" transform="rotate(90, 695.0, 825.0) translate(20, 262)" fill="#bc3e3e">
    <text y="0">65373</text>
    <text y="50">57183</text>
    <text y="100">65373</text>
    <text y="150">57309</text>
    <text y="200">57183</text>
    <text y="250">57309</text>
    <text y="300">65485</text>
    <text y="350">57295</text>
    <text y="400">65485</text>
    <text y="450">57309</text>
    <text y="500">57295</text>
    <text y="550">57309</text>
    <text y="600">65359</text>
    <text y="650">57295</text>
    <text y="700">65359</text>
    <text y="750">57183</text>
    <text y="800">57295</text>
    <text y="850">57183</text>
    <text y="900">65359</text>
    <text y="950">65485</text>
    <text y="1000">65359</text>
    <text y="1050">65373</text>
    <text y="1100">65485</text>
    <text y="1150">65373</text>
</g>

<!-- top right green sequence -->
<g style="text-anchor: end; letter-spacing: -1;" font-size="30px" font-family="sans-serif" transform="rotate(90, 2065.0, 825.0) translate(1360, 262)" fill="#2b8d2b">
    <text y="0">2570</text>
    <text y="50">41120</text>
    <text y="100">2570</text>
    <text y="150">2570</text>
    <text y="200">41120</text>
    <text y="250">2570</text>
    <text y="300">64250</text>
    <text y="350">20560</text>
    <text y="400">64250</text>
    <text y="450">2570</text>
    <text y="500">20560</text>
    <text y="550">2570</text>
    <text y="600">20560</text>
    <text y="650">20560</text>
    <text y="700">20560</text>
    <text y="750">41120</text>
    <text y="800">20560</text>
    <text y="850">41120</text>
    <text y="900">20560</text>
    <text y="950">64250</text>
    <text y="1000">20560</text>
    <text y="1050">2570</text>
    <text y="1100">64250</text>
    <text y="1150">2570</text>
</g>

<!-- bottom left green sequence -->
<g style="text-anchor: end; letter-spacing: -1;" font-size="30px" font-family="sans-serif" transform="rotate(90, 695.0, 1895.0) translate(20, 1332)" fill="#2b8d2b">
    <text y="0">35467</text>
    <text y="50">32801</text>
    <text y="100">35467</text>
    <text y="150">43531</text>
    <text y="200">32801</text>
    <text y="250">43531</text>
    <text y="300">64251</text>
    <text y="350">61521</text>
    <text y="400">64251</text>
    <text y="450">43531</text>
    <text y="500">61521</text>
    <text y="550">43531</text>
    <text y="600">53457</text>
    <text y="650">61521</text>
    <text y="700">53457</text>
    <text y="750">32801</text>
    <text y="800">61521</text>
    <text y="850">32801</text>
    <text y="900">53457</text>
    <text y="950">64251</text>
    <text y="1000">53457</text>
    <text y="1050">35467</text>
    <text y="1100">64251</text>
    <text y="1150">35467</text>
</g>

<!-- blue sequence -->
<g style="text-anchor: end; letter-spacing: -1;" font-size="30px" font-family="sans-serif" transform="rotate(90, 2065.0, 1895.0) translate(1360, 1332)" fill="#24518c">
    <text y="0">34</text>
    <text y="50">32</text>
    <text y="100">34</text>
    <text y="150">34</text>
    <text y="200">32</text>
    <text y="250">34</text>
    <text y="300">50</text>
    <text y="350">48</text>
    <text y="400">50</text>
    <text y="450">34</text>
    <text y="500">48</text>
    <text y="550">34</text>
    <text y="600">48</text>
    <text y="650">48</text>
    <text y="700">48</text>
    <text y="750">32</text>
    <text y="800">48</text>
    <text y="850">32</text>
    <text y="900">48</text>
    <text y="950">50</text>
    <text y="1000">48</text>
    <text y="1050">34</text>
    <text y="1100">50</text>
    <text y="1150">34</text>
</g>


<defs>

<!-- defs of matrix grid (black lines) -->

<g id="matrix-grid">

    <g stroke="#000" stroke-width="24">
        <path stroke-dasharray=".03,  .97" d="M 12, -.015 v 17"/>
        <path stroke-dasharray=".1, 3.9" d="M 12, -.05 v 17"/>
    </g>

    <g stroke="#000" stroke-width="16">
        <path stroke-dasharray=".03, .97" d="M -.015, 8 h 25"/>
        <path stroke-dasharray=".1, 5.9" d="M -.05, 8 h 25"/>
    </g>

    <rect x="0" y="0" width="24" height="16" stroke="black" stroke-width=".1" fill="none"/>

</g>
<g id="integer-matrix" style="text-anchor: middle; letter-spacing: -1; fill-opacity: .5;" font-size="25px" font-family="sans-serif" transform="translate(25, 35)">
    <text y="0" x="0">10</text>
    <text y="0" x="50">9</text>
    <text y="0" x="100">12</text>
    <text y="0" x="150">12</text>
    <text y="0" x="200">9</text>
    <text y="0" x="250">10</text>
    <text y="0" x="300">6</text>
    <text y="0" x="350">5</text>
    <text y="0" x="400">6</text>
    <text y="0" x="450">5</text>
    <text y="0" x="500">3</text>
    <text y="0" x="550">3</text>
    <text y="0" x="600">12</text>
    <text y="0" x="650">12</text>
    <text y="0" x="700">10</text>
    <text y="0" x="750">9</text>
    <text y="0" x="800">10</text>
    <text y="0" x="850">9</text>
    <text y="0" x="900">5</text>
    <text y="0" x="950">6</text>
    <text y="0" x="1000">3</text>
    <text y="0" x="1050">3</text>
    <text y="0" x="1100">6</text>
    <text y="0" x="1150">5</text>
    <text y="50" x="0">11</text>
    <text y="50" x="50">11</text>
    <text y="50" x="100">13</text>
    <text y="50" x="150">14</text>
    <text y="50" x="200">13</text>
    <text y="50" x="250">14</text>
    <text y="50" x="300">7</text>
    <text y="50" x="350">7</text>
    <text y="50" x="400">7</text>
    <text y="50" x="450">7</text>
    <text y="50" x="500">7</text>
    <text y="50" x="550">7</text>
    <text y="50" x="600">13</text>
    <text y="50" x="650">14</text>
    <text y="50" x="700">11</text>
    <text y="50" x="750">11</text>
    <text y="50" x="800">14</text>
    <text y="50" x="850">13</text>
    <text y="50" x="900">13</text>
    <text y="50" x="950">14</text>
    <text y="50" x="1000">11</text>
    <text y="50" x="1050">11</text>
    <text y="50" x="1100">14</text>
    <text y="50" x="1150">13</text>
    <text y="100" x="0">8</text>
    <text y="100" x="50">8</text>
    <text y="100" x="100">8</text>
    <text y="100" x="150">8</text>
    <text y="100" x="200">8</text>
    <text y="100" x="250">8</text>
    <text y="100" x="300">4</text>
    <text y="100" x="350">4</text>
    <text y="100" x="400">2</text>
    <text y="100" x="450">1</text>
    <text y="100" x="500">2</text>
    <text y="100" x="550">1</text>
    <text y="100" x="600">4</text>
    <text y="100" x="650">4</text>
    <text y="100" x="700">2</text>
    <text y="100" x="750">1</text>
    <text y="100" x="800">2</text>
    <text y="100" x="850">1</text>
    <text y="100" x="900">4</text>
    <text y="100" x="950">4</text>
    <text y="100" x="1000">2</text>
    <text y="100" x="1050">1</text>
    <text y="100" x="1100">2</text>
    <text y="100" x="1150">1</text>
    <text y="150" x="0">9</text>
    <text y="150" x="50">10</text>
    <text y="150" x="100">9</text>
    <text y="150" x="150">10</text>
    <text y="150" x="200">12</text>
    <text y="150" x="250">12</text>
    <text y="150" x="300">5</text>
    <text y="150" x="350">6</text>
    <text y="150" x="400">3</text>
    <text y="150" x="450">3</text>
    <text y="150" x="500">6</text>
    <text y="150" x="550">5</text>
    <text y="150" x="600">5</text>
    <text y="150" x="650">6</text>
    <text y="150" x="700">3</text>
    <text y="150" x="750">3</text>
    <text y="150" x="800">6</text>
    <text y="150" x="850">5</text>
    <text y="150" x="900">12</text>
    <text y="150" x="950">12</text>
    <text y="150" x="1000">10</text>
    <text y="150" x="1050">9</text>
    <text y="150" x="1100">10</text>
    <text y="150" x="1150">9</text>
    <text y="200" x="0">14</text>
    <text y="200" x="50">13</text>
    <text y="200" x="100">14</text>
    <text y="200" x="150">13</text>
    <text y="200" x="200">11</text>
    <text y="200" x="250">11</text>
    <text y="200" x="300">14</text>
    <text y="200" x="350">13</text>
    <text y="200" x="400">14</text>
    <text y="200" x="450">13</text>
    <text y="200" x="500">11</text>
    <text y="200" x="550">11</text>
    <text y="200" x="600">14</text>
    <text y="200" x="650">13</text>
    <text y="200" x="700">14</text>
    <text y="200" x="750">13</text>
    <text y="200" x="800">11</text>
    <text y="200" x="850">11</text>
    <text y="200" x="900">7</text>
    <text y="200" x="950">7</text>
    <text y="200" x="1000">7</text>
    <text y="200" x="1050">7</text>
    <text y="200" x="1100">7</text>
    <text y="200" x="1150">7</text>
    <text y="250" x="0">15</text>
    <text y="250" x="50">15</text>
    <text y="250" x="100">15</text>
    <text y="250" x="150">15</text>
    <text y="250" x="200">15</text>
    <text y="250" x="250">15</text>
    <text y="250" x="300">15</text>
    <text y="250" x="350">15</text>
    <text y="250" x="400">15</text>
    <text y="250" x="450">15</text>
    <text y="250" x="500">15</text>
    <text y="250" x="550">15</text>
    <text y="250" x="600">15</text>
    <text y="250" x="650">15</text>
    <text y="250" x="700">15</text>
    <text y="250" x="750">15</text>
    <text y="250" x="800">15</text>
    <text y="250" x="850">15</text>
    <text y="250" x="900">15</text>
    <text y="250" x="950">15</text>
    <text y="250" x="1000">15</text>
    <text y="250" x="1050">15</text>
    <text y="250" x="1100">15</text>
    <text y="250" x="1150">15</text>
    <text y="300" x="0">12</text>
    <text y="300" x="50">12</text>
    <text y="300" x="100">10</text>
    <text y="300" x="150">9</text>
    <text y="300" x="200">10</text>
    <text y="300" x="250">9</text>
    <text y="300" x="300">12</text>
    <text y="300" x="350">12</text>
    <text y="300" x="400">10</text>
    <text y="300" x="450">9</text>
    <text y="300" x="500">10</text>
    <text y="300" x="550">9</text>
    <text y="300" x="600">6</text>
    <text y="300" x="650">5</text>
    <text y="300" x="700">6</text>
    <text y="300" x="750">5</text>
    <text y="300" x="800">3</text>
    <text y="300" x="850">3</text>
    <text y="300" x="900">6</text>
    <text y="300" x="950">5</text>
    <text y="300" x="1000">6</text>
    <text y="300" x="1050">5</text>
    <text y="300" x="1100">3</text>
    <text y="300" x="1150">3</text>
    <text y="350" x="0">13</text>
    <text y="350" x="50">14</text>
    <text y="350" x="100">11</text>
    <text y="350" x="150">11</text>
    <text y="350" x="200">14</text>
    <text y="350" x="250">13</text>
    <text y="350" x="300">13</text>
    <text y="350" x="350">14</text>
    <text y="350" x="400">11</text>
    <text y="350" x="450">11</text>
    <text y="350" x="500">14</text>
    <text y="350" x="550">13</text>
    <text y="350" x="600">7</text>
    <text y="350" x="650">7</text>
    <text y="350" x="700">7</text>
    <text y="350" x="750">7</text>
    <text y="350" x="800">7</text>
    <text y="350" x="850">7</text>
    <text y="350" x="900">14</text>
    <text y="350" x="950">13</text>
    <text y="350" x="1000">14</text>
    <text y="350" x="1050">13</text>
    <text y="350" x="1100">11</text>
    <text y="350" x="1150">11</text>
    <text y="400" x="0">2</text>
    <text y="400" x="50">1</text>
    <text y="400" x="100">4</text>
    <text y="400" x="150">4</text>
    <text y="400" x="200">1</text>
    <text y="400" x="250">2</text>
    <text y="400" x="300">2</text>
    <text y="400" x="350">1</text>
    <text y="400" x="400">4</text>
    <text y="400" x="450">4</text>
    <text y="400" x="500">1</text>
    <text y="400" x="550">2</text>
    <text y="400" x="600">8</text>
    <text y="400" x="650">8</text>
    <text y="400" x="700">8</text>
    <text y="400" x="750">8</text>
    <text y="400" x="800">8</text>
    <text y="400" x="850">8</text>
    <text y="400" x="900">1</text>
    <text y="400" x="950">2</text>
    <text y="400" x="1000">1</text>
    <text y="400" x="1050">2</text>
    <text y="400" x="1100">4</text>
    <text y="400" x="1150">4</text>
    <text y="450" x="0">3</text>
    <text y="450" x="50">3</text>
    <text y="450" x="100">5</text>
    <text y="450" x="150">6</text>
    <text y="450" x="200">5</text>
    <text y="450" x="250">6</text>
    <text y="450" x="300">3</text>
    <text y="450" x="350">3</text>
    <text y="450" x="400">5</text>
    <text y="450" x="450">6</text>
    <text y="450" x="500">5</text>
    <text y="450" x="550">6</text>
    <text y="450" x="600">9</text>
    <text y="450" x="650">10</text>
    <text y="450" x="700">9</text>
    <text y="450" x="750">10</text>
    <text y="450" x="800">12</text>
    <text y="450" x="850">12</text>
    <text y="450" x="900">9</text>
    <text y="450" x="950">10</text>
    <text y="450" x="1000">9</text>
    <text y="450" x="1050">10</text>
    <text y="450" x="1100">12</text>
    <text y="450" x="1150">12</text>
    <text y="500" x="0">0</text>
    <text y="500" x="50">0</text>
    <text y="500" x="100">0</text>
    <text y="500" x="150">0</text>
    <text y="500" x="200">0</text>
    <text y="500" x="250">0</text>
    <text y="500" x="300">0</text>
    <text y="500" x="350">0</text>
    <text y="500" x="400">0</text>
    <text y="500" x="450">0</text>
    <text y="500" x="500">0</text>
    <text y="500" x="550">0</text>
    <text y="500" x="600">0</text>
    <text y="500" x="650">0</text>
    <text y="500" x="700">0</text>
    <text y="500" x="750">0</text>
    <text y="500" x="800">0</text>
    <text y="500" x="850">0</text>
    <text y="500" x="900">0</text>
    <text y="500" x="950">0</text>
    <text y="500" x="1000">0</text>
    <text y="500" x="1050">0</text>
    <text y="500" x="1100">0</text>
    <text y="500" x="1150">0</text>
    <text y="550" x="0">1</text>
    <text y="550" x="50">2</text>
    <text y="550" x="100">1</text>
    <text y="550" x="150">2</text>
    <text y="550" x="200">4</text>
    <text y="550" x="250">4</text>
    <text y="550" x="300">1</text>
    <text y="550" x="350">2</text>
    <text y="550" x="400">1</text>
    <text y="550" x="450">2</text>
    <text y="550" x="500">4</text>
    <text y="550" x="550">4</text>
    <text y="550" x="600">1</text>
    <text y="550" x="650">2</text>
    <text y="550" x="700">1</text>
    <text y="550" x="750">2</text>
    <text y="550" x="800">4</text>
    <text y="550" x="850">4</text>
    <text y="550" x="900">8</text>
    <text y="550" x="950">8</text>
    <text y="550" x="1000">8</text>
    <text y="550" x="1050">8</text>
    <text y="550" x="1100">8</text>
    <text y="550" x="1150">8</text>
    <text y="600" x="0">6</text>
    <text y="600" x="50">5</text>
    <text y="600" x="100">6</text>
    <text y="600" x="150">5</text>
    <text y="600" x="200">3</text>
    <text y="600" x="250">3</text>
    <text y="600" x="300">10</text>
    <text y="600" x="350">9</text>
    <text y="600" x="400">12</text>
    <text y="600" x="450">12</text>
    <text y="600" x="500">9</text>
    <text y="600" x="550">10</text>
    <text y="600" x="600">10</text>
    <text y="600" x="650">9</text>
    <text y="600" x="700">12</text>
    <text y="600" x="750">12</text>
    <text y="600" x="800">9</text>
    <text y="600" x="850">10</text>
    <text y="600" x="900">3</text>
    <text y="600" x="950">3</text>
    <text y="600" x="1000">5</text>
    <text y="600" x="1050">6</text>
    <text y="600" x="1100">5</text>
    <text y="600" x="1150">6</text>
    <text y="650" x="0">7</text>
    <text y="650" x="50">7</text>
    <text y="650" x="100">7</text>
    <text y="650" x="150">7</text>
    <text y="650" x="200">7</text>
    <text y="650" x="250">7</text>
    <text y="650" x="300">11</text>
    <text y="650" x="350">11</text>
    <text y="650" x="400">13</text>
    <text y="650" x="450">14</text>
    <text y="650" x="500">13</text>
    <text y="650" x="550">14</text>
    <text y="650" x="600">11</text>
    <text y="650" x="650">11</text>
    <text y="650" x="700">13</text>
    <text y="650" x="750">14</text>
    <text y="650" x="800">13</text>
    <text y="650" x="850">14</text>
    <text y="650" x="900">11</text>
    <text y="650" x="950">11</text>
    <text y="650" x="1000">13</text>
    <text y="650" x="1050">14</text>
    <text y="650" x="1100">13</text>
    <text y="650" x="1150">14</text>
    <text y="700" x="0">4</text>
    <text y="700" x="50">4</text>
    <text y="700" x="100">2</text>
    <text y="700" x="150">1</text>
    <text y="700" x="200">2</text>
    <text y="700" x="250">1</text>
    <text y="700" x="300">8</text>
    <text y="700" x="350">8</text>
    <text y="700" x="400">8</text>
    <text y="700" x="450">8</text>
    <text y="700" x="500">8</text>
    <text y="700" x="550">8</text>
    <text y="700" x="600">2</text>
    <text y="700" x="650">1</text>
    <text y="700" x="700">4</text>
    <text y="700" x="750">4</text>
    <text y="700" x="800">1</text>
    <text y="700" x="850">2</text>
    <text y="700" x="900">2</text>
    <text y="700" x="950">1</text>
    <text y="700" x="1000">4</text>
    <text y="700" x="1050">4</text>
    <text y="700" x="1100">1</text>
    <text y="700" x="1150">2</text>
    <text y="750" x="0">5</text>
    <text y="750" x="50">6</text>
    <text y="750" x="100">3</text>
    <text y="750" x="150">3</text>
    <text y="750" x="200">6</text>
    <text y="750" x="250">5</text>
    <text y="750" x="300">9</text>
    <text y="750" x="350">10</text>
    <text y="750" x="400">9</text>
    <text y="750" x="450">10</text>
    <text y="750" x="500">12</text>
    <text y="750" x="550">12</text>
    <text y="750" x="600">3</text>
    <text y="750" x="650">3</text>
    <text y="750" x="700">5</text>
    <text y="750" x="750">6</text>
    <text y="750" x="800">5</text>
    <text y="750" x="850">6</text>
    <text y="750" x="900">10</text>
    <text y="750" x="950">9</text>
    <text y="750" x="1000">12</text>
    <text y="750" x="1050">12</text>
    <text y="750" x="1100">9</text>
    <text y="750" x="1150">10</text>
</g>

<g id="indices-vertical-negations" style="text-anchor: middle; letter-spacing: -1;" font-size="20px" font-family="sans-serif" transform="translate(-40, 25)">
        <circle cx="0" cy="0" r="18" stroke="black" stroke-width="2" fill="#ddd" />
        <text y="7.2">0</text>
        <circle cx="0" cy="50" r="18" stroke="black" stroke-width="2" fill="#888" />
        <text y="57.2">1</text>
        <circle cx="0" cy="100" r="18" stroke="black" stroke-width="2" fill="#888" />
        <text y="107.2">2</text>
        <circle cx="0" cy="150" r="18" stroke="black" stroke-width="2" fill="#ddd" />
        <text y="157.2">3</text>
        <circle cx="0" cy="200" r="18" stroke="black" stroke-width="2" fill="#888" />
        <text y="207.2">4</text>
        <circle cx="0" cy="250" r="18" stroke="black" stroke-width="2" fill="#ddd" />
        <text y="257.2">5</text>
        <circle cx="0" cy="300" r="18" stroke="black" stroke-width="2" fill="#ddd" />
        <text y="307.2">6</text>
        <circle cx="0" cy="350" r="18" stroke="black" stroke-width="2" fill="#888" />
        <text y="357.2">7</text>
        <circle cx="0" cy="400" r="18" stroke="black" stroke-width="2" fill="#888" />
        <text y="407.2">8</text>
        <circle cx="0" cy="450" r="18" stroke="black" stroke-width="2" fill="#ddd" />
        <text y="457.2">9</text>
        <circle cx="0" cy="500" r="18" stroke="black" stroke-width="2" fill="#ddd" />
        <text y="507.2">10</text>
        <circle cx="0" cy="550" r="18" stroke="black" stroke-width="2" fill="#888" />
        <text y="557.2">11</text>
        <circle cx="0" cy="600" r="18" stroke="black" stroke-width="2" fill="#ddd" />
        <text y="607.2">12</text>
        <circle cx="0" cy="650" r="18" stroke="black" stroke-width="2" fill="#888" />
        <text y="657.2">13</text>
        <circle cx="0" cy="700" r="18" stroke="black" stroke-width="2" fill="#888" />
        <text y="707.2">14</text>
        <circle cx="0" cy="750" r="18" stroke="black" stroke-width="2" fill="#ddd" />
        <text y="757.2">15</text>
</g>
<g id="indices-vertical-digits" style="text-anchor: middle; letter-spacing: -1;" font-size="20px" font-family="sans-serif" transform="translate(-40, 25)">
        <rect x="-16" y="-16" width="32" height="32" rx="7" stroke="#66210a" stroke-opacity="0.5" stroke-width="2" fill="none" />
        <text y="7.2" fill="#66210a" fill-opacity="0.5">0</text>
        <rect x="-16" y="34" width="32" height="32" rx="7" stroke="#66210a" stroke-opacity="0.9" stroke-width="2" fill="none" />
        <text y="57.2" fill="#66210a" fill-opacity="0.9">1</text>
        <rect x="-16" y="84" width="32" height="32" rx="7" stroke="#66210a" stroke-opacity="0.9" stroke-width="2" fill="none" />
        <text y="107.2" fill="#66210a" fill-opacity="0.9">2</text>
        <rect x="-16" y="134" width="32" height="32" rx="7" stroke="#66210a" stroke-opacity="0.5" stroke-width="2" fill="none" />
        <text y="157.2" fill="#66210a" fill-opacity="0.5">3</text>
        <rect x="-16" y="184" width="32" height="32" rx="7" stroke="#66210a" stroke-opacity="0.9" stroke-width="2" fill="none" />
        <text y="207.2" fill="#66210a" fill-opacity="0.9">4</text>
        <rect x="-16" y="234" width="32" height="32" rx="7" stroke="#66210a" stroke-opacity="0.5" stroke-width="2" fill="none" />
        <text y="257.2" fill="#66210a" fill-opacity="0.5">5</text>
        <rect x="-16" y="284" width="32" height="32" rx="7" stroke="#66210a" stroke-opacity="0.5" stroke-width="2" fill="none" />
        <text y="307.2" fill="#66210a" fill-opacity="0.5">6</text>
        <rect x="-16" y="334" width="32" height="32" rx="7" stroke="#66210a" stroke-opacity="0.9" stroke-width="2" fill="none" />
        <text y="357.2" fill="#66210a" fill-opacity="0.9">7</text>
        <rect x="-16" y="384" width="32" height="32" rx="7" stroke="#66210a" stroke-opacity="0.9" stroke-width="2" fill="none" />
        <text y="407.2" fill="#66210a" fill-opacity="0.9">8</text>
        <rect x="-16" y="434" width="32" height="32" rx="7" stroke="#66210a" stroke-opacity="0.5" stroke-width="2" fill="none" />
        <text y="457.2" fill="#66210a" fill-opacity="0.5">9</text>
        <rect x="-16" y="484" width="32" height="32" rx="7" stroke="#66210a" stroke-opacity="0.5" stroke-width="2" fill="none" />
        <text y="507.2" fill="#66210a" fill-opacity="0.5">10</text>
        <rect x="-16" y="534" width="32" height="32" rx="7" stroke="#66210a" stroke-opacity="0.9" stroke-width="2" fill="none" />
        <text y="557.2" fill="#66210a" fill-opacity="0.9">11</text>
        <rect x="-16" y="584" width="32" height="32" rx="7" stroke="#66210a" stroke-opacity="0.5" stroke-width="2" fill="none" />
        <text y="607.2" fill="#66210a" fill-opacity="0.5">12</text>
        <rect x="-16" y="634" width="32" height="32" rx="7" stroke="#66210a" stroke-opacity="0.9" stroke-width="2" fill="none" />
        <text y="657.2" fill="#66210a" fill-opacity="0.9">13</text>
        <rect x="-16" y="684" width="32" height="32" rx="7" stroke="#66210a" stroke-opacity="0.9" stroke-width="2" fill="none" />
        <text y="707.2" fill="#66210a" fill-opacity="0.9">14</text>
        <rect x="-16" y="734" width="32" height="32" rx="7" stroke="#66210a" stroke-opacity="0.5" stroke-width="2" fill="none" />
        <text y="757.2" fill="#66210a" fill-opacity="0.5">15</text>
</g>
<g id="indices-vertical-neutral" style="text-anchor: middle; letter-spacing: -1;" font-size="15px" fill-opacity=".3" font-family="sans-serif" transform="translate(-40, 25)">
        <text y="7.2">0</text>
        <text y="57.2">1</text>
        <text y="107.2">2</text>
        <text y="157.2">3</text>
        <text y="207.2">4</text>
        <text y="257.2">5</text>
        <text y="307.2">6</text>
        <text y="357.2">7</text>
        <text y="407.2">8</text>
        <text y="457.2">9</text>
        <text y="507.2">10</text>
        <text y="557.2">11</text>
        <text y="607.2">12</text>
        <text y="657.2">13</text>
        <text y="707.2">14</text>
        <text y="757.2">15</text>
</g>
<g id="indices-horizontal" style="text-anchor: middle; letter-spacing: -1;" font-size="20px" font-family="sans-serif" transform="translate(25, -40)">
        <circle cx="0" cy="0" r="17.5" stroke="black" stroke-width="3.5" fill="white" />
        <text x="0" y="7.5" font-weight="bold" fill-opacity="1">0</text>
        <circle cx="50" cy="0" r="17.5" stroke="black" stroke-width="2" fill="#33eb2a" />
        <text x="50" y="7.5" font-weight="normal" fill-opacity="1">1</text>
        <circle cx="100" cy="0" r="17.5" stroke="black" stroke-width="2" fill="#33eb2a" />
        <text x="100" y="7.5" font-weight="normal" fill-opacity="1">2</text>
        <circle cx="150" cy="0" r="17.5" stroke="black" stroke-width="2" fill="white" />
        <text x="150" y="7.5" font-weight="normal" fill-opacity="0.7">3</text>
        <circle cx="200" cy="0" r="17.5" stroke="black" stroke-width="2" fill="white" />
        <text x="200" y="7.5" font-weight="normal" fill-opacity="0.7">4</text>
        <circle cx="250" cy="0" r="17.5" stroke="black" stroke-width="2" fill="#33eb2a" />
        <text x="250" y="7.5" font-weight="normal" fill-opacity="1">5</text>
        <circle cx="300" cy="0" r="17.5" stroke="black" stroke-width="2" fill="#33eb2a" />
        <text x="300" y="7.5" font-weight="normal" fill-opacity="1">6</text>
        <circle cx="350" cy="0" r="17.5" stroke="black" stroke-width="3.5" fill="white" />
        <text x="350" y="7.5" font-weight="bold" fill-opacity="1">7</text>
        <circle cx="400" cy="0" r="17.5" stroke="black" stroke-width="2" fill="white" />
        <text x="400" y="7.5" font-weight="normal" fill-opacity="0.7">8</text>
        <circle cx="450" cy="0" r="17.5" stroke="black" stroke-width="2" fill="#fb0" />
        <text x="450" y="7.5" font-weight="normal" fill-opacity="1">9</text>
        <circle cx="500" cy="0" r="17.5" stroke="black" stroke-width="2" fill="#fb0" />
        <text x="500" y="7.5" font-weight="normal" fill-opacity="1">10</text>
        <circle cx="550" cy="0" r="17.5" stroke="black" stroke-width="2" fill="white" />
        <text x="550" y="7.5" font-weight="normal" fill-opacity="0.7">11</text>
        <circle cx="600" cy="0" r="17.5" stroke="black" stroke-width="2" fill="white" />
        <text x="600" y="7.5" font-weight="normal" fill-opacity="0.7">12</text>
        <circle cx="650" cy="0" r="17.5" stroke="black" stroke-width="2" fill="#fb0" />
        <text x="650" y="7.5" font-weight="normal" fill-opacity="1">13</text>
        <circle cx="700" cy="0" r="17.5" stroke="black" stroke-width="2" fill="#33eb2a" />
        <text x="700" y="7.5" font-weight="normal" fill-opacity="1">14</text>
        <circle cx="750" cy="0" r="17.5" stroke="black" stroke-width="2" fill="white" />
        <text x="750" y="7.5" font-weight="normal" fill-opacity="0.7">15</text>
        <circle cx="800" cy="0" r="17.5" stroke="black" stroke-width="3.5" fill="white" />
        <text x="800" y="7.5" font-weight="bold" fill-opacity="1">16</text>
        <circle cx="850" cy="0" r="17.5" stroke="black" stroke-width="2" fill="#fb0" />
        <text x="850" y="7.5" font-weight="normal" fill-opacity="1">17</text>
        <circle cx="900" cy="0" r="17.5" stroke="black" stroke-width="2" fill="#fb0" />
        <text x="900" y="7.5" font-weight="normal" fill-opacity="1">18</text>
        <circle cx="950" cy="0" r="17.5" stroke="black" stroke-width="2" fill="white" />
        <text x="950" y="7.5" font-weight="normal" fill-opacity="0.7">19</text>
        <circle cx="1000" cy="0" r="17.5" stroke="black" stroke-width="2" fill="white" />
        <text x="1000" y="7.5" font-weight="normal" fill-opacity="0.7">20</text>
        <circle cx="1050" cy="0" r="17.5" stroke="black" stroke-width="2" fill="#33eb2a" />
        <text x="1050" y="7.5" font-weight="normal" fill-opacity="1">21</text>
        <circle cx="1100" cy="0" r="17.5" stroke="black" stroke-width="2" fill="#fb0" />
        <text x="1100" y="7.5" font-weight="normal" fill-opacity="1">22</text>
        <circle cx="1150" cy="0" r="17.5" stroke="black" stroke-width="3.5" fill="white" />
        <text x="1150" y="7.5" font-weight="bold" fill-opacity="1">23</text>
</g>

<g id="index-negation" transform="translate(-50, -50)">
    <circle cx="0" cy="0" r="18" stroke="black" stroke-width="2" fill="#ddd" transform="scale(1.5)" />
    <text y="11" style="text-anchor: middle; letter-spacing: -1;" font-size="30px" font-family="sans-serif">10</text>
</g>
<g id="index-digit" transform="translate(-50, -50)">
    <rect x="-16" y="-16" width="32" height="32" rx="7" stroke="#66210a" stroke-opacity="0.5" stroke-width="2" fill="none" transform="scale(1.5)" />
    <text y="11" fill="#66210a" fill-opacity="0.5" style="text-anchor: middle; letter-spacing: -1;" font-size="30px" font-family="sans-serif">10</text>
</g>
<g id="repr-squares" transform="translate(.3, .3)">
    <rect y="12" x="12" width=".4" height=".4" fill="black" />
    <rect y="12" x="14" width=".4" height=".4" fill="black" />
    <rect y="12" x="18" width=".4" height=".4" fill="black" />
    <rect y="12" x="20" width=".4" height=".4" fill="black" />
</g>
<g id="partition" transform="scale(50) translate(24.8, .5)" opacity="0.5">
            <line x1="0.0" y1="0" x2="0.0" y2="10" stroke="black" stroke-width=".05" stroke-opacity=".5" />
            <circle cx="0.0" cy="0" r=".15" />
            <circle cx="0.0" cy="2" r=".15" />
            <circle cx="0.0" cy="8" r=".15" />
            <circle cx="0.0" cy="10" r=".15" />
            <line x1="0.39" y1="1" x2="0.39" y2="11" stroke="black" stroke-width=".05" stroke-opacity=".5" />
            <circle cx="0.39" cy="1" r=".15" />
            <circle cx="0.39" cy="3" r=".15" />
            <circle cx="0.39" cy="9" r=".15" />
            <circle cx="0.39" cy="11" r=".15" />
            <line x1="0.78" y1="4" x2="0.78" y2="14" stroke="black" stroke-width=".05" stroke-opacity=".5" />
            <circle cx="0.78" cy="4" r=".15" />
            <circle cx="0.78" cy="6" r=".15" />
            <circle cx="0.78" cy="12" r=".15" />
            <circle cx="0.78" cy="14" r=".15" />
            <line x1="1.17" y1="5" x2="1.17" y2="15" stroke="black" stroke-width=".05" stroke-opacity=".5" />
            <circle cx="1.17" cy="5" r=".15" />
            <circle cx="1.17" cy="7" r=".15" />
            <circle cx="1.17" cy="13" r=".15" />
            <circle cx="1.17" cy="15" r=".15" />
</g>
</defs>


</svg>
