<?xml version="1.0" encoding="UTF-8" standalone="no"?>
<!-- Created with Inkscape (http://www.inkscape.org/) -->

<svg
   width="10.399999cm"
   height="10.399998cm"
   viewBox="0 0 10.399999 10.399998"
   version="1.1"
   id="svg1"
   inkscape:version="1.3.2 (1:1.3.2+202311252150+091e20ef0f)"
   sodipodi:docname="join_and_meet.svg"
   xmlns:inkscape="http://www.inkscape.org/namespaces/inkscape"
   xmlns:sodipodi="http://sodipodi.sourceforge.net/DTD/sodipodi-0.dtd"
   xmlns:xlink="http://www.w3.org/1999/xlink"
   xmlns="http://www.w3.org/2000/svg"
   xmlns:svg="http://www.w3.org/2000/svg">
  <sodipodi:namedview
     id="namedview1"
     pagecolor="#ffffff"
     bordercolor="#666666"
     borderopacity="1.0"
     inkscape:showpageshadow="2"
     inkscape:pageopacity="0.0"
     inkscape:pagecheckerboard="0"
     inkscape:deskcolor="#d1d1d1"
     inkscape:document-units="cm"
     showgrid="true"
     inkscape:zoom="1.8731776"
     inkscape:cx="33.632689"
     inkscape:cy="157.4864"
     inkscape:window-width="3440"
     inkscape:window-height="1403"
     inkscape:window-x="1920"
     inkscape:window-y="0"
     inkscape:window-maximized="1"
     inkscape:current-layer="layer5">
    <inkscape:grid
       id="grid1"
       units="cm"
       originx="0.20000002"
       originy="0.20000001"
       spacingx="1"
       spacingy="1"
       empcolor="#3f3fff"
       empopacity="0.25098039"
       color="#3f3fff"
       opacity="0.1254902"
       empspacing="5"
       dotted="false"
       gridanglex="30"
       gridanglez="30"
       visible="true" />
  </sodipodi:namedview>
  <defs
     id="defs1" />
  <g
     inkscape:groupmode="layer"
     id="layer3"
     inkscape:label="green squares"
     transform="translate(0.2,0.2)"
     sodipodi:insensitive="true">
    <rect
       style="opacity:1;fill:#00cc00;fill-opacity:1;stroke:none;stroke-width:0.79375"
       id="rect19-54-7"
       width="0.99999988"
       height="0.99999982"
       x="2.0000002"
       y="1.9999999" />
    <rect
       style="opacity:1;fill:#00cc00;fill-opacity:1;stroke:none;stroke-width:0.79375"
       id="rect19-54-7-6"
       width="0.99999988"
       height="0.99999982"
       x="3"
       y="2" />
    <rect
       style="opacity:1;fill:#00cc00;fill-opacity:1;stroke:none;stroke-width:0.79375"
       id="rect19-54-7-6-3"
       width="0.99999988"
       height="0.99999982"
       x="3.9952083"
       y="2.0108333" />
    <rect
       style="opacity:1;fill:#00cc00;fill-opacity:1;stroke:none;stroke-width:0.79375"
       id="rect19-54-7-6-6"
       width="0.99999988"
       height="0.99999982"
       x="4"
       y="3" />
    <rect
       style="opacity:1;fill:#00cc00;fill-opacity:1;stroke:none;stroke-width:0.79375"
       id="rect19-54-7-6-8"
       width="0.99999988"
       height="0.99999982"
       x="4"
       y="3.9999998" />
    <rect
       style="opacity:1;fill:#00cc00;fill-opacity:1;stroke:none;stroke-width:0.79375"
       id="rect19-54-7-9"
       width="0.99999988"
       height="0.99999982"
       x="3.0000002"
       y="3" />
    <rect
       style="opacity:1;fill:#00cc00;fill-opacity:1;stroke:none;stroke-width:0.79375"
       id="rect19-54-7-59"
       width="0.99999988"
       height="0.99999982"
       x="1.1241625e-07"
       y="9.7677592e-08" />
    <rect
       style="opacity:1;fill:#00cc00;fill-opacity:1;stroke:none;stroke-width:0.79375"
       id="rect19-54-7-1"
       width="0.99999988"
       height="0.99999982"
       x="1.0000005"
       y="1.0000001" />
    <rect
       style="opacity:1;fill:#00cc00;fill-opacity:1;stroke:none;stroke-width:0.79375"
       id="rect19-54-7-4"
       width="0.99999988"
       height="0.99999982"
       x="0.99999988"
       y="9.7677592e-08" />
    <rect
       style="opacity:1;fill:#00cc00;fill-opacity:1;stroke:none;stroke-width:0.79375"
       id="rect19-54-7-7-0"
       width="0.99999988"
       height="0.99999982"
       x="6"
       y="5.9999995" />
    <rect
       style="opacity:1;fill:#00cc00;fill-opacity:1;stroke:none;stroke-width:0.79375"
       id="rect19-54-7-7-5"
       width="0.99999988"
       height="0.99999982"
       x="9"
       y="5.9999995" />
    <rect
       style="opacity:1;fill:#00cc00;fill-opacity:1;stroke:none;stroke-width:0.79375"
       id="rect19-54-7-18"
       width="0.99999988"
       height="0.99999982"
       x="9"
       y="8.999999" />
    <rect
       style="opacity:1;fill:#00cc00;fill-opacity:1;stroke:none;stroke-width:0.79375"
       id="rect19-54-7-18-9"
       width="0.99999988"
       height="0.99999982"
       x="8"
       y="7.9999995" />
    <rect
       style="opacity:1;fill:#00cc00;fill-opacity:1;stroke:none;stroke-width:0.79375"
       id="rect19-54-7-18-7"
       width="0.99999988"
       height="0.99999982"
       x="9"
       y="7.9999995" />
  </g>
  <g
     inkscape:groupmode="layer"
     id="layer2"
     inkscape:label="red squares"
     sodipodi:insensitive="true"
     transform="translate(0.2,0.2)">
    <path
       id="rect19"
       style="opacity:1;fill:#ff0000;fill-opacity:1;stroke:none;stroke-width:0.79375"
       d="M 2.3384074e-5,2.2704584e-5 V 1.0000133 H 1.000014 V 2.000004 H 2.0000047 V 3.0000463 H 3.000047 V 2.000004 1.0000133 2.2704584e-5 H 2.0000047 1.000014 Z m 3.995208315926,0 V 1.0000133 h 0.00481 V 2.000004 3.0000463 H 5.0000283 V 2.000004 1.0000133 h -0.00481 V 2.2704584e-5 Z M 4.0000376,4.0000369 V 5.0000276 H 5.0000283 V 4.0000369 Z M 5.0000283,5.0000276 V 6.0000182 H 6.0000189 V 7.0000089 H 7.0000096 V 6.0000182 5.0000276 H 6.0000189 Z M 7.0000096,7.0000089 V 7.9999995 H 8.0000002 V 9.0000418 H 9.0000425 V 7.9999995 7.0000089 H 8.0000002 Z m 2.0000329,0 H 10.000033 V 6.0000182 5.0000276 H 9.0000425 v 0.9999906 z m 0,2.0000329 V 10.000033 H 10.000033 V 9.0000418 Z" />
  </g>
  <g
     inkscape:groupmode="layer"
     id="layer4"
     inkscape:label="brown squares (meet)"
     sodipodi:insensitive="true"
     transform="translate(0.2,0.2)">
    <rect
       style="fill:#806600;fill-opacity:1;stroke:none;stroke-width:0.79375"
       id="rect20-9-4"
       width="0.99999988"
       height="0.99999982"
       x="1"
       y="1.341194e-07" />
    <rect
       style="fill:#806600;fill-opacity:1;stroke:none;stroke-width:0.79375"
       id="rect20-9-0"
       width="0.99999988"
       height="0.99999982"
       x="1.1241625e-07"
       y="1.7232516e-08" />
    <rect
       style="fill:#806600;fill-opacity:1;stroke:none;stroke-width:0.79375"
       id="rect20-9-9"
       width="0.99999988"
       height="0.99999982"
       x="1"
       y="1" />
    <rect
       style="fill:#806600;fill-opacity:1;stroke:none;stroke-width:0.79375"
       id="rect20-9-3"
       width="0.99999988"
       height="0.99999982"
       x="2.0000002"
       y="2" />
    <rect
       style="fill:#806600;fill-opacity:1;stroke:none;stroke-width:0.79375"
       id="rect20-9-34"
       width="0.99999988"
       height="0.99999982"
       x="4"
       y="2" />
    <rect
       style="fill:#806600;fill-opacity:1;stroke:none;stroke-width:0.79375"
       id="rect20-9-1"
       width="0.99999988"
       height="0.99999982"
       x="4"
       y="4" />
    <rect
       style="fill:#806600;fill-opacity:1;stroke:none;stroke-width:0.79375"
       id="rect20-9-33"
       width="0.99999988"
       height="0.99999982"
       x="6.0000005"
       y="5.9999995" />
    <rect
       style="fill:#806600;fill-opacity:1;stroke:none;stroke-width:0.79375"
       id="rect20-9-6"
       width="0.99999988"
       height="0.99999982"
       x="9"
       y="5.9999995" />
    <rect
       style="fill:#806600;fill-opacity:1;stroke:none;stroke-width:0.79375"
       id="rect20-9-04"
       width="0.99999988"
       height="0.99999982"
       x="9"
       y="8.999999" />
    <rect
       style="fill:#806600;fill-opacity:1;stroke:none;stroke-width:0.79375"
       id="rect20-9-7"
       width="0.99999988"
       height="0.99999982"
       x="8"
       y="7.9999995" />
  </g>
  <g
     inkscape:label="labels"
     inkscape:groupmode="layer"
     id="layer1"
     sodipodi:insensitive="true"
     transform="translate(0.2,0.2)">
    <g
       id="g10"
       transform="matrix(0.62329499,0,0,0.62329499,0.1883525,0.1883525)"
       style="stroke-width:1.60438">
      <ellipse
         style="opacity:1;fill:#000000;fill-opacity:1;stroke:none;stroke-width:1.27347"
         id="path1"
         cx="0.5"
         cy="0.49999997"
         rx="0.5"
         ry="0.49999997" />
      <path
         d="m -205.3987,33.182529 q 0,-4.570312 0.93164,-7.347656 0.94922,-2.794922 2.79493,-4.30664 1.86328,-1.511719 4.67578,-1.511719 2.07422,0 3.63867,0.84375 1.56445,0.826172 2.58398,2.408203 1.01953,1.564453 1.59961,3.832031 0.58008,2.25 0.58008,6.082031 0,4.535157 -0.93164,7.330079 -0.93164,2.777343 -2.79492,4.30664 -1.84571,1.511719 -4.67578,1.511719 -3.72657,0 -5.85352,-2.671875 -2.54883,-3.216797 -2.54883,-10.476563 z m 3.25196,0 q 0,6.345704 1.47656,8.455079 1.49414,2.091796 3.67383,2.091796 2.17968,0 3.65625,-2.109375 1.49414,-2.109375 1.49414,-8.4375 0,-6.363281 -1.49414,-8.455078 -1.47657,-2.091797 -3.69141,-2.091797 -2.17969,0 -3.48047,1.845704 -1.63476,2.355468 -1.63476,8.701171 z"
         id="text1"
         style="font-size:36px;line-height:1.25;font-family:Arial;-inkscape-font-specification:Arial;letter-spacing:0px;word-spacing:0px;baseline-shift:baseline;fill:#ffffff;stroke-width:2.88787"
         transform="matrix(0.02645833,0,0,0.02645833,5.7121945,-0.3777218)"
         aria-label="0" />
    </g>
    <g
       id="g11"
       transform="matrix(0.62329499,0,0,0.62329499,0.5650575,0.56505745)"
       style="stroke-width:1.60438">
      <ellipse
         style="opacity:1;fill:#000000;fill-opacity:1;stroke:none;stroke-width:1.27347"
         id="path1-5"
         cx="1.5"
         cy="1.4999999"
         rx="0.5"
         ry="0.49999997" />
      <path
         d="m 70.5145,64.940819 h -3.164063 v -20.16211 q -1.142578,1.089844 -3.005859,2.179688 -1.845703,1.089844 -3.322266,1.634766 v -3.058594 q 2.654297,-1.248047 4.640625,-3.023438 1.986328,-1.77539 2.8125,-3.445312 H 70.5145 Z"
         id="text2"
         style="font-size:36px;line-height:1.25;font-family:Arial;-inkscape-font-specification:Arial;letter-spacing:0px;word-spacing:0px;baseline-shift:baseline;fill:#ffffff;stroke-width:2.88787"
         transform="matrix(0.02645833,0,0,0.02645833,-0.29303888,0.1240789)"
         aria-label="1" />
    </g>
    <g
       id="g12"
       transform="matrix(0.62329499,0,0,0.62329499,0.94176249,0.94176241)"
       style="stroke-width:1.60438">
      <ellipse
         style="opacity:1;fill:#000000;fill-opacity:1;stroke:none;stroke-width:1.27347"
         id="path1-2"
         cx="2.5"
         cy="2.4999998"
         rx="0.5"
         ry="0.49999997" />
      <path
         d="M 107.381,96.277794 V 99.31881 H 90.347794 q -0.03516,-1.142579 0.36914,-2.197266 0.650391,-1.740234 2.074219,-3.427734 1.441406,-1.6875 4.148437,-3.902344 4.20117,-3.445313 5.67773,-5.449219 1.47657,-2.021484 1.47657,-3.814453 0,-1.880859 -1.35352,-3.164063 -1.33594,-1.300781 -3.498045,-1.300781 -2.285156,0 -3.65625,1.371094 -1.371094,1.371094 -1.388672,3.796875 L 90.94545,80.896935 q 0.333984,-3.638672 2.513672,-5.53711 2.179687,-1.916015 5.853515,-1.916015 3.708983,0 5.871093,2.05664 2.16211,2.056641 2.16211,5.097656 0,1.546875 -0.63281,3.041016 -0.63281,1.494141 -2.10938,3.146484 -1.45898,1.652344 -4.869138,4.535157 -2.847656,2.390625 -3.65625,3.251953 -0.808593,0.84375 -1.335937,1.705078 z"
         id="text3"
         style="font-size:36px;line-height:1.25;font-family:Arial;-inkscape-font-specification:Arial;letter-spacing:0px;word-spacing:0px;baseline-shift:baseline;fill:#ffffff;stroke-width:2.88787"
         transform="matrix(0.02645833,0,0,0.02645833,-0.1157496,0.21449457)"
         aria-label="2" />
    </g>
    <g
       id="g13"
       transform="matrix(0.62329499,0,0,0.62329499,1.3184675,1.3184674)"
       style="stroke-width:1.60438">
      <ellipse
         style="opacity:1;fill:#000000;fill-opacity:1;stroke:none;stroke-width:1.27347"
         id="path1-7"
         cx="3.5"
         cy="3.4999998"
         rx="0.5"
         ry="0.49999997" />
      <path
         d="m 125.16643,130.17273 3.16406,-0.42188 q 0.54492,2.68946 1.8457,3.88477 1.31836,1.17773 3.19922,1.17773 2.23242,0 3.76172,-1.54687 1.54688,-1.54688 1.54688,-3.83203 0,-2.17969 -1.42383,-3.58594 -1.42383,-1.42383 -3.6211,-1.42383 -0.89648,0 -2.23242,0.35157 l 0.35156,-2.77735 q 0.31641,0.0352 0.50977,0.0352 2.02148,0 3.63867,-1.05469 1.61719,-1.05469 1.61719,-3.25195 0,-1.74024 -1.17773,-2.88282 -1.17774,-1.14257 -3.04102,-1.14257 -1.8457,0 -3.07617,1.16015 -1.23047,1.16016 -1.58203,3.48047 l -3.16407,-0.5625 q 0.58008,-3.18164 2.63672,-4.92187 2.05664,-1.75782 5.11524,-1.75782 2.10937,0 3.88476,0.91407 1.77539,0.89648 2.70703,2.46093 0.94922,1.56446 0.94922,3.32227 0,1.66992 -0.89648,3.04102 -0.89649,1.37109 -2.6543,2.17968 2.28516,0.52735 3.55078,2.19727 1.26563,1.65234 1.26563,4.14844 0,3.375 -2.46094,5.73046 -2.46094,2.3379 -6.22266,2.3379 -3.39257,0 -5.64257,-2.02149 -2.23243,-2.02148 -2.54883,-5.23828 z"
         id="text4"
         style="font-size:36px;line-height:1.25;font-family:Arial;-inkscape-font-specification:Arial;letter-spacing:0px;word-spacing:0px;baseline-shift:baseline;fill:#ffffff;stroke-width:2.88787"
         transform="matrix(0.02645833,0,0,0.02645833,-0.03493682,0.21211614)"
         aria-label="3" />
    </g>
    <g
       id="g14"
       transform="matrix(0.62329499,0,0,0.62329499,1.6951725,1.6951724)"
       style="stroke-width:1.60438">
      <ellipse
         style="opacity:1;fill:#000000;fill-opacity:1;stroke:none;stroke-width:1.27347"
         id="path1-6"
         cx="4.5"
         cy="4.4999995"
         rx="0.5"
         ry="0.49999997" />
      <path
         d="M 4.5326855,4.8409089 V 4.6776632 H 4.2368896 v -0.07674 l 0.3111439,-0.441833 h 0.068368 v 0.4418335 h 0.092087 v 0.076739 h -0.092087 v 0.1632457 z m 0,-0.2399852 V 4.2935006 L 4.3192102,4.6009237 Z"
         id="text5"
         style="font-size:36px;line-height:1.25;font-family:Arial;-inkscape-font-specification:Arial;letter-spacing:0px;word-spacing:0px;baseline-shift:baseline;fill:#ffffff;stroke-width:0.0764084"
         aria-label="4" />
    </g>
    <g
       id="g15"
       transform="matrix(0.62329499,0,0,0.62329499,2.0718775,2.0718774)"
       style="stroke-width:1.60438">
      <ellipse
         style="opacity:1;fill:#000000;fill-opacity:1;stroke:none;stroke-width:1.27347"
         id="path1-61"
         cx="5.5"
         cy="5.4999995"
         rx="0.5"
         ry="0.49999997" />
      <path
         d="m 203.49834,209.4276 3.32226,-0.28125 q 0.36914,2.42578 1.70508,3.65625 1.35352,1.21289 3.25195,1.21289 2.28516,0 3.86719,-1.72266 1.58203,-1.72265 1.58203,-4.57031 0,-2.70703 -1.52929,-4.27149 -1.51172,-1.56445 -3.97266,-1.56445 -1.5293,0 -2.75977,0.70313 -1.23047,0.68554 -1.93359,1.79297 l -2.9707,-0.38672 2.49609,-13.23633 h 12.81445 v 3.02344 h -10.2832 l -1.38867,6.92578 q 2.32031,-1.61719 4.86914,-1.61719 3.375,0 5.69531,2.33789 2.32031,2.33789 2.32031,6.01172 0,3.49805 -2.03906,6.04687 -2.47851,3.12891 -6.76758,3.12891 -3.51562,0 -5.74804,-1.96875 -2.21485,-1.96875 -2.53125,-5.2207 z"
         id="text6"
         style="font-size:36px;line-height:1.25;font-family:Arial;-inkscape-font-specification:Arial;letter-spacing:0px;word-spacing:0px;baseline-shift:baseline;fill:#ffffff;stroke-width:2.88787"
         transform="matrix(0.02645833,0,0,0.02645833,-0.11025885,0.11074616)"
         aria-label="5" />
    </g>
    <g
       id="g16"
       transform="matrix(0.62329499,0,0,0.62329499,2.4485825,2.4485821)"
       style="stroke-width:1.60438">
      <ellipse
         style="opacity:1;fill:#000000;fill-opacity:1;stroke:none;stroke-width:1.27347"
         id="path1-5-8"
         cx="6.5"
         cy="6.499999"
         rx="0.5"
         ry="0.49999997" />
      <path
         d="m 261.0965,239.72467 -3.14649,0.24609 q -0.42187,-1.86328 -1.19531,-2.70703 -1.2832,-1.35351 -3.16406,-1.35351 -1.51172,0 -2.6543,0.84375 -1.49414,1.08984 -2.35547,3.18164 -0.86133,2.09179 -0.89648,5.95898 1.14258,-1.74023 2.79492,-2.58398 1.65234,-0.84375 3.46289,-0.84375 3.16406,0 5.37891,2.33789 2.23242,2.32031 2.23242,6.01172 0,2.42578 -1.05469,4.51758 -1.03711,2.07421 -2.86523,3.18164 -1.82813,1.10742 -4.14844,1.10742 -3.95508,0 -6.45117,-2.90039 -2.4961,-2.91797 -2.4961,-9.59766 0,-7.4707 2.75977,-10.86328 2.4082,-2.95313 6.48633,-2.95313 3.04101,0 4.97461,1.70508 1.95117,1.70508 2.33789,4.71094 z m -12.91993,11.10938 q 0,1.63476 0.68555,3.1289 0.70313,1.49414 1.95117,2.28516 1.24805,0.77344 2.61914,0.77344 2.00391,0 3.44532,-1.61719 1.4414,-1.61719 1.4414,-4.39453 0,-2.67188 -1.42383,-4.20118 -1.42382,-1.54687 -3.58593,-1.54687 -2.14453,0 -3.63867,1.54687 -1.49415,1.5293 -1.49415,4.0254 z"
         id="text7"
         style="font-size:36px;line-height:1.25;font-family:Arial;-inkscape-font-specification:Arial;letter-spacing:0px;word-spacing:0px;baseline-shift:baseline;fill:#ffffff;stroke-width:2.88787"
         transform="matrix(0.02645833,0,0,0.02645833,-0.19516705,-0.02107627)"
         aria-label="6" />
    </g>
    <g
       id="g17"
       transform="matrix(0.62329499,0,0,0.62329499,2.8252875,2.8252875)"
       style="stroke-width:1.60438">
      <ellipse
         style="opacity:1;fill:#000000;fill-opacity:1;stroke:none;stroke-width:1.27347"
         id="path1-2-7"
         cx="7.5"
         cy="7.4999995"
         rx="0.5"
         ry="0.49999997" />
      <path
         d="m 7.2883436,7.2439686 v -0.08046 H 7.729712 v 0.065112 Q 7.6646,7.2979186 7.6004175,7.4127955 7.5367005,7.5276723 7.5018185,7.6490602 7.4767045,7.7346362 7.4697275,7.8364905 h -0.086041 q 0.00139,-0.08046 0.031626,-0.1944068 0.030231,-0.1139465 0.086506,-0.2195213 0.056741,-0.10604 0.1204579,-0.1785938 z"
         id="text8"
         style="font-size:36px;line-height:1.25;font-family:Arial;-inkscape-font-specification:Arial;letter-spacing:0px;word-spacing:0px;baseline-shift:baseline;fill:#ffffff;stroke-width:0.0764084"
         aria-label="7" />
    </g>
    <g
       id="g18"
       transform="matrix(0.62329499,0,0,0.62329499,3.2019925,3.2019925)"
       style="stroke-width:1.60438">
      <ellipse
         style="opacity:1;fill:#000000;fill-opacity:1;stroke:none;stroke-width:1.27347"
         id="path1-7-9"
         cx="8.5"
         cy="8.5"
         rx="0.5"
         ry="0.49999997" />
      <path
         d="m 321.25793,312.98254 q -1.96875,-0.7207 -2.91796,-2.05664 -0.94922,-1.33593 -0.94922,-3.19922 0,-2.8125 2.02148,-4.72851 2.02149,-1.91602 5.37891,-1.91602 3.375,0 5.43164,1.96875 2.05664,1.95118 2.05664,4.76368 0,1.79296 -0.94922,3.1289 -0.93164,1.31836 -2.84766,2.03906 2.37305,0.77344 3.60352,2.4961 1.24805,1.72265 1.24805,4.11328 0,3.30469 -2.33789,5.55469 -2.33789,2.25 -6.15235,2.25 -3.81445,0 -6.15234,-2.25 -2.33789,-2.26758 -2.33789,-5.64258 0,-2.51367 1.26562,-4.20117 1.28321,-1.70508 3.63867,-2.32032 z m -0.63281,-5.36132 q 0,1.82812 1.17774,2.98828 1.17773,1.16015 3.05859,1.16015 1.82813,0 2.98828,-1.14257 1.17774,-1.16016 1.17774,-2.83008 0,-1.74024 -1.21289,-2.91797 -1.19532,-1.19531 -2.98829,-1.19531 -1.81054,0 -3.00586,1.16015 -1.19531,1.16016 -1.19531,2.77735 z m -1.01953,11.90039 q 0,1.35351 0.63281,2.61914 0.65039,1.26562 1.91602,1.96875 1.26562,0.68554 2.72461,0.68554 2.26758,0 3.74414,-1.45898 1.47656,-1.45898 1.47656,-3.70898 0,-2.28516 -1.5293,-3.7793 -1.51171,-1.49414 -3.79687,-1.49414 -2.23242,0 -3.70898,1.47656 -1.45899,1.47656 -1.45899,3.69141 z"
         id="text9"
         style="font-size:36px;line-height:1.25;font-family:Arial;-inkscape-font-specification:Arial;letter-spacing:0px;word-spacing:0px;baseline-shift:baseline;fill:#ffffff;stroke-width:2.88787"
         transform="matrix(0.02645833,0,0,0.02645833,-0.09482637,0.18574994)"
         aria-label="8" />
    </g>
    <g
       id="g19"
       transform="matrix(0.62329499,0,0,0.62329499,3.5786975,3.578697)"
       style="stroke-width:1.60438">
      <ellipse
         style="opacity:1;fill:#000000;fill-opacity:1;stroke:none;stroke-width:1.27347"
         id="path1-6-2"
         cx="9.5"
         cy="9.499999"
         rx="0.5"
         ry="0.49999997" />
      <path
         d="m 355.97845,367.67557 3.04102,-0.28125 q 0.38672,2.14453 1.47656,3.11133 1.08985,0.96679 2.79492,0.96679 1.45899,0 2.54883,-0.66797 1.10742,-0.66796 1.81055,-1.77539 0.70312,-1.125 1.17773,-3.02343 0.47461,-1.89844 0.47461,-3.86719 0,-0.21094 -0.0176,-0.63281 -0.94922,1.51171 -2.60157,2.46093 -1.63476,0.93164 -3.55078,0.93164 -3.19922,0 -5.41406,-2.32031 -2.21484,-2.32031 -2.21484,-6.11719 0,-3.91992 2.30273,-6.31054 2.32031,-2.39063 5.80078,-2.39063 2.51367,0 4.58789,1.35352 2.0918,1.35351 3.16406,3.86719 1.08985,2.49609 1.08985,7.24218 0,4.93946 -1.07227,7.875 -1.07226,2.91797 -3.19922,4.44727 -2.10937,1.5293 -4.95703,1.5293 -3.02344,0 -4.93945,-1.66993 -1.91602,-1.6875 -2.30274,-4.72851 z m 12.95508,-11.37305 q 0,-2.72461 -1.45898,-4.32422 -1.44141,-1.59961 -3.48047,-1.59961 -2.10938,0 -3.67383,1.72266 -1.56445,1.72266 -1.56445,4.46484 0,2.46094 1.47656,4.00782 1.49414,1.52929 3.67383,1.52929 2.19726,0 3.60351,-1.52929 1.42383,-1.54688 1.42383,-4.27149 z"
         id="text10"
         style="font-size:36px;line-height:1.25;font-family:Arial;-inkscape-font-specification:Arial;letter-spacing:0px;word-spacing:0px;baseline-shift:baseline;fill:#ffffff;stroke-width:2.88787"
         transform="matrix(0.02645833,0,0,0.02645833,-0.13021039,-0.04925618)"
         aria-label="9" />
    </g>
  </g>
  <g
     inkscape:groupmode="layer"
     id="layer5"
     inkscape:label="grid">
    <g
       id="g40">
      <path
         style="font-variation-settings:normal;opacity:1;vector-effect:none;fill:none;fill-opacity:1;stroke:#000000;stroke-width:0.0264583;stroke-linecap:square;stroke-linejoin:miter;stroke-miterlimit:4;stroke-dasharray:none;stroke-dashoffset:0;stroke-opacity:1;-inkscape-stroke:none;stop-color:#000000;stop-opacity:1"
         d="M 0.19999998,0.19999997 H 10.199998"
         id="path20" />
      <path
         style="font-variation-settings:normal;opacity:1;vector-effect:none;fill:none;fill-opacity:1;stroke:#000000;stroke-width:0.0264583;stroke-linecap:square;stroke-linejoin:miter;stroke-miterlimit:4;stroke-dasharray:none;stroke-dashoffset:0;stroke-opacity:1;-inkscape-stroke:none;stop-color:#000000;stop-opacity:1"
         d="M 1.1999998,2.1999996 H 10.199998"
         id="path31" />
      <path
         style="font-variation-settings:normal;opacity:1;vector-effect:none;fill:none;fill-opacity:1;stroke:#000000;stroke-width:0.0264583;stroke-linecap:square;stroke-linejoin:miter;stroke-miterlimit:4;stroke-dasharray:none;stroke-dashoffset:0;stroke-opacity:1;-inkscape-stroke:none;stop-color:#000000;stop-opacity:1"
         d="m 0.2,1.1999999 9.999998,-10e-8"
         id="path32"
         sodipodi:nodetypes="cc" />
      <path
         style="font-variation-settings:normal;opacity:1;vector-effect:none;fill:none;fill-opacity:1;stroke:#000000;stroke-width:0.0264583;stroke-linecap:square;stroke-linejoin:miter;stroke-miterlimit:4;stroke-dasharray:none;stroke-dashoffset:0;stroke-opacity:1;-inkscape-stroke:none;stop-color:#000000;stop-opacity:1"
         d="M 2.1999996,3.1999995 H 10.199998"
         id="path33" />
      <path
         style="font-variation-settings:normal;opacity:1;vector-effect:none;fill:none;fill-opacity:1;stroke:#000000;stroke-width:0.0264583;stroke-linecap:square;stroke-linejoin:miter;stroke-miterlimit:4;stroke-dasharray:none;stroke-dashoffset:0;stroke-opacity:1;-inkscape-stroke:none;stop-color:#000000;stop-opacity:1"
         d="M 3.1999993,4.1999993 H 10.199998"
         id="path34" />
      <path
         style="font-variation-settings:normal;opacity:1;vector-effect:none;fill:none;fill-opacity:1;stroke:#000000;stroke-width:0.0264583;stroke-linecap:square;stroke-linejoin:miter;stroke-miterlimit:4;stroke-dasharray:none;stroke-dashoffset:0;stroke-opacity:1;-inkscape-stroke:none;stop-color:#000000;stop-opacity:1"
         d="m 4.1999993,5.199999 6.0000327,2.65e-5"
         id="path35" />
      <path
         style="font-variation-settings:normal;opacity:1;vector-effect:none;fill:none;fill-opacity:1;stroke:#000000;stroke-width:0.0264583;stroke-linecap:square;stroke-linejoin:miter;stroke-miterlimit:4;stroke-dasharray:none;stroke-dashoffset:0;stroke-opacity:1;-inkscape-stroke:none;stop-color:#000000;stop-opacity:1"
         d="m 5.2000276,6.2000175 4.9999714,-1.88e-5"
         id="path36" />
      <path
         style="font-variation-settings:normal;opacity:1;vector-effect:none;fill:none;fill-opacity:1;stroke:#000000;stroke-width:0.0264583;stroke-linecap:square;stroke-linejoin:miter;stroke-miterlimit:4;stroke-dasharray:none;stroke-dashoffset:0;stroke-opacity:1;-inkscape-stroke:none;stop-color:#000000;stop-opacity:1"
         d="m 6.200018,7.200008 3.99998,-9.3e-6"
         id="path37" />
      <path
         style="font-variation-settings:normal;opacity:1;vector-effect:none;fill:none;fill-opacity:1;stroke:#000000;stroke-width:0.0264583;stroke-linecap:square;stroke-linejoin:miter;stroke-miterlimit:4;stroke-dasharray:none;stroke-dashoffset:0;stroke-opacity:1;-inkscape-stroke:none;stop-color:#000000;stop-opacity:1"
         d="M 7.2000088,8.1999984 H 10.199999"
         id="path38" />
      <path
         style="font-variation-settings:normal;opacity:1;vector-effect:none;fill:none;fill-opacity:1;stroke:#000000;stroke-width:0.0264583;stroke-linecap:square;stroke-linejoin:miter;stroke-miterlimit:4;stroke-dasharray:none;stroke-dashoffset:0;stroke-opacity:1;-inkscape-stroke:none;stop-color:#000000;stop-opacity:1"
         d="M 8.1999992,9.2000408 H 10.200032"
         id="path39" />
      <path
         style="font-variation-settings:normal;opacity:1;vector-effect:none;fill:none;fill-opacity:1;stroke:#000000;stroke-width:0.0264583;stroke-linecap:square;stroke-linejoin:miter;stroke-miterlimit:4;stroke-dasharray:none;stroke-dashoffset:0;stroke-opacity:1;-inkscape-stroke:none;stop-color:#000000;stop-opacity:1"
         d="m 9.2000413,10.200032 0.9999567,-2.7e-5"
         id="path40" />
    </g>
    <use
       x="0"
       y="0"
       xlink:href="#g40"
       id="use40"
       transform="matrix(0,-1,-1,0,10.399999,10.399998)" />
  </g>
</svg>
