<?xml version="1.0" encoding="UTF-8" standalone="no"?>
<!-- Created with Inkscape (http://www.inkscape.org/) -->
<svg xmlns:dc="http://purl.org/dc/elements/1.1/" xmlns:cc="http://creativecommons.org/ns#" xmlns:rdf="http://www.w3.org/1999/02/22-rdf-syntax-ns#" xmlns:svg="http://www.w3.org/2000/svg" xmlns="http://www.w3.org/2000/svg" xmlns:xlink="http://www.w3.org/1999/xlink" xmlns:sodipodi="http://sodipodi.sourceforge.net/DTD/sodipodi-0.dtd" xmlns:inkscape="http://www.inkscape.org/namespaces/inkscape" width="481.21384" height="279.15512" viewBox="0 0 127.32116 73.859793" version="1.1" id="svg8" inkscape:version="0.92.3 (2405546, 2018-03-11)" sodipodi:docname="spam bloatless deflated.svg">
  <defs id="defs2"/>
  <sodipodi:namedview id="base" pagecolor="#ffffff" bordercolor="#666666" borderopacity="1.0" inkscape:pageopacity="1" inkscape:pageshadow="2" inkscape:zoom="3.099603" inkscape:cx="355.47613" inkscape:cy="95.067209" inkscape:document-units="px" inkscape:current-layer="layer3" showgrid="true" inkscape:window-width="3440" inkscape:window-height="1412" inkscape:window-x="0" inkscape:window-y="0" inkscape:window-maximized="1" inkscape:snap-bbox="true" inkscape:bbox-nodes="false" inkscape:snap-nodes="true" inkscape:snap-global="true" fit-margin-top="0" fit-margin-left="0" fit-margin-right="0" fit-margin-bottom="0" inkscape:snap-object-midpoints="true" inkscape:snap-page="true" units="px"/>
  <metadata id="metadata5">
    <rdf:RDF>
      <cc:Work rdf:about="">
        <dc:format>image/svg+xml</dc:format>
        <dc:type rdf:resource="http://purl.org/dc/dcmitype/StillImage"/>
        <dc:title/>
      </cc:Work>
    </rdf:RDF>
  </metadata>
  <g inkscape:groupmode="layer" id="layer2" inkscape:label="borders" style="display:inline" transform="translate(-52.10012,73.881703)" sodipodi:insensitive="true">
    <rect style="display:inline;opacity:1;fill:none;fill-opacity:1;stroke:#000000;stroke-width:1.70497501;stroke-linecap:butt;stroke-linejoin:miter;stroke-miterlimit:4;stroke-dasharray:none;stroke-dashoffset:0;stroke-opacity:1;paint-order:markers fill stroke" id="rect877" width="115.03285" height="61.571487" x="58.244274" y="-67.737549"/>
    <circle transform="translate(-35.086478,-108.75879)" style="display:inline;opacity:1;fill:none;fill-opacity:0.33333333;stroke:#db0000;stroke-width:1.70499992;stroke-linecap:butt;stroke-linejoin:round;stroke-miterlimit:4;stroke-dasharray:none;stroke-dashoffset:0;stroke-opacity:1;paint-order:markers fill stroke" id="path1431" cx="123.67068" cy="71.962456" r="21.166666"/>
    <circle cy="71.863808" cx="-177.68587" id="circle1491" style="display:inline;opacity:1;fill:none;fill-opacity:0.33333333;stroke:#ff9e00;stroke-width:1.70499992;stroke-linecap:butt;stroke-linejoin:round;stroke-miterlimit:4;stroke-dasharray:none;stroke-dashoffset:0;stroke-opacity:1;paint-order:markers fill stroke" transform="matrix(-1,0,0,1,-35.086478,-108.75879)" r="21.166666"/>
  </g>
  <g inkscape:groupmode="layer" id="layer4" inkscape:label="labels" style="display:inline" transform="translate(-87.186599,-34.877093)" sodipodi:insensitive="true">
    <g id="g901" style="opacity:0.4">
      <g style="opacity:0.15" id="g893">
        <rect y="-50.462929" x="11.927877" height="7.7120552" width="5.160583" id="rect1249-8-1" style="opacity:1;fill:none;fill-opacity:0.93119261;stroke:#000000;stroke-width:0.21515219;stroke-linecap:square;stroke-linejoin:miter;stroke-miterlimit:4;stroke-dasharray:none;stroke-dashoffset:0;stroke-opacity:1;paint-order:markers fill stroke"/>
        <rect y="-50.462929" x="17.088461" height="7.7120552" width="5.160583" id="rect1255-2-4" style="display:inline;opacity:1;fill:none;fill-opacity:0.93119261;stroke:#000000;stroke-width:0.21515219;stroke-linecap:square;stroke-linejoin:miter;stroke-miterlimit:4;stroke-dasharray:none;stroke-dashoffset:0;stroke-opacity:1;paint-order:markers fill stroke"/>
      </g>
      <path id="rect886" transform="matrix(0.26458333,0,0,0.26458333,63.017497,20.178332)" d="m -193.09375,-266.99023 v 29.14843 h 19.50391 19.5039 v -29.14843 h -19.5039 z" style="opacity:1;fill:none;fill-opacity:0.93119261;stroke:#000000;stroke-width:0.81317365;stroke-linecap:square;stroke-linejoin:miter;stroke-miterlimit:4;stroke-dasharray:none;stroke-dashoffset:0;stroke-opacity:1;paint-order:markers fill stroke" inkscape:connector-curvature="0"/>
      <path inkscape:connector-curvature="0" id="path1275-0-3" style="font-style:normal;font-variant:normal;font-weight:normal;font-stretch:normal;font-size:medium;line-height:74.25;font-family:'Ubuntu Condensed';-inkscape-font-specification:'Ubuntu Condensed, ';font-variant-ligatures:normal;font-variant-position:normal;font-variant-caps:normal;font-variant-numeric:normal;font-variant-alternates:normal;font-feature-settings:normal;text-indent:0;text-align:start;text-decoration:none;text-decoration-line:none;text-decoration-style:solid;text-decoration-color:#000000;letter-spacing:0px;word-spacing:0px;text-transform:none;writing-mode:lr-tb;direction:ltr;text-orientation:mixed;dominant-baseline:auto;baseline-shift:baseline;text-anchor:start;white-space:normal;shape-padding:0;opacity:1;fill:#000000;fill-opacity:0.19607843;stroke:none;stroke-width:0.56925678;stroke-linecap:butt;stroke-linejoin:miter;stroke-miterlimit:4;stroke-dasharray:none;stroke-dashoffset:0;stroke-opacity:1" d="m 14.940816,-49.762849 q 0.218594,0.683108 0.428082,1.384431 0.218594,0.692218 0.418972,1.457299 0.209494,0.765081 0.409865,1.621243 0.209494,0.856161 0.418972,1.848947 h -0.81973 q -0.07287,-0.409865 -0.154845,-0.810623 -0.07287,-0.400757 -0.154845,-0.801513 h -1.985568 q -0.09107,0.400756 -0.163946,0.801513 -0.07287,0.400758 -0.145723,0.810623 h -0.792405 q 0.200371,-0.992786 0.409865,-1.848947 0.209493,-0.856162 0.409865,-1.621243 0.209493,-0.765081 0.418972,-1.457299 0.218594,-0.701323 0.437189,-1.384431 z m -0.446297,0.929027 q -0.227704,0.755972 -0.437189,1.521053 -0.209494,0.765081 -0.400758,1.566596 h 1.666784 q -0.182169,-0.801515 -0.391648,-1.566596 -0.209493,-0.765081 -0.437189,-1.521053 z"/>
      <path inkscape:connector-curvature="0" id="path1281-6-6" style="font-style:normal;font-variant:normal;font-weight:normal;font-stretch:normal;font-size:medium;line-height:74.25;font-family:'Ubuntu Condensed';-inkscape-font-specification:'Ubuntu Condensed, ';font-variant-ligatures:normal;font-variant-position:normal;font-variant-caps:normal;font-variant-numeric:normal;font-variant-alternates:normal;font-feature-settings:normal;text-indent:0;text-align:start;text-decoration:none;text-decoration-line:none;text-decoration-style:solid;text-decoration-color:#000000;letter-spacing:0px;word-spacing:0px;text-transform:none;writing-mode:lr-tb;direction:ltr;text-orientation:mixed;dominant-baseline:auto;baseline-shift:baseline;text-anchor:start;white-space:normal;shape-padding:0;opacity:1;fill:#000000;fill-opacity:0.19607843;stroke:none;stroke-width:0.56925678;stroke-linecap:butt;stroke-linejoin:miter;stroke-miterlimit:4;stroke-dasharray:none;stroke-dashoffset:0;stroke-opacity:1" d="m 21.721371,-46.606884 q 0,0.883486 -0.19127,1.502838 -0.182169,0.610243 -0.537379,0.992784 -0.346107,0.38254 -0.847054,0.555596 -0.491838,0.173047 -1.102081,0.173047 -0.619352,0 -1.311568,-0.163946 v -6.12065 q 0.346109,-0.07287 0.674001,-0.118398 0.327892,-0.04555 0.62846,-0.04555 0.61935,0 1.111188,0.173047 0.500947,0.173047 0.847054,0.555596 0.355216,0.382541 0.537379,1.001891 0.19127,0.610244 0.19127,1.49373 z m -0.874378,0 q 0,-0.674001 -0.100197,-1.147622 -0.100196,-0.47362 -0.309675,-0.774188 -0.209493,-0.300568 -0.555594,-0.437189 -0.337001,-0.136622 -0.810622,-0.136622 -0.127521,0 -0.255026,0.009 -0.127521,0.009 -0.264136,0.02733 v 4.918379 q 0.136621,0.01829 0.264136,0.02732 0.12752,0.009 0.245919,0.009 0.482728,0 0.819729,-0.136622 0.337,-0.136622 0.546487,-0.42808 0.218595,-0.300567 0.318782,-0.774191 0.100197,-0.473621 0.100197,-1.156729 z"/>
    </g>
    <g transform="matrix(2.1515219,0,0,2.1515219,-17.49745,95.089927)" style="display:inline" id="g1340-5-6">
      <rect y="-67.60231" x="13.727023" height="3.486855" width="2.2975724" id="rect995-92-5" style="opacity:0.01000001;fill:#ffffff;fill-opacity:1;stroke:none;stroke-width:0.20000002;stroke-linecap:square;stroke-linejoin:miter;stroke-miterlimit:4;stroke-dasharray:none;stroke-dashoffset:0;stroke-opacity:1;paint-order:markers fill stroke"/>
      <path d="m 15.076893,-67.325727 q 0.1016,0.3175 0.198967,0.643466 0.1016,0.321734 0.194733,0.677334 0.09737,0.3556 0.1905,0.753533 0.09737,0.397933 0.194733,0.859367 h -0.381 q -0.03387,-0.1905 -0.07197,-0.376767 -0.03387,-0.186267 -0.07197,-0.372533 h -0.922867 q -0.04233,0.186266 -0.0762,0.372533 -0.03387,0.186267 -0.06773,0.376767 h -0.3683 q 0.09313,-0.461434 0.1905,-0.859367 0.09737,-0.397933 0.1905,-0.753533 0.09737,-0.3556 0.194733,-0.677334 0.1016,-0.325966 0.2032,-0.643466 z m -0.207433,0.4318 q -0.105834,0.351366 -0.2032,0.706966 -0.09737,0.3556 -0.186267,0.728134 h 0.7747 q -0.08467,-0.372534 -0.182033,-0.728134 -0.09737,-0.3556 -0.2032,-0.706966 z" style="font-style:normal;font-variant:normal;font-weight:normal;font-stretch:normal;font-size:medium;line-height:74.25;font-family:'Ubuntu Condensed';-inkscape-font-specification:'Ubuntu Condensed, ';font-variant-ligatures:normal;font-variant-position:normal;font-variant-caps:normal;font-variant-numeric:normal;font-variant-alternates:normal;font-feature-settings:normal;text-indent:0;text-align:start;text-decoration:none;text-decoration-line:none;text-decoration-style:solid;text-decoration-color:#000000;letter-spacing:0px;word-spacing:0px;text-transform:none;writing-mode:lr-tb;direction:ltr;text-orientation:mixed;dominant-baseline:auto;baseline-shift:baseline;text-anchor:start;white-space:normal;shape-padding:0;fill:#db0000;fill-opacity:1;stroke:none;stroke-width:0.26458332;stroke-linecap:butt;stroke-linejoin:miter;stroke-miterlimit:4;stroke-dasharray:none;stroke-dashoffset:0;stroke-opacity:1" id="path1063-2-6" inkscape:connector-curvature="0"/>
    </g>
    <g transform="matrix(2.1515219,0,0,2.1515219,-17.497458,105.14414)" style="display:inline" id="g1348-3-4">
      <rect y="-67.60231" x="18.524168" height="3.486855" width="2.2975724" id="rect995-7-6-5" style="display:inline;opacity:0.01000001;fill:#ffffff;fill-opacity:1;stroke:none;stroke-width:0.20000002;stroke-linecap:square;stroke-linejoin:miter;stroke-miterlimit:4;stroke-dasharray:none;stroke-dashoffset:0;stroke-opacity:1;paint-order:markers fill stroke"/>
    </g>
    <g transform="matrix(2.1515219,0,0,2.1515219,-27.818616,95.089895)" style="display:inline" id="g1352-2-5">
      <rect y="-67.60231" x="20.922745" height="3.486855" width="2.2975724" id="rect995-5-9-4" style="display:inline;opacity:0.01000001;fill:#ffffff;fill-opacity:1;stroke:none;stroke-width:0.20000002;stroke-linecap:square;stroke-linejoin:miter;stroke-miterlimit:4;stroke-dasharray:none;stroke-dashoffset:0;stroke-opacity:1;paint-order:markers fill stroke"/>
      <path d="m 23.025556,-65.858874 q 0,0.410633 -0.0889,0.6985 -0.08467,0.283633 -0.249767,0.461433 -0.160866,0.1778 -0.3937,0.258234 -0.2286,0.08043 -0.512233,0.08043 -0.287867,0 -0.6096,-0.0762 v -2.8448 q 0.160867,-0.03387 0.313267,-0.05503 0.1524,-0.02117 0.2921,-0.02117 0.287866,0 0.516466,0.08043 0.232834,0.08043 0.3937,0.258234 0.1651,0.1778 0.249767,0.465666 0.0889,0.283634 0.0889,0.694267 z m -0.4064,0 q 0,-0.313267 -0.04657,-0.5334 -0.04657,-0.220133 -0.143933,-0.359833 -0.09737,-0.1397 -0.258233,-0.2032 -0.156634,-0.0635 -0.376767,-0.0635 -0.05927,0 -0.118533,0.0042 -0.05927,0.0042 -0.122767,0.0127 v 2.286 q 0.0635,0.0085 0.122767,0.0127 0.05927,0.0042 0.1143,0.0042 0.224366,0 0.381,-0.0635 0.156633,-0.0635 0.254,-0.198966 0.1016,-0.1397 0.148166,-0.359834 0.04657,-0.220133 0.04657,-0.537633 z" style="font-style:normal;font-variant:normal;font-weight:normal;font-stretch:normal;font-size:medium;line-height:74.25;font-family:'Ubuntu Condensed';-inkscape-font-specification:'Ubuntu Condensed, ';font-variant-ligatures:normal;font-variant-position:normal;font-variant-caps:normal;font-variant-numeric:normal;font-variant-alternates:normal;font-feature-settings:normal;text-indent:0;text-align:start;text-decoration:none;text-decoration-line:none;text-decoration-style:solid;text-decoration-color:#000000;letter-spacing:0px;word-spacing:0px;text-transform:none;writing-mode:lr-tb;direction:ltr;text-orientation:mixed;dominant-baseline:auto;baseline-shift:baseline;text-anchor:start;white-space:normal;shape-padding:0;fill:#ff9e00;fill-opacity:1;stroke:none;stroke-width:0.26458332;stroke-linecap:butt;stroke-linejoin:miter;stroke-miterlimit:4;stroke-dasharray:none;stroke-dashoffset:0;stroke-opacity:1" id="path1069-3-7" inkscape:connector-curvature="0"/>
    </g>
    <text xml:space="preserve" style="font-style:normal;font-variant:normal;font-weight:bold;font-stretch:normal;font-size:4.58611107px;line-height:74.25;font-family:'Ubuntu Condensed';-inkscape-font-specification:'Ubuntu Condensed, Bold';font-variant-ligatures:normal;font-variant-position:normal;font-variant-caps:normal;font-variant-numeric:normal;font-variant-alternates:normal;font-feature-settings:normal;text-indent:0;text-align:start;text-decoration:none;text-decoration-line:none;text-decoration-style:solid;text-decoration-color:#000000;letter-spacing:0px;word-spacing:0px;text-transform:none;writing-mode:lr-tb;direction:ltr;text-orientation:mixed;dominant-baseline:auto;baseline-shift:baseline;text-anchor:start;white-space:normal;shape-padding:0;display:inline;opacity:1;vector-effect:none;fill:#000000;fill-opacity:1;stroke:none;stroke-width:0.26458332;stroke-linecap:butt;stroke-linejoin:miter;stroke-miterlimit:4;stroke-dasharray:none;stroke-dashoffset:0;stroke-opacity:1" x="10.09999" y="-54.503788" id="text1727"><tspan sodipodi:role="line" id="tspan1725" x="10.09999" y="-54.503788" style="font-style:normal;font-variant:normal;font-weight:bold;font-stretch:normal;font-family:'Ubuntu Condensed';-inkscape-font-specification:'Ubuntu Condensed, Bold';fill:#000000;fill-opacity:1;stroke-width:0.26458332">cloned objects</tspan></text>
    <path inkscape:connector-curvature="0" id="path1112-0" style="font-style:normal;font-variant:normal;font-weight:normal;font-stretch:normal;font-size:medium;line-height:74.25;font-family:Ubuntu;-inkscape-font-specification:Ubuntu;font-variant-ligatures:normal;font-variant-position:normal;font-variant-caps:normal;font-variant-numeric:normal;font-variant-alternates:normal;font-feature-settings:normal;text-indent:0;text-align:start;text-decoration:none;text-decoration-line:none;text-decoration-style:solid;text-decoration-color:#000000;letter-spacing:0px;word-spacing:0px;text-transform:none;writing-mode:lr-tb;direction:ltr;text-orientation:mixed;dominant-baseline:auto;baseline-shift:baseline;text-anchor:start;white-space:normal;shape-padding:0;display:inline;fill:#db0000;fill-opacity:1;stroke:none;stroke-width:1.00475466;stroke-linecap:butt;stroke-linejoin:miter;stroke-miterlimit:4;stroke-dasharray:none;stroke-dashoffset:0;stroke-opacity:1" d="m 127.06858,64.835681 q -0.27332,-0.72342 -0.51444,-1.41465 -0.24114,-0.70734 -0.49836,-1.43079 h -5.04789 l -1.0128,2.84544 h -1.62368 q 0.64304,-1.7684 1.20571,-3.26348 0.56266,-1.5111 1.09317,-2.86151 0.54659,-1.35036 1.0771,-2.57215 0.5305,-1.23788 1.10923,-2.44353 h 1.43078 q 0.57875,1.20565 1.10926,2.44353 0.53052,1.22179 1.06103,2.57215 0.54659,1.35041 1.10926,2.86151 0.56266,1.49508 1.20571,3.26348 z m -1.46293,-4.13157 q -0.51443,-1.39859 -1.02887,-2.70081 -0.49836,-1.31817 -1.04495,-2.52389 -0.56267,1.20572 -1.07711,2.52389 -0.49835,1.30222 -0.9967,2.70081 z"/>
    <path inkscape:connector-curvature="0" id="path1118-4" style="font-style:normal;font-variant:normal;font-weight:normal;font-stretch:normal;font-size:medium;line-height:74.25;font-family:Ubuntu;-inkscape-font-specification:Ubuntu;font-variant-ligatures:normal;font-variant-position:normal;font-variant-caps:normal;font-variant-numeric:normal;font-variant-alternates:normal;font-feature-settings:normal;text-indent:0;text-align:start;text-decoration:none;text-decoration-line:none;text-decoration-style:solid;text-decoration-color:#000000;letter-spacing:0px;word-spacing:0px;text-transform:none;writing-mode:lr-tb;direction:ltr;text-orientation:mixed;dominant-baseline:auto;baseline-shift:baseline;text-anchor:start;white-space:normal;shape-padding:0;display:inline;fill:#ff9e00;fill-opacity:1;stroke:none;stroke-width:1.00475466;stroke-linecap:butt;stroke-linejoin:miter;stroke-miterlimit:4;stroke-dasharray:none;stroke-dashoffset:0;stroke-opacity:1" d="m 183.65571,59.264981 q 0,1.44685 -0.45013,2.52399 -0.45012,1.06098 -1.27001,1.76831 -0.81988,0.69133 -1.96128,1.04497 -1.1414,0.33764 -2.50787,0.33764 -0.67519,0 -1.49507,-0.0641 -0.8038,-0.0484 -1.46292,-0.20921 v -10.80312 q 0.65912,-0.1604 1.46292,-0.20856 0.81988,-0.0641 1.49507,-0.0641 1.36647,0 2.50787,0.35351 1.1414,0.33766 1.96128,1.045 0.81989,0.69123 1.27001,1.76831 0.45013,1.06106 0.45013,2.50788 z m -6.06068,4.30844 q 2.2185,0 3.31167,-1.12535 1.09318,-1.14141 1.09318,-3.18309 0,-2.04164 -1.09318,-3.16697 -1.09317,-1.14139 -3.31167,-1.14139 -0.65912,0 -1.02886,0.004 -0.35367,0.004 -0.49836,0.0316 v 8.52032 q 0.14471,0.004 0.49836,0.0316 0.36976,0.004 1.02886,0.004 z"/>
    <use style="display:inline" x="0" y="0" xlink:href="#g901" id="use903" width="100%" height="100%" transform="translate(106.58222,124.08682)"/>
    <use style="display:inline" x="0" y="0" xlink:href="#g1340-5-6" id="use905" width="100%" height="100%" transform="translate(106.58222,124.08682)"/>
    <use style="display:inline" x="0" y="0" xlink:href="#g901" id="use903-6" width="100%" height="100%" transform="translate(160.59741,124.08682)"/>
    <use style="display:inline" x="0" y="0" xlink:href="#g1352-2-5" id="use907-5" width="100%" height="100%" transform="translate(160.59741,124.08682)"/>
    <use style="display:inline" x="0" y="0" xlink:href="#g901" id="use903-62" width="100%" height="100%" transform="translate(133.62835,96.098854)"/>
  </g>
  <g inkscape:groupmode="layer" id="layer3" inkscape:label="number labels" transform="translate(-87.186599,-34.877093)" sodipodi:insensitive="true">
    <g aria-label="1" style="font-style:normal;font-variant:normal;font-weight:normal;font-stretch:normal;font-size:6.3499999px;line-height:0;font-family:'Ubuntu Condensed';-inkscape-font-specification:'Ubuntu Condensed, ';font-variant-ligatures:normal;font-variant-position:normal;font-variant-caps:normal;font-variant-numeric:normal;font-variant-alternates:normal;font-feature-settings:normal;text-indent:0;text-align:start;text-decoration:none;text-decoration-line:none;text-decoration-style:solid;text-decoration-color:#000000;letter-spacing:0px;word-spacing:0px;text-transform:none;writing-mode:lr-tb;direction:ltr;text-orientation:mixed;dominant-baseline:auto;baseline-shift:baseline;text-anchor:start;white-space:normal;shape-padding:0;opacity:1;vector-effect:none;fill:#000000;fill-opacity:1;stroke:none;stroke-width:0.26458332;stroke-linecap:butt;stroke-linejoin:miter;stroke-miterlimit:4;stroke-dasharray:none;stroke-dashoffset:0;stroke-opacity:1" id="text1008">
      <path d="m 122.96626,83.91396 q 0.12065,-0.06985 0.24765,-0.17145 0.13335,-0.1016 0.254,-0.2159 0.12065,-0.12065 0.22225,-0.2413 0.10795,-0.127 0.1778,-0.24765 h 0.4191 v 4.40055 h -0.5461 v -3.53695 q -0.10795,0.1143 -0.254,0.2159 -0.1397,0.1016 -0.29845,0.1905 z" style="stroke-width:0.26458332" id="path1021" inkscape:connector-curvature="0"/>
    </g>
    <g aria-label="2" style="font-style:normal;font-variant:normal;font-weight:normal;font-stretch:normal;font-size:6.3499999px;line-height:0;font-family:'Ubuntu Condensed';-inkscape-font-specification:'Ubuntu Condensed, ';font-variant-ligatures:normal;font-variant-position:normal;font-variant-caps:normal;font-variant-numeric:normal;font-variant-alternates:normal;font-feature-settings:normal;text-indent:0;text-align:start;text-decoration:none;text-decoration-line:none;text-decoration-style:solid;text-decoration-color:#000000;letter-spacing:0px;word-spacing:0px;text-transform:none;writing-mode:lr-tb;direction:ltr;text-orientation:mixed;dominant-baseline:auto;baseline-shift:baseline;text-anchor:start;white-space:normal;shape-padding:0;opacity:1;vector-effect:none;fill:#000000;fill-opacity:1;stroke:none;stroke-width:0.26458332;stroke-linecap:butt;stroke-linejoin:miter;stroke-miterlimit:4;stroke-dasharray:none;stroke-dashoffset:0;stroke-opacity:1" id="text1012">
      <path d="m 176.62051,83.389964 q 0.37465,-0.37465 0.9144,-0.37465 0.51435,0 0.7874,0.27305 0.27305,0.2667 0.27305,0.8382 0,0.2667 -0.0889,0.508 -0.0889,0.2413 -0.22225,0.4699 -0.13335,0.22225 -0.2921,0.4445 -0.15875,0.22225 -0.3048,0.4572 -0.14605,0.2286 -0.254,0.4826 -0.10795,0.24765 -0.13335,0.5334 h 1.3843 v 0.4953 h -1.9685 v -0.12065 q 0,-0.42545 0.0953,-0.75565 0.1016,-0.3302 0.2413,-0.5969 0.14605,-0.2667 0.3175,-0.4953 0.17145,-0.2286 0.31115,-0.4445 0.14605,-0.22225 0.2413,-0.45085 0.1016,-0.23495 0.1016,-0.51435 0,-0.33655 -0.13335,-0.4826 -0.13335,-0.1524 -0.40005,-0.1524 -0.18415,0 -0.33655,0.0762 -0.14605,0.06985 -0.2667,0.18415 z" style="stroke-width:0.26458332" id="path1024" inkscape:connector-curvature="0"/>
    </g>
    <g aria-label="0" style="font-style:normal;font-variant:normal;font-weight:normal;font-stretch:normal;font-size:6.3499999px;line-height:0;font-family:'Ubuntu Condensed';-inkscape-font-specification:'Ubuntu Condensed, ';font-variant-ligatures:normal;font-variant-position:normal;font-variant-caps:normal;font-variant-numeric:normal;font-variant-alternates:normal;font-feature-settings:normal;text-indent:0;text-align:start;text-decoration:none;text-decoration-line:none;text-decoration-style:solid;text-decoration-color:#000000;letter-spacing:0px;word-spacing:0px;text-transform:none;writing-mode:lr-tb;direction:ltr;text-orientation:mixed;dominant-baseline:auto;baseline-shift:baseline;text-anchor:start;white-space:normal;shape-padding:0;opacity:1;vector-effect:none;fill:#000000;fill-opacity:1;stroke:none;stroke-width:0.26458332;stroke-linecap:butt;stroke-linejoin:miter;stroke-miterlimit:4;stroke-dasharray:none;stroke-dashoffset:0;stroke-opacity:1" id="text1016">
      <path d="m 149.69012,57.342048 q 0,-0.6477 0.0571,-1.08585 0.0572,-0.4445 0.18415,-0.7112 0.127,-0.2667 0.3175,-0.381 0.19685,-0.12065 0.47625,-0.12065 0.27305,0 0.4699,0.12065 0.19685,0.1143 0.32385,0.381 0.127,0.2667 0.18415,0.7112 0.0572,0.43815 0.0572,1.08585 0,0.6477 -0.0572,1.0922 -0.0572,0.43815 -0.18415,0.70485 -0.127,0.2667 -0.32385,0.38735 -0.19685,0.1143 -0.4699,0.1143 -0.2794,0 -0.47625,-0.1143 -0.1905,-0.12065 -0.3175,-0.38735 -0.127,-0.2667 -0.18415,-0.70485 -0.0571,-0.4445 -0.0571,-1.0922 z m 1.4986,0 q 0,-0.5207 -0.0254,-0.86995 -0.0254,-0.34925 -0.0825,-0.5588 -0.0508,-0.20955 -0.1397,-0.29845 -0.0889,-0.0889 -0.2159,-0.0889 -0.127,0 -0.2159,0.0889 -0.0889,0.0889 -0.14605,0.29845 -0.0508,0.20955 -0.0762,0.5588 -0.0254,0.34925 -0.0254,0.86995 0,0.5207 0.0254,0.86995 0.0254,0.34925 0.0762,0.5588 0.0571,0.20955 0.14605,0.29845 0.0889,0.0889 0.2159,0.0889 0.127,0 0.2159,-0.0889 0.0889,-0.0889 0.1397,-0.29845 0.0572,-0.20955 0.0825,-0.5588 0.0254,-0.34925 0.0254,-0.86995 z" style="stroke-width:0.26458332" id="path1018" inkscape:connector-curvature="0"/>
    </g>
  </g>
</svg>