<?xml version="1.0" encoding="UTF-8"?>
<svg xmlns="http://www.w3.org/2000/svg" xmlns:xlink="http://www.w3.org/1999/xlink" width="670" height="758">

<defs>

    <!-- numbers -->

    <path id="n0" d="m 33.199218,39.00293 c 0,-1.01562 0.103516,-1.832025 0.310547,-2.449219 0.210938,-0.621086 0.521484,-1.099602 0.931641,-1.435547 0.41406,-0.335929 0.933591,-0.503898 1.558594,-0.503906 0.460933,8e-6 0.86523,0.09376 1.21289,0.28125 0.347652,0.183602 0.634761,0.45118 0.861328,0.802734 0.226557,0.347664 0.404292,0.773445 0.533204,1.277344 0.1289,0.500006 0.193353,1.175786 0.193359,2.027344 -6e-6,1.007815 -0.103522,1.822268 -0.310547,2.443359 -0.207037,0.617189 -0.517583,1.095704 -0.931641,1.435547 -0.410159,0.335938 -0.92969,0.503906 -1.558593,0.503906 -0.828128,0 -1.478518,-0.296875 -1.951172,-0.890625 -0.566407,-0.714842 -0.84961,-1.878903 -0.84961,-3.492187 m 1.083985,0 c -2e-6,1.410159 0.164061,2.349611 0.492187,2.818359 0.332029,0.464845 0.740232,0.697266 1.22461,0.697266 0.484372,0 0.890622,-0.234374 1.21875,-0.703125 0.332026,-0.468748 0.498042,-1.406247 0.498047,-2.8125 -5e-6,-1.414057 -0.166021,-2.353509 -0.498047,-2.81836 -0.328128,-0.464836 -0.738285,-0.697257 -1.230469,-0.697265 -0.484378,8e-6 -0.871096,0.205085 -1.160156,0.615234 -0.363283,0.523444 -0.544924,1.49024 -0.544922,2.900391"/>
    <path id="n1" d="m 36.91409,43.3125 -1.054687,0 0,-6.720703 c -0.253909,0.242194 -0.587894,0.484381 -1.001953,0.726563 -0.410158,0.242193 -0.779299,0.423833 -1.107422,0.544922 l 0,-1.019532 c 0.589842,-0.277337 1.105466,-0.613274 1.546875,-1.007812 0.441403,-0.394524 0.753903,-0.777336 0.9375,-1.148438 l 0.679687,0 0,8.625"/>
    <path id="n2" d="m 38.839335,42.298828 0,1.013672 -5.677735,0 c -0.0078,-0.253906 0.0332,-0.498046 0.123047,-0.732422 0.144531,-0.386718 0.374999,-0.767576 0.691406,-1.142578 0.320311,-0.374998 0.781248,-0.808591 1.382813,-1.300781 0.93359,-0.765621 1.564449,-1.371089 1.892578,-1.816407 0.32812,-0.449213 0.492182,-0.873041 0.492187,-1.271484 -5e-6,-0.417962 -0.150395,-0.769524 -0.451171,-1.054687 -0.29688,-0.289055 -0.685551,-0.433586 -1.166016,-0.433594 -0.507815,8e-6 -0.914065,0.152351 -1.21875,0.457031 -0.304689,0.304695 -0.458986,0.726569 -0.462891,1.265625 l -1.083984,-0.111328 c 0.07422,-0.808587 0.353515,-1.423821 0.837891,-1.845703 0.484373,-0.425773 1.134763,-0.638663 1.951171,-0.638672 0.824215,9e-6 1.476558,0.228524 1.957032,0.685547 0.480463,0.457039 0.720697,1.023444 0.720703,1.699219 -6e-6,0.343756 -0.07032,0.681646 -0.210938,1.013671 -0.14063,0.332037 -0.375005,0.681646 -0.703125,1.048829 -0.324223,0.367191 -0.865238,0.871097 -1.623047,1.511718 -0.632815,0.531253 -1.039065,0.89258 -1.21875,1.083985 -0.179689,0.187501 -0.328127,0.376954 -0.445312,0.568359 l 4.212891,0"/>
    <path id="n3" d="m 33.1875,40.968749 1.054688,-0.140625 c 0.121092,0.597658 0.32617,1.029298 0.615234,1.294922 0.292966,0.261719 0.648435,0.392579 1.066406,0.392578 0.49609,10e-7 0.914059,-0.171874 1.253906,-0.515625 0.343746,-0.343749 0.51562,-0.76953 0.515625,-1.277343 -5e-6,-0.484373 -0.158208,-0.88281 -0.474609,-1.195313 -0.31641,-0.316402 -0.718754,-0.474605 -1.207031,-0.474609 -0.199222,3e-6 -0.447269,0.03907 -0.744141,0.117187 l 0.117188,-0.925781 c 0.07031,0.0078 0.12695,0.01172 0.169922,0.01172 0.449215,6e-6 0.853511,-0.117182 1.21289,-0.351563 0.359371,-0.234369 0.539058,-0.595697 0.539063,-1.083984 -5e-6,-0.386712 -0.130864,-0.707024 -0.392578,-0.960937 -0.261723,-0.253899 -0.599613,-0.380852 -1.013672,-0.38086 -0.410159,8e-6 -0.751956,0.128914 -1.025391,0.386719 -0.273439,0.257819 -0.44922,0.644538 -0.527344,1.160156 l -1.054687,-0.1875 c 0.128905,-0.707024 0.421874,-1.253899 0.878906,-1.640625 0.457029,-0.390616 1.025388,-0.585929 1.705078,-0.585937 0.468747,8e-6 0.900387,0.101571 1.294922,0.304687 0.394526,0.199227 0.695307,0.472664 0.902344,0.820313 0.210932,0.347663 0.3164,0.716803 0.316406,1.107422 -6e-6,0.371099 -0.09962,0.70899 -0.298828,1.013671 -0.199224,0.304694 -0.494146,0.546881 -0.884766,0.726563 0.507808,0.117193 0.902339,0.361332 1.183594,0.732422 0.281244,0.367191 0.421869,0.828128 0.421875,1.382812 -6e-6,0.750002 -0.273443,1.38672 -0.820312,1.910157 -0.54688,0.519531 -1.238286,0.779296 -2.074219,0.779296 -0.753909,0 -1.380861,-0.224609 -1.88086,-0.673828 C 33.541015,42.265625 33.257812,41.683595 33.1875,40.96875"/>
    <path id="n4" d="m 36.75586,43.294922 0,-2.056641 -3.726563,0 0,-0.966796 3.919922,-5.566407 0.861328,0 0,5.566407 1.160156,0 0,0.966796 -1.160156,0 0,2.056641 -1.054687,0 m 0,-3.023437 0,-3.873047 -2.689453,3.873047 2.689453,0"/>
    <path id="n5" d="m 33.152344,40.913085 1.107422,-0.09375 c 0.08203,0.539066 0.271482,0.945315 0.568359,1.21875 0.300779,0.269534 0.662107,0.404298 1.083985,0.404297 0.507808,10e-7 0.937495,-0.191405 1.289062,-0.574218 0.351558,-0.38281 0.527339,-0.890623 0.527344,-1.523438 -5e-6,-0.601559 -0.169927,-1.076168 -0.509766,-1.423828 -0.335941,-0.347651 -0.777347,-0.521479 -1.324218,-0.521484 -0.339847,4e-6 -0.646487,0.07813 -0.919922,0.234375 -0.27344,0.152349 -0.488283,0.351566 -0.644532,0.597656 l -0.990234,-0.128906 0.832031,-4.41211 4.271485,0 0,1.007813 -3.427735,0 -0.46289,2.308593 c 0.515622,-0.359369 1.056637,-0.539056 1.623047,-0.539062 0.749995,6e-6 1.382807,0.259771 1.898437,0.779297 0.515619,0.519535 0.773431,1.187504 0.773438,2.003906 -7e-6,0.777347 -0.226569,1.44922 -0.679688,2.015625 -0.550786,0.695313 -1.302739,1.042969 -2.255859,1.042969 -0.781253,0 -1.419924,-0.21875 -1.916016,-0.65625 -0.492188,-0.437499 -0.773438,-1.017577 -0.84375,-1.740235"/>
    <path id="n6" d="m 38.683593,36.752931 -1.048828,0.08203 c -0.09376,-0.414056 -0.226567,-0.714837 -0.398437,-0.902344 -0.28516,-0.300774 -0.636722,-0.451164 -1.054688,-0.451172 -0.33594,8e-6 -0.630861,0.09376 -0.884765,0.28125 -0.332033,0.242195 -0.593752,0.59571 -0.785157,1.060547 -0.191407,0.46485 -0.291016,1.126958 -0.298828,1.986328 0.253905,-0.386714 0.564452,-0.673823 0.931641,-0.861328 0.367185,-0.187495 0.75195,-0.281244 1.154297,-0.28125 0.703121,6e-6 1.300776,0.259771 1.792968,0.779297 0.496088,0.515629 0.744135,1.183597 0.744141,2.003906 -6e-6,0.539065 -0.117193,1.041018 -0.351562,1.50586 -0.230475,0.460938 -0.548834,0.814453 -0.955079,1.060546 -0.406253,0.246094 -0.86719,0.369141 -1.382812,0.369141 -0.878908,0 -1.595704,-0.322265 -2.150391,-0.966797 -0.554687,-0.648436 -0.832031,-1.714841 -0.832031,-3.199219 0,-1.66015 0.306641,-2.86718 0.919922,-3.621093 0.535155,-0.656242 1.255857,-0.984367 2.162109,-0.984375 0.675777,8e-6 1.228511,0.189461 1.658203,0.568359 0.433588,0.378914 0.693354,0.902351 0.779297,1.570313 m -4.30664,3.703125 c -10e-7,0.363283 0.07617,0.710939 0.228515,1.042968 0.156249,0.332033 0.373046,0.585939 0.650391,0.761719 0.277342,0.171876 0.568357,0.257813 0.873047,0.257813 0.445309,0 0.828121,-0.179687 1.148437,-0.539063 0.320308,-0.359373 0.480464,-0.847654 0.480469,-1.464844 -5e-6,-0.593746 -0.158208,-1.060543 -0.474609,-1.40039 -0.31641,-0.343746 -0.714847,-0.515621 -1.195313,-0.515625 -0.476565,4e-6 -0.880861,0.171879 -1.21289,0.515625 -0.332033,0.339847 -0.498048,0.787112 -0.498047,1.341797"/>
    <path id="n7" d="m 33.219727,35.774414 0,-1.013672 5.560547,0 0,0.820312 c -0.546881,0.582038 -1.089849,1.355475 -1.628906,2.320313 -0.535161,0.964849 -0.949223,1.957034 -1.242188,2.976562 -0.21094,0.718753 -0.345706,1.50586 -0.404297,2.361328 l -1.083984,0 c 0.01172,-0.67578 0.144529,-1.492185 0.398437,-2.449218 0.253904,-0.957027 0.617185,-1.878902 1.089844,-2.765625 0.476559,-0.890619 0.982418,-1.640619 1.517578,-2.25 l -4.207031,0"/>

</defs>

    <g transform="scale(10, 10)">

        <rect width="67" height="75.8" fill="white" stroke="none"/>

        <!--HORIZONTAL PERMUTATION-->
<g transform="translate(-18.5, -7.2)">

    <!--top row-->
    <g transform="translate(16.4, 1.25) scale(.25)" opacity=".4">
            <use x="0" xlink:href="#n0"/>
            <use x="24" xlink:href="#n1"/>
            <use x="48" xlink:href="#n2"/>
            <use x="72" xlink:href="#n3"/>
            <use x="96" xlink:href="#n4"/>
            <use x="120" xlink:href="#n5"/>
            <use x="144" xlink:href="#n6"/>
            <use x="168" xlink:href="#n7"/>
    </g>

    <!--bottom row-->
    <g transform="translate(11, 0.2) scale(.4)">
            <use x="0.0" xlink:href="#n0"/>
            <use x="15.0" xlink:href="#n6"/>
            <use x="30.0" xlink:href="#n4"/>
            <use x="45.0" xlink:href="#n2"/>
            <use x="60.0" xlink:href="#n1"/>
            <use x="75.0" xlink:href="#n7"/>
            <use x="90.0" xlink:href="#n5"/>
            <use x="105.0" xlink:href="#n3"/>
    </g>

</g>

        <!--MATRIX-->

<g transform="translate(4, 13) scale(6)">

    <!--background-->
    <rect width="8" height="8" stroke="#888" stroke-width="0.18"/>
    <rect width="8" height="8" stroke="none" fill="#eee"/>

    <!--entries of the permutation matrix (circles)-->
        <circle cx="0.5" cy="0.5" r=".25"/>
            <circle cx="0.5" cy="0.5" r=".3125" fill="none" stroke="black" stroke-width=".05"/>
        <circle cx="1.5" cy="6.5" r=".25"/>
        <circle cx="2.5" cy="4.5" r=".25"/>
        <circle cx="3.5" cy="2.5" r=".25"/>
        <circle cx="4.5" cy="1.5" r=".25"/>
        <circle cx="5.5" cy="7.5" r=".25"/>
        <circle cx="6.5" cy="5.5" r=".25"/>
        <circle cx="7.5" cy="3.5" r=".25"/>

    <!--inversion entries (squares)-->
                <rect x="1" y="4" width="1" height="1" fill="#888"/>
                <rect x="1" y="2" width="1" height="1" fill="#888"/>
                <rect x="1" y="1" width="1" height="1" fill="#888"/>
                <rect x="1" y="5" width="1" height="1" fill="#888"/>
                <rect x="1" y="3" width="1" height="1" fill="#888"/>
                <rect x="2" y="2" width="1" height="1" fill="#888"/>
                <rect x="2" y="1" width="1" height="1" fill="#888"/>
                <rect x="2" y="3" width="1" height="1" fill="#888"/>
                <rect x="3" y="1" width="1" height="1" fill="#888"/>
                <rect x="5" y="5" width="1" height="1" fill="#888"/>
                <rect x="5" y="3" width="1" height="1" fill="#888"/>
                <rect x="6" y="3" width="1" height="1" fill="#888"/>

    <!--lines-->
    <rect x="0" y="0" width="8" height="8" stroke="#fff" stroke-width=".1" fill="none"/>
    <g stroke="#fff" stroke-width="8">
        <path stroke-dasharray=".03, .97" d="M -.015, 4  h 9  M 4, -.015  v 9"/>
        <path stroke-dasharray=".1, 3.9" d="M -.05, 4  h 9  M 4, -.05  v 9"/>
    </g>

</g>
        <!--INVERSION LABELS-->
<!--first key-->
<g transform="translate(-.37, 7.9) scale(.17)" opacity=".4">
                <use x="35.29411764705882" y="141.17647058823528" xlink:href="#n1"/>
                <use x="35.29411764705882" y="70.58823529411764" xlink:href="#n1"/>
                <use x="35.29411764705882" y="35.29411764705882" xlink:href="#n1"/>
                <use x="35.29411764705882" y="176.47058823529412" xlink:href="#n1"/>
                <use x="35.29411764705882" y="105.88235294117646" xlink:href="#n1"/>
                <use x="70.58823529411764" y="70.58823529411764" xlink:href="#n2"/>
                <use x="70.58823529411764" y="35.29411764705882" xlink:href="#n2"/>
                <use x="70.58823529411764" y="105.88235294117646" xlink:href="#n2"/>
                <use x="105.88235294117646" y="35.29411764705882" xlink:href="#n3"/>
                <use x="176.47058823529412" y="176.47058823529412" xlink:href="#n5"/>
                <use x="176.47058823529412" y="105.88235294117646" xlink:href="#n5"/>
                <use x="211.76470588235293" y="105.88235294117646" xlink:href="#n6"/>
</g>

<!--second key-->
<g transform="translate(2, 7.9) scale(.17)" opacity=".4">
                <use x="35.29411764705882" y="141.17647058823528" xlink:href="#n2"/>
                <use x="35.29411764705882" y="70.58823529411764" xlink:href="#n3"/>
                <use x="35.29411764705882" y="35.29411764705882" xlink:href="#n4"/>
                <use x="35.29411764705882" y="176.47058823529412" xlink:href="#n6"/>
                <use x="35.29411764705882" y="105.88235294117646" xlink:href="#n7"/>
                <use x="70.58823529411764" y="70.58823529411764" xlink:href="#n3"/>
                <use x="70.58823529411764" y="35.29411764705882" xlink:href="#n4"/>
                <use x="70.58823529411764" y="105.88235294117646" xlink:href="#n7"/>
                <use x="105.88235294117646" y="35.29411764705882" xlink:href="#n4"/>
                <use x="176.47058823529412" y="176.47058823529412" xlink:href="#n6"/>
                <use x="176.47058823529412" y="105.88235294117646" xlink:href="#n7"/>
                <use x="211.76470588235293" y="105.88235294117646" xlink:href="#n7"/>
</g>

<!--first value-->
<g transform="translate(-2.1, 8.4) scale(.22)" opacity=".9">
                <use x="27.272727272727273" y="109.0909090909091" xlink:href="#n6"/>
                <use x="27.272727272727273" y="54.54545454545455" xlink:href="#n6"/>
                <use x="27.272727272727273" y="27.272727272727273" xlink:href="#n6"/>
                <use x="27.272727272727273" y="136.36363636363637" xlink:href="#n6"/>
                <use x="27.272727272727273" y="81.81818181818181" xlink:href="#n6"/>
                <use x="54.54545454545455" y="54.54545454545455" xlink:href="#n4"/>
                <use x="54.54545454545455" y="27.272727272727273" xlink:href="#n4"/>
                <use x="54.54545454545455" y="81.81818181818181" xlink:href="#n4"/>
                <use x="81.81818181818181" y="27.272727272727273" xlink:href="#n2"/>
                <use x="136.36363636363637" y="136.36363636363637" xlink:href="#n7"/>
                <use x="136.36363636363637" y="81.81818181818181" xlink:href="#n7"/>
                <use x="163.63636363636363" y="81.81818181818181" xlink:href="#n5"/>
</g>

<!--second value-->
<g transform="translate(.2, 8.4) scale(.22)" opacity=".9">
                <use x="27.272727272727273" y="109.0909090909091" xlink:href="#n4"/>
                <use x="27.272727272727273" y="54.54545454545455" xlink:href="#n2"/>
                <use x="27.272727272727273" y="27.272727272727273" xlink:href="#n1"/>
                <use x="27.272727272727273" y="136.36363636363637" xlink:href="#n5"/>
                <use x="27.272727272727273" y="81.81818181818181" xlink:href="#n3"/>
                <use x="54.54545454545455" y="54.54545454545455" xlink:href="#n2"/>
                <use x="54.54545454545455" y="27.272727272727273" xlink:href="#n1"/>
                <use x="54.54545454545455" y="81.81818181818181" xlink:href="#n3"/>
                <use x="81.81818181818181" y="27.272727272727273" xlink:href="#n1"/>
                <use x="136.36363636363637" y="136.36363636363637" xlink:href="#n5"/>
                <use x="136.36363636363637" y="81.81818181818181" xlink:href="#n3"/>
                <use x="163.63636363636363" y="81.81818181818181" xlink:href="#n3"/>
</g>

        <!--VECTOR BORDERS-->
<!-- squares horizontal -->
<g transform="translate(4, 66) scale(6)" fill="none" stroke="#e39959" stroke-width=".035" opacity=".7">
        <rect x="0" width="1" height="1"/>
        <rect x="1" width="1" height="1"/>
        <rect x="2" width="1" height="1"/>
        <rect x="3" width="1" height="1"/>
        <rect x="4" width="1" height="1"/>
        <rect x="5" width="1" height="1"/>
        <rect x="6" width="1" height="1"/>
    <rect x="7" width="1" height="1" opacity=".2"/>
</g>

<!-- squares vertical -->
<g transform="translate(57, 13) scale(6)" fill="none" stroke="#e39959" stroke-width=".035" opacity=".7">
        <rect y="0" width="1" height="1"/>
        <rect y="1" width="1" height="1"/>
        <rect y="2" width="1" height="1"/>
        <rect y="3" width="1" height="1"/>
        <rect y="4" width="1" height="1"/>
        <rect y="5" width="1" height="1"/>
        <rect y="6" width="1" height="1"/>
    <rect y="7" width="1" height="1" opacity=".2"/>
</g>

<!-- single square -->
<g transform="translate(56.8, 65.8) scale(6)" fill="none" stroke="#e39959" stroke-width=".035" opacity=".7">
    <rect width="1.1" height="1.1"/>
</g>

    </g>

    <!--VECTOR NUMBERS-->
<g font-family="Arial" font-size="45px" text-anchor="middle" fill="#e39959">

    <!--right inversion count (horizontal)-->
    <g transform="translate(70, 705.5)">
            <text x="0" opacity="0.6">0</text>
            <text x="60" opacity="1">5</text>
            <text x="120" opacity="1">3</text>
            <text x="180" opacity="1">1</text>
            <text x="240" opacity="0.6">0</text>
            <text x="300" opacity="1">2</text>
            <text x="360" opacity="1">1</text>
        <text x="420" opacity=".2">0</text> <!--dummy-->
    </g>

    <!--inversion vector (vertical)-->
    <g transform="translate(600, 175.2)">
            <text y="0" opacity="0.6">0</text>
            <text y="60" opacity="1">3</text>
            <text y="120" opacity="1">2</text>
            <text y="180" opacity="1">4</text>
            <text y="240" opacity="1">1</text>
            <text y="300" opacity="1">2</text>
            <text y="360" opacity="0.6">0</text>
        <text y="420" opacity=".2">0</text> <!--dummy-->
    </g>

    <!--number of inversions-->
    <text transform="translate(599, 705.5)" opacity="1">12</text>
</g>

    <!--VECTOR LABELS-->
    <!-- r -->
    <g transform="matrix(1.4490378,0,0,1.4490378,256.04039,587.89892)" fill="#e39959">
        <path d="m 191.56033,64.366745 5.05371,-0.820313 -2.10937,7.119141 q 2.56348,-4.379883 4.6582,-6.123047 1.18653,-0.996094 1.9336,-0.996094 0.48339,0 0.76171,0.292969 0.27833,0.278321 0.27833,0.820313 0,0.966797 -0.49805,1.845703 -0.35156,0.65918 -1.01074,0.65918 -0.33692,0 -0.58594,-0.219727 -0.23438,-0.219727 -0.29297,-0.673828 -0.0293,-0.27832 -0.13184,-0.366211 -0.11718,-0.117188 -0.27832,-0.117188 -0.24902,0 -0.46875,0.117188 -0.38086,0.205078 -1.15722,1.142578 -1.21582,1.435547 -2.63672,3.720703 -0.61524,0.966797 -1.05469,2.182617 -0.61523,1.669922 -0.70312,2.006836 l -0.46875,1.845703 h -2.24122 l 2.70997,-9.096679 q 0.46875,-1.582032 0.46875,-2.25586 0,-0.263672 -0.21973,-0.439453 -0.29297,-0.234375 -0.77637,-0.234375 -0.30762,0 -1.12793,0.131836 z"/>
    </g>
    <!-- v -->
    <g transform="matrix(1.4490378,0,0,1.4490378,560.13285,304.59304)" fill="#e39959">
        <path d="m 20.590788,220.88731 4.233398,-0.9082 q 0.454102,1.08399 0.732422,2.21191 0.395508,1.65528 0.644531,3.92579 0.117188,1.14257 0.322266,4.83398 1.831055,-2.02148 2.182617,-2.50488 1.933594,-2.62207 2.226563,-3.07617 0.483398,-0.77637 0.673828,-1.36231 0.161133,-0.43945 0.161133,-0.83496 0,-0.38086 -0.688477,-0.87891 -0.673828,-0.49804 -0.673828,-1.11328 0,-0.46875 0.366211,-0.83496 0.380859,-0.36621 0.893555,-0.36621 0.615234,0 1.083984,0.5127 0.46875,0.49804 0.46875,1.24511 0,0.74707 -0.234375,1.43555 -0.380859,1.11328 -1.420898,2.72461 -1.040039,1.59668 -3.354493,4.29199 -0.292968,0.33692 -3.251953,3.39844 H 24.41403 q -0.351562,-9.27246 -1.464844,-11.57227 -0.366211,-0.74707 -1.21582,-0.74707 -0.366211,0 -1.040039,0.13184 z"/>
    </g>

</svg>