<?xml version="1.0" encoding="UTF-8" standalone="no"?>
<!-- Created with Inkscape (http://www.inkscape.org/) -->

<svg
   width="443.99997"
   height="884"
   viewBox="0 0 443.99997 884"
   version="1.1"
   id="svg5"
   inkscape:version="1.2.1 (2ed6d7ae0b, 2022-08-22, custom)"
   sodipodi:docname="products of reflection and Walsh 137.svg"
   xmlns:inkscape="http://www.inkscape.org/namespaces/inkscape"
   xmlns:sodipodi="http://sodipodi.sourceforge.net/DTD/sodipodi-0.dtd"
   xmlns:xlink="http://www.w3.org/1999/xlink"
   xmlns="http://www.w3.org/2000/svg"
   xmlns:svg="http://www.w3.org/2000/svg">
  <sodipodi:namedview
     id="namedview7"
     pagecolor="#ffffff"
     bordercolor="#666666"
     borderopacity="1.0"
     inkscape:showpageshadow="2"
     inkscape:pageopacity="0.0"
     inkscape:pagecheckerboard="0"
     inkscape:deskcolor="#d1d1d1"
     inkscape:document-units="px"
     showgrid="true"
     inkscape:zoom="1.0060924"
     inkscape:cx="-121.7582"
     inkscape:cy="340.92295"
     inkscape:window-width="3440"
     inkscape:window-height="1403"
     inkscape:window-x="1920"
     inkscape:window-y="0"
     inkscape:window-maximized="1"
     inkscape:current-layer="layer1" />
  <defs
     id="defs2" />
  <g
     inkscape:label="Layer 1"
     inkscape:groupmode="layer"
     id="layer1"
     transform="translate(-237.99999,-38)">
    <g
       id="g3648"
       transform="translate(-360,-280)">
      <path
         style="font-variation-settings:normal;opacity:0.457;fill:#ff502d;fill-opacity:1;stroke:#666666;stroke-width:1;stroke-linecap:round;stroke-linejoin:miter;stroke-miterlimit:4;stroke-dasharray:none;stroke-dashoffset:0;stroke-opacity:1;stop-color:#000000"
         d="M 400,80 560,240"
         id="path2538" />
      <path
         style="font-variation-settings:normal;fill:none;fill-opacity:1;stroke:#cccccc;stroke-width:2;stroke-linecap:butt;stroke-linejoin:miter;stroke-miterlimit:4;stroke-dasharray:none;stroke-dashoffset:0;stroke-opacity:1;stop-color:#000000"
         d="M 400,80 V 240 H 560 V 80 Z"
         id="path2580" />
      <g
         id="g3465"
         style="stroke:#cccccc;stroke-opacity:1">
        <path
           style="font-variation-settings:normal;opacity:1;fill:none;fill-opacity:1;stroke:#cccccc;stroke-width:2;stroke-linecap:butt;stroke-linejoin:miter;stroke-miterlimit:4;stroke-dasharray:none;stroke-dashoffset:0;stroke-opacity:1;stop-color:#000000;stop-opacity:1"
           d="M 480,80 V 240"
           id="path3310" />
        <path
           style="font-variation-settings:normal;opacity:1;fill:none;fill-opacity:1;stroke:#cccccc;stroke-width:1;stroke-linecap:butt;stroke-linejoin:miter;stroke-miterlimit:4;stroke-dasharray:none;stroke-dashoffset:0;stroke-opacity:1;stop-color:#000000;stop-opacity:1"
           d="M 420,80 V 240"
           id="path3314" />
        <path
           style="font-variation-settings:normal;fill:none;fill-opacity:1;stroke:#cccccc;stroke-width:1;stroke-linecap:butt;stroke-linejoin:miter;stroke-miterlimit:4;stroke-dasharray:none;stroke-dashoffset:0;stroke-opacity:1;stop-color:#000000"
           d="M 440,80 V 240"
           id="path3314-9" />
        <path
           style="font-variation-settings:normal;fill:none;fill-opacity:1;stroke:#cccccc;stroke-width:1;stroke-linecap:butt;stroke-linejoin:miter;stroke-miterlimit:4;stroke-dasharray:none;stroke-dashoffset:0;stroke-opacity:1;stop-color:#000000"
           d="M 460,80 V 240"
           id="path3314-4" />
        <path
           style="font-variation-settings:normal;fill:none;fill-opacity:1;stroke:#cccccc;stroke-width:1;stroke-linecap:butt;stroke-linejoin:miter;stroke-miterlimit:4;stroke-dasharray:none;stroke-dashoffset:0;stroke-opacity:1;stop-color:#000000"
           d="M 500,80 V 240"
           id="path3314-7" />
        <path
           style="font-variation-settings:normal;fill:none;fill-opacity:1;stroke:#cccccc;stroke-width:1;stroke-linecap:butt;stroke-linejoin:miter;stroke-miterlimit:4;stroke-dasharray:none;stroke-dashoffset:0;stroke-opacity:1;stop-color:#000000"
           d="M 520,80 V 240"
           id="path3314-8" />
        <path
           style="font-variation-settings:normal;fill:none;fill-opacity:1;stroke:#cccccc;stroke-width:1;stroke-linecap:butt;stroke-linejoin:miter;stroke-miterlimit:4;stroke-dasharray:none;stroke-dashoffset:0;stroke-opacity:1;stop-color:#000000"
           d="M 540,80 V 240"
           id="path3314-45" />
      </g>
      <g
         id="g3494"
         transform="rotate(-90,480,160)"
         style="stroke:#cccccc;stroke-opacity:1">
        <path
           style="font-variation-settings:normal;opacity:1;fill:none;fill-opacity:1;stroke:#cccccc;stroke-width:2;stroke-linecap:butt;stroke-linejoin:miter;stroke-miterlimit:4;stroke-dasharray:none;stroke-dashoffset:0;stroke-opacity:1;stop-color:#000000;stop-opacity:1"
           d="M 480,80 V 240"
           id="path3480" />
        <path
           style="font-variation-settings:normal;opacity:1;fill:none;fill-opacity:1;stroke:#cccccc;stroke-width:1;stroke-linecap:butt;stroke-linejoin:miter;stroke-miterlimit:4;stroke-dasharray:none;stroke-dashoffset:0;stroke-opacity:1;stop-color:#000000;stop-opacity:1"
           d="M 420,80 V 240"
           id="path3482" />
        <path
           style="font-variation-settings:normal;fill:none;fill-opacity:1;stroke:#cccccc;stroke-width:1;stroke-linecap:butt;stroke-linejoin:miter;stroke-miterlimit:4;stroke-dasharray:none;stroke-dashoffset:0;stroke-opacity:1;stop-color:#000000"
           d="M 440,80 V 240"
           id="path3484" />
        <path
           style="font-variation-settings:normal;fill:none;fill-opacity:1;stroke:#cccccc;stroke-width:1;stroke-linecap:butt;stroke-linejoin:miter;stroke-miterlimit:4;stroke-dasharray:none;stroke-dashoffset:0;stroke-opacity:1;stop-color:#000000"
           d="M 460,80 V 240"
           id="path3486" />
        <path
           style="font-variation-settings:normal;fill:none;fill-opacity:1;stroke:#cccccc;stroke-width:1;stroke-linecap:butt;stroke-linejoin:miter;stroke-miterlimit:4;stroke-dasharray:none;stroke-dashoffset:0;stroke-opacity:1;stop-color:#000000"
           d="M 500,80 V 240"
           id="path3488" />
        <path
           style="font-variation-settings:normal;fill:none;fill-opacity:1;stroke:#cccccc;stroke-width:1;stroke-linecap:butt;stroke-linejoin:miter;stroke-miterlimit:4;stroke-dasharray:none;stroke-dashoffset:0;stroke-opacity:1;stop-color:#000000"
           d="M 520,80 V 240"
           id="path3490" />
        <path
           style="font-variation-settings:normal;fill:none;fill-opacity:1;stroke:#cccccc;stroke-width:1;stroke-linecap:butt;stroke-linejoin:miter;stroke-miterlimit:4;stroke-dasharray:none;stroke-dashoffset:0;stroke-opacity:1;stop-color:#000000"
           d="M 540,80 V 240"
           id="path3492" />
      </g>
    </g>
    <text
       xml:space="preserve"
       style="font-style:normal;font-variant:normal;font-weight:normal;font-stretch:normal;font-size:24px;line-height:74.25;font-family:FreeSans;-inkscape-font-specification:FreeSans;font-variant-ligatures:normal;font-variant-position:normal;font-variant-caps:normal;font-variant-numeric:normal;font-variant-alternates:normal;font-variant-east-asian:normal;font-feature-settings:normal;font-variation-settings:normal;text-indent:0;text-align:start;text-decoration:none;text-decoration-line:none;text-decoration-style:solid;text-decoration-color:#000000;letter-spacing:0px;word-spacing:0px;text-transform:none;writing-mode:lr-tb;direction:ltr;text-orientation:mixed;dominant-baseline:auto;baseline-shift:baseline;text-anchor:start;white-space:normal;shape-padding:0;shape-margin:0;inline-size:0;opacity:0.9;vector-effect:none;fill:#000000;fill-opacity:1;stroke-width:0.999999;stroke-linecap:butt;stroke-linejoin:miter;stroke-miterlimit:4;stroke-dasharray:none;stroke-dashoffset:0;stroke-opacity:1;-inkscape-stroke:none;stop-color:#000000;stop-opacity:1"
       x="60"
       y="-220"
       id="text3704"><tspan
         sodipodi:role="line"
         id="tspan3702"
         x="60"
         y="-220">cloned</tspan></text>
    <g
       id="g5013"
       transform="translate(440,-40)">
      <g
         id="g3715-5-2"
         transform="matrix(1,0,0,-1,80,740)">
        <rect
           style="fill:#eeeeee;fill-opacity:1;stroke:none;stroke-width:3;stroke-linecap:square;stroke-linejoin:round"
           id="rect265-1-2-1-4-5"
           width="160"
           height="160"
           x="-40"
           y="260" />
        <rect
           style="fill:#888888;fill-opacity:1;stroke:none;stroke-width:3;stroke-linecap:square;stroke-linejoin:round"
           id="rect265-9-8-76-4"
           width="20"
           height="20"
           x="-40"
           y="260" />
        <rect
           style="fill:#888888;fill-opacity:1;stroke:none;stroke-width:3;stroke-linecap:square;stroke-linejoin:round"
           id="rect265-9-7-5-7"
           width="20"
           height="20"
           x="-20"
           y="280" />
        <rect
           style="fill:#888888;fill-opacity:1;stroke:none;stroke-width:3;stroke-linecap:square;stroke-linejoin:round"
           id="rect265-9-9-6-4"
           width="20"
           height="20"
           x="20"
           y="300" />
        <rect
           style="fill:#888888;fill-opacity:1;stroke:none;stroke-width:3;stroke-linecap:square;stroke-linejoin:round"
           id="rect265-9-2-9-4"
           width="20"
           height="20"
           x="0"
           y="320" />
        <rect
           style="fill:#888888;fill-opacity:1;stroke:none;stroke-width:3;stroke-linecap:square;stroke-linejoin:round"
           id="rect265-9-0-3-3"
           width="20"
           height="20"
           x="40"
           y="400" />
        <rect
           style="fill:#888888;fill-opacity:1;stroke:none;stroke-width:3;stroke-linecap:square;stroke-linejoin:round"
           id="rect265-9-23-7-0"
           width="20"
           height="20"
           x="60"
           y="380" />
        <rect
           style="fill:#888888;fill-opacity:1;stroke:none;stroke-width:3;stroke-linecap:square;stroke-linejoin:round"
           id="rect265-9-75-4-7"
           width="20"
           height="20"
           x="80"
           y="340" />
        <rect
           style="fill:#888888;fill-opacity:1;stroke:none;stroke-width:3;stroke-linecap:square;stroke-linejoin:round"
           id="rect265-9-92-5-8"
           width="20"
           height="20"
           x="100"
           y="360" />
      </g>
      <path
         id="path4724"
         style="font-size:24px;line-height:1;font-family:Arial;-inkscape-font-specification:Arial;letter-spacing:0px;word-spacing:0px;baseline-shift:baseline;opacity:0.9;stroke-width:0.999999"
         d="m 70.417965,296.70879 c -1.8125,0 -3.2539,0.65625 -4.32422,1.96875 -1.22656,1.50782 -1.83984,3.92188 -1.83984,7.24219 0,2.96875 0.55469,5.10156 1.66406,6.39844 1.10938,1.28906 2.54298,1.93358 4.30078,1.93358 1.03126,0 1.95313,-0.24608 2.76563,-0.73827 0.8125,-0.49219 1.44922,-1.19921 1.91015,-2.12109 0.46875,-0.92969 0.70313,-1.93359 0.70313,-3.01172 0,-1.64063 -0.4961,-2.97656 -1.48828,-4.00781 -0.98437,-1.03907 -2.17969,-1.55861 -3.58594,-1.55861 -0.80468,0 -1.57422,0.1875 -2.30859,0.5625 -0.73438,0.375 -1.35547,0.94923 -1.86328,1.72267 0.0156,-1.71875 0.21484,-3.04298 0.59765,-3.97267 0.38282,-0.92968 0.90625,-1.63671 1.57031,-2.12108 0.50781,-0.375 1.09766,-0.5625 1.76954,-0.5625 0.83593,0 1.53906,0.30077 2.10937,0.90233 0.34375,0.375 0.60938,0.97657 0.79688,1.80469 l 2.09765,-0.16406 c -0.17187,-1.33593 -0.69141,-2.38281 -1.55859,-3.14063 -0.85937,-0.75781 -1.96484,-1.13672 -3.31641,-1.13671 z m 59.578135,0 c -1.25,0 -2.28906,0.33594 -3.11719,1.00782 -0.82031,0.67187 -1.44141,1.62889 -1.86328,2.87108 -0.41406,1.23437 -0.6211,2.86719 -0.6211,4.89844 1e-5,3.22656 0.56642,5.55469 1.69922,6.98437 0.94532,1.1875 2.2461,1.78125 3.90235,1.78125 1.25781,0 2.29687,-0.33594 3.11719,-1.00781 0.8281,-0.67969 1.44921,-1.63672 1.86327,-2.87108 0.41406,-1.24219 0.6211,-2.87111 0.6211,-4.88673 0,-1.70312 -0.12891,-3.05469 -0.38673,-4.05469 -0.25781,-1.00781 -0.61329,-1.85937 -1.0664,-2.55469 -0.45312,-0.70312 -1.02735,-1.23827 -1.72265,-1.60547 -0.69531,-0.37499 -1.50391,-0.5625 -2.42578,-0.56249 z m 21,0 c -0.36719,0.74219 -0.99219,1.50782 -1.875,2.29688 -0.88281,0.78906 -1.91408,1.46094 -3.09375,2.01562 v 2.03907 c 0.65623,-0.24219 1.39452,-0.60548 2.21483,-1.08986 0.82813,-0.48437 1.4961,-0.96874 2.00392,-1.45312 v 13.4414 h 2.10937 v -17.25 z m 18.82031,0 c -1.35937,0 -2.4961,0.39063 -3.41016,1.17188 -0.91407,0.77344 -1.5,1.86719 -1.75782,3.28125 l 2.10938,0.375 c 0.15625,-1.03125 0.50781,-1.80469 1.05469,-2.32031 0.54687,-0.51563 1.23046,-0.77344 2.05079,-0.77344 0.8281,0 1.50389,0.25391 2.02733,0.76172 0.52344,0.50781 0.78517,1.14843 0.78517,1.92187 -2e-5,0.97656 -0.35938,1.69922 -1.07813,2.16797 -0.71875,0.46875 -1.52735,0.70313 -2.42579,0.70313 -0.0859,0 -0.19923,-0.008 -0.33985,-0.0234 l -0.23437,1.85156 c 0.59375,-0.15625 1.08985,-0.23437 1.48828,-0.23437 0.97657,0 1.78126,0.3164 2.41407,0.94922 0.63281,0.625 0.94921,1.42187 0.94921,2.39062 0,1.01562 -0.34375,1.86719 -1.03125,2.55469 -0.67967,0.6875 -1.51562,1.03125 -2.50781,1.03125 -0.83594,0 -1.54688,-0.26172 -2.13281,-0.78516 -0.57813,-0.53125 -0.98828,-1.39453 -1.23047,-2.58984 l -2.10937,0.28125 c 0.14062,1.42968 0.70704,2.59375 1.69921,3.49219 1,0.89844 2.25391,1.34765 3.76172,1.34765 1.67188,0 3.05469,-0.51953 4.14844,-1.55859 1.09374,-1.04687 1.64063,-2.32032 1.64063,-3.82031 0,-1.10938 -0.28125,-2.03126 -0.84375,-2.76563 -0.5625,-0.74219 -1.35157,-1.23047 -2.36719,-1.46484 0.78125,-0.35938 1.3711,-0.84375 1.76954,-1.45313 0.39842,-0.60938 0.59765,-1.28516 0.59765,-2.02734 0,-0.78125 -0.21094,-1.51953 -0.63282,-2.21485 -0.41406,-0.69531 -1.01562,-1.24218 -1.80468,-1.64062 -0.78907,-0.40625 -1.65235,-0.60938 -2.58985,-0.60938 z m 20.33202,0 c -1.63281,0 -2.9336,0.42579 -3.90233,1.27735 -0.96875,0.84375 -1.52735,2.07422 -1.67579,3.69141 l 2.16798,0.22265 c 0.008,-1.07812 0.31639,-1.92188 0.92577,-2.53125 0.60937,-0.60938 1.42187,-0.91406 2.4375,-0.91406 0.96094,0 1.73827,0.28906 2.33204,0.86719 0.60156,0.57031 0.90233,1.27343 0.90233,2.10937 0,0.79687 -0.32812,1.64454 -0.98437,2.54297 -0.65625,0.89063 -1.91798,2.10156 -3.78515,3.63281 -1.20313,0.98437 -2.12502,1.85157 -2.76562,2.60156 -0.63283,0.75 -1.09375,1.51172 -1.38283,2.28516 -0.17966,0.46875 -0.26169,0.95703 -0.24609,1.46484 h 11.35547 v -2.02734 h -8.42578 c 0.23437,-0.38281 0.53125,-0.76172 0.89062,-1.13672 0.35938,-0.38281 1.17188,-1.10547 2.4375,-2.16797 1.51563,-1.28125 2.59766,-2.28906 3.24611,-3.02343 0.65623,-0.73438 1.12498,-1.43359 1.40623,-2.09766 0.28125,-0.66406 0.42188,-1.33984 0.42188,-2.02734 0,-1.35156 -0.48047,-2.48438 -1.4414,-3.39844 -0.96094,-0.91406 -2.26563,-1.3711 -3.91407,-1.3711 z m -98.636715,0.0703 -7.83984,11.13282 v 1.93358 h 7.45312 v 4.11328 h 2.10938 v -4.11328 h 2.32031 v -1.93358 h -2.32031 v -11.13282 z m -47.03906,0.22265 v 2.02735 h 8.41406 c -1.07031,1.21875 -2.08203,2.71875 -3.03515,4.5 -0.94532,1.77344 -1.67188,3.61719 -2.17969,5.53125 -0.50779,1.91407 -0.77341,3.54688 -0.79688,4.89844 h 2.16797 c 0.11719,-1.71094 0.38672,-3.28515 0.8086,-4.72265 0.58593,-2.03906 1.41406,-4.02344 2.48437,-5.95313 1.07813,-1.92968 2.16407,-3.47656 3.25781,-4.64062 v -1.64063 z m 61.945315,0.0117 -1.66406,8.82422 1.98047,0.25781 c 0.3125,-0.49218 0.74219,-0.89062 1.28906,-1.19531 0.54687,-0.3125 1.16016,-0.46875 1.83985,-0.46875 1.09375,0 1.97656,0.34766 2.64843,1.04297 0.67969,0.69531 1.01953,1.64453 1.01953,2.84766 0,1.26562 -0.35156,2.28125 -1.05468,3.04687 -0.70313,0.76562 -1.5625,1.14844 -2.57813,1.14844 -0.84374,0 -1.5664,-0.26954 -2.16797,-0.8086 -0.59374,-0.54687 -0.97265,-1.35937 -1.13672,-2.4375 l -2.21484,0.1875 c 0.14063,1.44532 0.70313,2.60547 1.6875,3.48047 0.99219,0.875 2.26953,1.3125 3.83203,1.3125 1.90625,0 3.41016,-0.69531 4.51172,-2.08593 0.90625,-1.13282 1.35937,-2.47657 1.35937,-4.03125 0,-1.63282 -0.51562,-2.96876 -1.54687,-4.00782 -1.03125,-1.03906 -2.29688,-1.55859 -3.79687,-1.55859 -1.13281,0 -2.21485,0.35937 -3.2461,1.07812 l 0.92578,-4.61718 h 6.85547 v -2.01563 z m 23.55469,1.44141 c 0.98437,0 1.80467,0.46484 2.46094,1.39452 0.66406,0.92969 0.99608,2.80861 0.99608,5.63673 0,2.8125 -0.33202,4.6875 -0.99608,5.625 -0.65627,0.9375 -1.46877,1.40625 -2.4375,1.40625 -0.96875,0 -1.78517,-0.46485 -2.44922,-1.39453 -0.65625,-0.9375 -0.98438,-2.81641 -0.98438,-5.63672 0,-2.82031 0.36328,-4.75391 1.08985,-5.80078 0.57812,-0.82032 1.35156,-1.23047 2.32031,-1.23047 z m -38.847665,1.71094 v 7.74608 h -5.3789 z m -21.02343,4.51172 c 0.96093,0 1.75781,0.34375 2.39062,1.03124 0.63281,0.67969 0.94922,1.61329 0.94922,2.80079 0,1.23437 -0.32031,2.21093 -0.96094,2.92968 -0.64062,0.71875 -1.40625,1.07813 -2.29687,1.07813 -0.60938,0 -1.1914,-0.17188 -1.7461,-0.51563 -0.55468,-0.35156 -0.98828,-0.85937 -1.30078,-1.52343 -0.30468,-0.66406 -0.45703,-1.35938 -0.45703,-2.08594 0,-1.10937 0.33203,-2.00391 0.9961,-2.6836 0.66405,-0.68749 1.47265,-1.03124 2.42578,-1.03124 z" />
    </g>
    <g
       id="g5000"
       transform="translate(640,400)">
      <g
         id="g3726"
         transform="translate(-320,60)">
        <rect
           style="fill:#eeeeee;fill-opacity:1;stroke:none;stroke-width:3;stroke-linecap:square;stroke-linejoin:round"
           id="rect265-1-2"
           width="160"
           height="160"
           x="160"
           y="260" />
        <rect
           style="fill:#888888;fill-opacity:1;stroke:none;stroke-width:3;stroke-linecap:square;stroke-linejoin:round"
           id="rect265-9-8-2"
           width="20"
           height="20"
           x="160"
           y="360" />
        <rect
           style="fill:#888888;fill-opacity:1;stroke:none;stroke-width:3;stroke-linecap:square;stroke-linejoin:round"
           id="rect265-9-8-8"
           width="20"
           height="20"
           x="180"
           y="340" />
        <rect
           style="fill:#888888;fill-opacity:1;stroke:none;stroke-width:3;stroke-linecap:square;stroke-linejoin:round"
           id="rect265-9-8-9"
           width="20"
           height="20"
           x="200"
           y="380" />
        <rect
           style="fill:#888888;fill-opacity:1;stroke:none;stroke-width:3;stroke-linecap:square;stroke-linejoin:round"
           id="rect265-9-8-7"
           width="20"
           height="20"
           x="220"
           y="400" />
        <rect
           style="fill:#888888;fill-opacity:1;stroke:none;stroke-width:3;stroke-linecap:square;stroke-linejoin:round"
           id="rect265-9-8-3"
           width="20"
           height="20"
           x="240"
           y="300" />
        <rect
           style="fill:#888888;fill-opacity:1;stroke:none;stroke-width:3;stroke-linecap:square;stroke-linejoin:round"
           id="rect265-9-8-6"
           width="20"
           height="20"
           x="260"
           y="320" />
        <rect
           style="fill:#888888;fill-opacity:1;stroke:none;stroke-width:3;stroke-linecap:square;stroke-linejoin:round"
           id="rect265-9-8-1"
           width="20"
           height="20"
           x="280"
           y="280" />
        <rect
           style="fill:#888888;fill-opacity:1;stroke:none;stroke-width:3;stroke-linecap:square;stroke-linejoin:round"
           id="rect265-9-8-29"
           width="20"
           height="20"
           x="300"
           y="260" />
      </g>
      <path
         id="path4740"
         style="font-size:24px;line-height:1;font-family:Arial;-inkscape-font-specification:Arial;letter-spacing:0px;word-spacing:0px;baseline-shift:baseline;opacity:0.9;stroke-width:0.999999"
         d="m -109.55469,296.70879 c -1.8125,0 -3.25391,0.65625 -4.32422,1.96875 -1.22656,1.50781 -1.83984,3.92187 -1.83984,7.24218 0,2.96875 0.55469,5.10157 1.66406,6.39844 1.10937,1.28907 2.54297,1.9336 4.30078,1.9336 1.03125,0 1.95313,-0.2461 2.76563,-0.73829 0.8125,-0.49218 1.44921,-1.19921 1.91015,-2.12109 0.46875,-0.92969 0.70313,-1.93359 0.70313,-3.01172 0,-1.64062 -0.4961,-2.97656 -1.48828,-4.00781 -0.98438,-1.03906 -2.1797,-1.55859 -3.58594,-1.55859 -0.80469,0 -1.57422,0.1875 -2.3086,0.5625 -0.73437,0.375 -1.35546,0.94922 -1.86328,1.72265 0.0156,-1.71874 0.21485,-3.04297 0.59766,-3.97265 0.38281,-0.92969 0.90625,-1.63672 1.57031,-2.1211 0.50782,-0.375 1.09766,-0.5625 1.76953,-0.5625 0.83594,0 1.53907,0.30078 2.10938,0.90235 0.34375,0.375 0.60937,0.97656 0.79687,1.80468 l 2.09766,-0.16406 c -0.17188,-1.33593 -0.69141,-2.38281 -1.55859,-3.14062 -0.85938,-0.75782 -1.96485,-1.13672 -3.31641,-1.13672 z m 39.66797,0 c -1.63281,0 -2.93359,0.42578 -3.90234,1.27734 -0.96875,0.84375 -1.52735,2.07422 -1.67579,3.69141 l 2.16797,0.22265 c 0.008,-1.07812 0.31641,-1.92187 0.92578,-2.53125 0.60938,-0.60938 1.42188,-0.91406 2.4375,-0.91406 0.96094,0 1.73829,0.28906 2.33204,0.86719 0.60156,0.57031 0.90234,1.27343 0.90234,2.10937 0,0.79688 -0.32812,1.64454 -0.98438,2.54297 -0.65624,0.89063 -1.91797,2.10156 -3.78515,3.63281 -1.20313,0.98438 -2.125,1.85157 -2.76563,2.60157 -0.63281,0.75 -1.09375,1.51171 -1.38281,2.28515 -0.17967,0.46875 -0.26169,0.95703 -0.24609,1.46485 h 11.35546 v -2.02735 h -8.42578 c 0.23438,-0.38281 0.53125,-0.76172 0.89063,-1.13672 0.35937,-0.38281 1.17187,-1.10547 2.4375,-2.16796 1.51562,-1.28126 2.59765,-2.28907 3.24609,-3.02344 0.65626,-0.73437 1.12501,-1.43359 1.40625,-2.09766 0.28126,-0.66406 0.42188,-1.33984 0.42188,-2.02734 0,-1.35156 -0.48047,-2.48437 -1.44141,-3.39844 -0.96094,-0.91406 -2.26563,-1.37109 -3.91406,-1.37109 z m 19.69922,0 c -1.35938,0 -2.4961,0.39063 -3.41016,1.17187 -0.91406,0.77344 -1.5,1.86719 -1.75781,3.28125 l 2.10937,0.375 c 0.15626,-1.03124 0.50782,-1.80468 1.05469,-2.32031 0.54687,-0.51563 1.23047,-0.77344 2.05078,-0.77344 0.82813,0 1.50391,0.25391 2.02735,0.76172 0.52344,0.50781 0.78515,1.14844 0.78515,1.92188 0,0.97655 -0.35938,1.69921 -1.07812,2.16796 -0.71876,0.46875 -1.52734,0.70313 -2.42578,0.70313 -0.0859,0 -0.19922,-0.008 -0.33985,-0.0234 l -0.23437,1.85156 c 0.59374,-0.15625 1.08984,-0.23437 1.48828,-0.23437 0.97656,0 1.78125,0.31641 2.41406,0.94922 0.63281,0.625 0.94922,1.42187 0.94922,2.39062 0,1.01562 -0.34375,1.86719 -1.03125,2.55469 -0.67969,0.6875 -1.51563,1.03125 -2.50781,1.03125 -0.83594,0 -1.54688,-0.26172 -2.13281,-0.78516 -0.57812,-0.53125 -0.98828,-1.39453 -1.23047,-2.58984 l -2.10938,0.28125 c 0.14063,1.42969 0.70703,2.59375 1.69922,3.49219 1,0.89844 2.25391,1.34765 3.76172,1.34765 1.67187,0 3.05469,-0.51952 4.14844,-1.55859 1.09375,-1.04687 1.64062,-2.32031 1.64062,-3.82031 0,-1.10937 -0.28125,-2.03125 -0.84375,-2.76563 -0.5625,-0.74219 -1.35156,-1.23047 -2.36719,-1.46484 0.78126,-0.35937 1.3711,-0.84375 1.76953,-1.45313 0.39844,-0.60938 0.59766,-1.28515 0.59766,-2.02734 0,-0.78125 -0.21094,-1.51953 -0.63281,-2.21484 -0.41407,-0.69532 -1.01563,-1.24219 -1.80469,-1.64063 -0.78906,-0.40624 -1.65234,-0.60937 -2.58984,-0.60937 z m 21.21094,0 c -0.36719,0.74218 -0.99219,1.50781 -1.875,2.29687 -0.88282,0.78907 -1.91407,1.46094 -3.09376,2.01563 v 2.03906 c 0.65626,-0.24219 1.39454,-0.60547 2.21485,-1.08984 0.82812,-0.48438 1.49609,-0.96875 2.00391,-1.45313 v 13.44141 h 2.10937 v -17.25 z m 19.03124,0 c -1.24999,0 -2.28906,0.33594 -3.11718,1.00781 -0.82032,0.67187 -1.4414,1.6289 -1.86328,2.87109 -0.41406,1.23438 -0.6211,2.8672 -0.6211,4.89844 0,3.22656 0.56641,5.55469 1.69922,6.98438 0.94531,1.18749 2.2461,1.78125 3.90234,1.78125 1.25782,0 2.29688,-0.33594 3.11719,-1.00782 0.82813,-0.67969 1.44922,-1.63672 1.86328,-2.87109 0.41407,-1.24219 0.6211,-2.87109 0.6211,-4.88672 0,-1.70312 -0.12891,-3.05469 -0.38672,-4.05469 -0.25781,-1.00781 -0.61328,-1.85937 -1.06641,-2.55468 -0.45312,-0.70313 -1.02734,-1.23829 -1.72265,-1.60547 -0.69531,-0.375 -1.50391,-0.5625 -2.42579,-0.5625 z m -118.54687,0.0703 -7.83984,11.13281 v 1.9336 h 7.45312 v 4.11328 h 2.10938 v -4.11328 h 2.32031 v -1.9336 h -2.32031 v -11.13281 z m 33.02344,0.22266 v 2.02734 h 8.41406 c -1.07031,1.21875 -2.08203,2.71875 -3.03516,4.5 -0.94531,1.77344 -1.67187,3.61719 -2.17968,5.53125 -0.50785,1.91406 -0.77348,3.54688 -0.79688,4.89844 h 2.16797 c 0.11719,-1.71094 0.38672,-3.28516 0.80859,-4.72266 0.58594,-2.03906 1.41407,-4.02344 2.48438,-5.95312 1.07812,-1.92969 2.16406,-3.47656 3.25781,-4.64063 v -1.64062 z m -58.14844,0.0117 -1.66406,8.82422 1.98047,0.25782 c 0.3125,-0.49219 0.74218,-0.89063 1.28906,-1.19532 0.54687,-0.3125 1.16016,-0.46875 1.83984,-0.46875 1.09375,0 1.97657,0.34767 2.64844,1.04297 0.67969,0.69531 1.01953,1.64453 1.01953,2.84766 0,1.26562 -0.35156,2.28125 -1.05469,3.04687 -0.70312,0.76562 -1.5625,1.14844 -2.57812,1.14844 -0.84375,0 -1.56641,-0.26953 -2.16797,-0.80859 -0.59375,-0.54688 -0.97266,-1.35938 -1.13672,-2.4375 l -2.21484,0.1875 c 0.14062,1.44531 0.70312,2.60547 1.6875,3.48047 0.99218,0.87499 2.26953,1.3125 3.83203,1.3125 1.90624,0 3.41015,-0.69532 4.51172,-2.08594 0.90624,-1.13281 1.35937,-2.47657 1.35937,-4.03125 0,-1.63281 -0.51563,-2.96876 -1.54687,-4.00781 -1.03125,-1.03907 -2.29688,-1.5586 -3.79688,-1.5586 -1.13281,0 -2.21485,0.35937 -3.24609,1.07813 l 0.92578,-4.61719 h 6.85547 v -2.01563 z m 143.64844,1.44141 c 0.98437,0 1.80469,0.46485 2.46093,1.39453 0.66407,0.92969 0.9961,2.8086 0.9961,5.63672 0,2.8125 -0.33203,4.6875 -0.9961,5.625 -0.65624,0.9375 -1.46874,1.40625 -2.4375,1.40625 -0.96874,0 -1.78515,-0.46484 -2.44921,-1.39453 -0.65625,-0.9375 -0.98438,-2.81641 -0.98438,-5.63672 0,-2.82031 0.36329,-4.75391 1.08985,-5.80078 0.57812,-0.82031 1.35156,-1.23047 2.32031,-1.23047 z m -118.91016,1.71094 v 7.74609 h -5.37891 z m 19.00781,4.51172 c 0.96094,0 1.75782,0.34375 2.39063,1.03125 0.6328,0.67968 0.94922,1.61328 0.94922,2.80078 0,1.23437 -0.32032,2.21093 -0.96094,2.92969 -0.64063,0.71874 -1.40625,1.07812 -2.29687,1.07812 -0.60938,0 -1.19141,-0.17188 -1.7461,-0.51562 -0.55468,-0.35157 -0.98828,-0.85938 -1.30078,-1.52344 -0.30469,-0.66406 -0.45703,-1.35937 -0.45703,-2.08594 0,-1.10937 0.33203,-2.00391 0.99609,-2.68359 0.66406,-0.6875 1.47266,-1.03125 2.42578,-1.03125 z" />
    </g>
    <g
       id="g4987"
       transform="translate(640,-40)">
      <g
         id="g3737"
         transform="translate(-520,260)">
        <rect
           style="fill:#eeeeee;fill-opacity:1;stroke:none;stroke-width:3;stroke-linecap:square;stroke-linejoin:round"
           id="rect265-1"
           width="160"
           height="160"
           x="160"
           y="60" />
        <rect
           style="opacity:1;fill:#888888;fill-opacity:1;stroke:none;stroke-width:3;stroke-linecap:square;stroke-linejoin:round"
           id="rect265"
           width="20"
           height="20"
           x="300"
           y="60" />
        <rect
           style="fill:#888888;fill-opacity:1;stroke:none;stroke-width:3;stroke-linecap:square;stroke-linejoin:round"
           id="rect265-3"
           width="20"
           height="20"
           x="280"
           y="80" />
        <rect
           style="fill:#888888;fill-opacity:1;stroke:none;stroke-width:3;stroke-linecap:square;stroke-linejoin:round"
           id="rect265-6"
           width="20"
           height="20"
           x="260"
           y="100" />
        <rect
           style="fill:#888888;fill-opacity:1;stroke:none;stroke-width:3;stroke-linecap:square;stroke-linejoin:round"
           id="rect265-7"
           width="20"
           height="20"
           x="240"
           y="120" />
        <rect
           style="fill:#888888;fill-opacity:1;stroke:none;stroke-width:3;stroke-linecap:square;stroke-linejoin:round"
           id="rect265-5"
           width="20"
           height="20"
           x="220"
           y="140" />
        <rect
           style="fill:#888888;fill-opacity:1;stroke:none;stroke-width:3;stroke-linecap:square;stroke-linejoin:round"
           id="rect265-35"
           width="20"
           height="20"
           x="200"
           y="160" />
        <rect
           style="fill:#888888;fill-opacity:1;stroke:none;stroke-width:3;stroke-linecap:square;stroke-linejoin:round"
           id="rect265-62"
           width="20"
           height="20"
           x="180"
           y="180" />
        <rect
           style="fill:#888888;fill-opacity:1;stroke:none;stroke-width:3;stroke-linecap:square;stroke-linejoin:round"
           id="rect265-9"
           width="20"
           height="20"
           x="160"
           y="200" />
      </g>
      <path
         id="path4756"
         style="font-size:24px;line-height:1;font-family:Arial;-inkscape-font-specification:Arial;letter-spacing:0px;word-spacing:0px;baseline-shift:baseline;opacity:0.9;stroke-width:0.999999"
         d="m -329.64062,296.70879 c -1.8125,0 -3.25389,0.65625 -4.32422,1.96875 -1.22656,1.50781 -1.83984,3.92187 -1.83984,7.24218 0,2.96875 0.55469,5.10157 1.66406,6.39844 1.10938,1.28907 2.54298,1.9336 4.30078,1.9336 1.03126,0 1.95313,-0.2461 2.76563,-0.73829 0.8125,-0.49218 1.44921,-1.19921 1.91015,-2.12109 0.46875,-0.92968 0.70313,-1.93359 0.70313,-3.01172 0,-1.64062 -0.49611,-2.97656 -1.48828,-4.00781 -0.98438,-1.03906 -2.17969,-1.55859 -3.58594,-1.55859 -0.80469,0 -1.57422,0.1875 -2.30859,0.5625 -0.73438,0.375 -1.35547,0.94922 -1.86327,1.72265 0.0156,-1.71874 0.21483,-3.04297 0.59764,-3.97265 0.38281,-0.92969 0.90625,-1.63672 1.57031,-2.1211 0.50781,-0.375 1.09766,-0.5625 1.76955,-0.5625 0.83591,0 1.53906,0.30078 2.10937,0.90235 0.34375,0.375 0.60938,0.97656 0.79688,1.80468 l 2.09764,-0.16406 c -0.17188,-1.33593 -0.69142,-2.38281 -1.55859,-3.14062 -0.85937,-0.75782 -1.96484,-1.13672 -3.31641,-1.13672 z m 59.36719,0 c -1.35937,0 -2.49608,0.39063 -3.41016,1.17187 -0.91406,0.77344 -1.5,1.86719 -1.75781,3.28125 l 2.10938,0.375 c 0.15624,-1.03124 0.50781,-1.80468 1.05468,-2.32031 0.54688,-0.51563 1.23047,-0.77344 2.05078,-0.77344 0.82812,0 1.50391,0.25391 2.02735,0.76172 0.52344,0.50781 0.78515,1.14844 0.78515,1.92188 0,0.97656 -0.35937,1.69921 -1.07812,2.16796 -0.71875,0.46875 -1.52734,0.70313 -2.42578,0.70313 -0.0859,0 -0.19923,-0.008 -0.33986,-0.0234 l -0.23437,1.85156 c 0.59375,-0.15625 1.08985,-0.23437 1.48828,-0.23437 0.97657,0 1.78126,0.3164 2.41406,0.94922 0.63283,0.62499 0.94922,1.42187 0.94922,2.39062 0,1.01562 -0.34375,1.86719 -1.03125,2.55469 -0.67968,0.6875 -1.51562,1.03125 -2.50781,1.03125 -0.83594,0 -1.54688,-0.26173 -2.13281,-0.78516 -0.57813,-0.53125 -0.98829,-1.39453 -1.23047,-2.58984 l -2.10938,0.28125 c 0.14063,1.42968 0.70704,2.59375 1.69922,3.49219 1,0.89843 2.25391,1.34765 3.76172,1.34765 1.67187,0 3.05469,-0.51953 4.14844,-1.55859 1.09374,-1.04687 1.64062,-2.32032 1.64062,-3.82031 0,-1.10938 -0.28125,-2.03126 -0.84375,-2.76563 -0.5625,-0.74219 -1.35156,-1.23047 -2.36716,-1.46484 0.78122,-0.35938 1.37108,-0.84375 1.76952,-1.45313 0.39842,-0.60938 0.59764,-1.28516 0.59764,-2.02734 0,-0.78125 -0.21094,-1.51953 -0.63281,-2.21484 -0.41406,-0.69532 -1.01562,-1.24219 -1.80469,-1.64063 -0.78906,-0.40625 -1.65233,-0.60937 -2.58983,-0.60937 z m 20.33203,0 c -1.63281,0 -2.9336,0.42578 -3.90234,1.27734 -0.96876,0.84375 -1.52735,2.07422 -1.67578,3.69141 l 2.16796,0.22265 c 0.008,-1.07812 0.31641,-1.92187 0.92579,-2.53125 0.60937,-0.60938 1.42187,-0.91406 2.4375,-0.91406 0.96093,0 1.73827,0.28906 2.33203,0.86719 0.60156,0.57031 0.90234,1.27343 0.90234,2.10937 0,0.79688 -0.32813,1.64454 -0.98437,2.54297 -0.65626,0.89063 -1.91798,2.10156 -3.78517,3.63281 -1.20313,0.98438 -2.125,1.85157 -2.76563,2.60157 -0.63281,0.75 -1.09374,1.51171 -1.38281,2.28515 -0.17966,0.46875 -0.26168,0.95703 -0.24608,1.46485 h 11.35547 v -2.02735 h -8.42578 c 0.23437,-0.38281 0.53125,-0.76172 0.89062,-1.13672 0.35937,-0.38281 1.17188,-1.10546 2.4375,-2.16796 1.51563,-1.28126 2.59766,-2.28907 3.24609,-3.02344 0.65625,-0.73437 1.125,-1.43359 1.40625,-2.09766 0.28125,-0.66406 0.42188,-1.33984 0.42188,-2.02734 0,-1.35156 -0.48047,-2.48437 -1.44141,-3.39844 -0.96092,-0.91406 -2.26562,-1.37109 -3.91406,-1.37109 z m 20.89452,0 c -0.36718,0.74218 -0.99219,1.50781 -1.875,2.29687 -0.88281,0.78907 -1.91406,1.46094 -3.09375,2.01563 v 2.03906 c 0.65625,-0.24219 1.39453,-0.60547 2.21486,-1.08984 0.8281,-0.48438 1.49608,-0.96875 2.00389,-1.45313 v 13.44141 h 2.10938 v -17.25 z m 19.03125,0 c -1.25,0 -2.28906,0.33594 -3.11719,1.00781 -0.82031,0.67187 -1.44139,1.6289 -1.86327,2.87109 -0.41406,1.23438 -0.62109,2.8672 -0.62109,4.89844 0,3.22656 0.56641,5.55469 1.69922,6.98438 0.94531,1.18749 2.2461,1.78125 3.90234,1.78125 1.25781,0 2.29688,-0.33594 3.11719,-1.00782 0.82813,-0.67969 1.44922,-1.63672 1.86328,-2.87109 0.41406,-1.24219 0.62108,-2.87109 0.62108,-4.88672 0,-1.70312 -0.12889,-3.05469 -0.38669,-4.05469 -0.25783,-1.00781 -0.61329,-1.85937 -1.06642,-2.55468 -0.45313,-0.70313 -1.02733,-1.23829 -1.72266,-1.60547 -0.6953,-0.375 -1.5039,-0.5625 -2.42579,-0.5625 z m -78.51562,0.0703 -7.83985,11.13281 v 1.93359 h 7.45313 v 4.11329 h 2.10937 v -4.11329 h 2.32032 v -1.93359 h -2.32032 v -11.13281 z m -67.05468,0.22265 v 2.02735 h 8.41406 c -1.07031,1.21875 -2.08204,2.71875 -3.03514,4.5 -0.94534,1.77344 -1.67188,3.61719 -2.17969,5.53125 -0.50779,1.91406 -0.77342,3.54688 -0.79688,4.89844 h 2.16797 c 0.11719,-1.71094 0.38672,-3.28516 0.8086,-4.72266 0.58593,-2.03906 1.41406,-4.02344 2.48437,-5.95313 1.07813,-1.92968 2.16407,-3.47656 3.25781,-4.64062 v -1.64063 z m 41.92968,0.0117 -1.66406,8.82422 1.98047,0.25782 c 0.3125,-0.49219 0.74219,-0.89063 1.28907,-1.19532 0.54687,-0.3125 1.16015,-0.46875 1.83984,-0.46875 1.09375,0 1.97656,0.34767 2.64843,1.04297 0.67969,0.69532 1.01953,1.64453 1.01953,2.84766 0,1.26562 -0.35156,2.28125 -1.05469,3.04687 -0.70313,0.76562 -1.5625,1.14844 -2.57812,1.14844 -0.84376,0 -1.56641,-0.26953 -2.16797,-0.80859 -0.59376,-0.54688 -0.97266,-1.35938 -1.13672,-2.4375 l -2.21485,0.1875 c 0.14062,1.44531 0.70313,2.60547 1.6875,3.48047 0.99219,0.875 2.26954,1.3125 3.83204,1.3125 1.90624,0 3.41016,-0.69532 4.51171,-2.08594 0.90626,-1.13281 1.35938,-2.47657 1.35938,-4.03125 0,-1.63281 -0.51562,-2.96875 -1.54688,-4.00781 -1.03124,-1.03907 -2.29687,-1.5586 -3.79687,-1.5586 -1.13281,0 -2.21485,0.35938 -3.24609,1.07813 l 0.92578,-4.61719 h 6.85547 v -2.01563 z m 103.61719,1.44141 c 0.98438,0 1.80471,0.46485 2.46094,1.39453 0.66407,0.92969 0.99611,2.8086 0.99611,5.63672 0,2.8125 -0.33204,4.6875 -0.99611,5.625 -0.65624,0.9375 -1.46875,1.40625 -2.4375,1.40625 -0.96874,0 -1.78514,-0.46484 -2.44922,-1.39453 -0.65624,-0.9375 -0.98437,-2.81641 -0.98437,-5.63672 0,-2.82031 0.36328,-4.75391 1.08984,-5.80078 0.57812,-0.82031 1.35156,-1.23047 2.32031,-1.23047 z m -78.87889,1.71094 v 7.74609 h -5.37892 z m -41.03906,4.51172 c 0.96091,0 1.75781,0.34375 2.39062,1.03125 0.63281,0.67968 0.94922,1.61328 0.94922,2.80078 0,1.23437 -0.32031,2.21093 -0.96094,2.92969 -0.64062,0.71874 -1.40625,1.07812 -2.29687,1.07812 -0.60938,0 -1.1914,-0.17188 -1.74611,-0.51562 -0.55467,-0.35157 -0.98828,-0.85938 -1.30078,-1.52344 -0.30468,-0.66406 -0.45703,-1.35937 -0.45703,-2.08594 0,-1.10937 0.33203,-2.00391 0.99609,-2.68359 0.66407,-0.6875 1.47266,-1.03125 2.4258,-1.03125 z" />
    </g>
    <g
       id="g4974"
       transform="translate(1040,-240)">
      <g
         id="g3715"
         transform="translate(-520,60)">
        <rect
           style="fill:#eeeeee;fill-opacity:1;stroke:none;stroke-width:3;stroke-linecap:square;stroke-linejoin:round"
           id="rect265-1-2-1"
           width="160"
           height="160"
           x="-40"
           y="260" />
        <rect
           style="fill:#888888;fill-opacity:1;stroke:none;stroke-width:3;stroke-linecap:square;stroke-linejoin:round"
           id="rect265-9-8"
           width="20"
           height="20"
           x="-40"
           y="260" />
        <rect
           style="fill:#888888;fill-opacity:1;stroke:none;stroke-width:3;stroke-linecap:square;stroke-linejoin:round"
           id="rect265-9-7"
           width="20"
           height="20"
           x="-20"
           y="280" />
        <rect
           style="fill:#888888;fill-opacity:1;stroke:none;stroke-width:3;stroke-linecap:square;stroke-linejoin:round"
           id="rect265-9-9"
           width="20"
           height="20"
           x="20"
           y="300" />
        <rect
           style="fill:#888888;fill-opacity:1;stroke:none;stroke-width:3;stroke-linecap:square;stroke-linejoin:round"
           id="rect265-9-2"
           width="20"
           height="20"
           x="0"
           y="320" />
        <rect
           style="fill:#888888;fill-opacity:1;stroke:none;stroke-width:3;stroke-linecap:square;stroke-linejoin:round"
           id="rect265-9-0"
           width="20"
           height="20"
           x="40"
           y="400" />
        <rect
           style="fill:#888888;fill-opacity:1;stroke:none;stroke-width:3;stroke-linecap:square;stroke-linejoin:round"
           id="rect265-9-23"
           width="20"
           height="20"
           x="60"
           y="380" />
        <rect
           style="fill:#888888;fill-opacity:1;stroke:none;stroke-width:3;stroke-linecap:square;stroke-linejoin:round"
           id="rect265-9-75"
           width="20"
           height="20"
           x="80"
           y="340" />
        <rect
           style="fill:#888888;fill-opacity:1;stroke:none;stroke-width:3;stroke-linecap:square;stroke-linejoin:round"
           id="rect265-9-92"
           width="20"
           height="20"
           x="100"
           y="360" />
      </g>
      <path
         id="path4772"
         style="font-size:24px;line-height:1;font-family:Arial;-inkscape-font-specification:Arial;letter-spacing:0px;word-spacing:0px;baseline-shift:baseline;opacity:0.9;stroke-width:0.999999"
         d="m -550.14844,296.70878 c -1.25,0 -2.28907,0.33594 -3.11718,1.00781 -0.82032,0.67187 -1.44142,1.6289 -1.86329,2.8711 -0.41406,1.23437 -0.6211,2.86719 -0.6211,4.89844 0,3.22656 0.56643,5.55468 1.69922,6.98437 0.94531,1.1875 2.24609,1.78125 3.90235,1.78125 1.25781,0 2.29687,-0.33594 3.11718,-1.00781 0.82812,-0.6797 1.44922,-1.63673 1.86328,-2.8711 0.41406,-1.24218 0.6211,-2.87109 0.6211,-4.88672 0,-1.70312 -0.12891,-3.05469 -0.38672,-4.05468 -0.25781,-1.00782 -0.61329,-1.85938 -1.06641,-2.55469 -0.45312,-0.70313 -1.02734,-1.23828 -1.72265,-1.60547 -0.69532,-0.375 -1.50391,-0.5625 -2.42578,-0.5625 z m 21,0 c -0.36718,0.74219 -0.99218,1.50782 -1.875,2.29687 -0.88282,0.78907 -1.91407,1.46094 -3.09375,2.01563 v 2.03906 c 0.65624,-0.24218 1.39453,-0.60547 2.21485,-1.08984 0.82812,-0.48437 1.49608,-0.96875 2.0039,-1.45312 v 13.44141 h 2.10938 v -17.25 z m 18.82032,0 c -1.35938,0 -2.49609,0.39063 -3.41016,1.17187 -0.91406,0.77344 -1.5,1.86721 -1.75781,3.28125 l 2.10937,0.375 c 0.15625,-1.03124 0.50782,-1.80468 1.05469,-2.32031 0.54688,-0.51562 1.23047,-0.77344 2.05078,-0.77344 0.82812,0 1.50391,0.25391 2.02735,0.76173 0.52344,0.50781 0.78515,1.14843 0.78515,1.92187 0,0.97656 -0.35937,1.69921 -1.07812,2.16798 -0.71875,0.46874 -1.52734,0.70312 -2.42578,0.70312 -0.0859,0 -0.19923,-0.008 -0.33985,-0.0234 l -0.23437,1.85157 c 0.59375,-0.15626 1.08985,-0.23438 1.48828,-0.23438 0.97657,0 1.78126,0.31641 2.41406,0.94922 0.63281,0.625 0.94922,1.42187 0.94922,2.39063 0,1.01561 -0.34375,1.86718 -1.03125,2.55468 -0.67969,0.6875 -1.51563,1.03125 -2.50781,1.03125 -0.83594,0 -1.54688,-0.26172 -2.13281,-0.78515 -0.57813,-0.53126 -0.98829,-1.39453 -1.23048,-2.58985 l -2.10937,0.28125 c 0.14062,1.42969 0.70704,2.59375 1.69922,3.49219 1,0.89844 2.25391,1.34766 3.76172,1.34766 1.67187,0 3.05468,-0.51953 4.14844,-1.5586 1.09374,-1.04687 1.64062,-2.32031 1.64062,-3.82031 0,-1.10937 -0.28125,-2.03125 -0.84375,-2.76562 -0.5625,-0.7422 -1.35157,-1.23048 -2.36719,-1.46485 0.78125,-0.35937 1.3711,-0.84375 1.76954,-1.45312 0.39843,-0.60938 0.59765,-1.28516 0.59765,-2.02735 0,-0.78125 -0.21094,-1.51953 -0.63281,-2.21484 -0.41406,-0.69531 -1.01562,-1.24219 -1.80469,-1.64063 -0.78906,-0.40624 -1.65234,-0.60937 -2.58984,-0.60937 z m 20.33202,0 c -1.63281,0 -2.9336,0.42578 -3.90233,1.27734 -0.96876,0.84376 -1.52736,2.07422 -1.6758,3.69141 l 2.16798,0.22266 c 0.008,-1.07813 0.31641,-1.92188 0.92577,-2.53125 0.60938,-0.60938 1.42188,-0.91406 2.4375,-0.91406 0.96094,0 1.73828,0.28906 2.33205,0.86718 0.60156,0.57032 0.90233,1.27344 0.90233,2.10938 0,0.79687 -0.32813,1.64453 -0.98438,2.54296 -0.65625,0.89063 -1.91797,2.10157 -3.78514,3.63282 -1.20313,0.98437 -2.125,1.85156 -2.76563,2.60156 -0.6328,0.75 -1.09375,1.51172 -1.38281,2.28516 -0.17966,0.46875 -0.26169,0.95703 -0.24609,1.46484 h 11.35547 v -2.02734 h -8.42579 c 0.23438,-0.38281 0.53126,-0.76172 0.89063,-1.13672 0.35937,-0.38282 1.17187,-1.10547 2.4375,-2.16797 1.51562,-1.28125 2.59765,-2.28907 3.24609,-3.02344 0.65625,-0.73437 1.125,-1.43359 1.40625,-2.09766 0.28125,-0.66405 0.42188,-1.33984 0.42188,-2.02734 0,-1.35156 -0.48048,-2.48437 -1.44142,-3.39844 -0.96093,-0.91406 -2.26562,-1.37109 -3.91406,-1.37109 z m 40.39454,0 c -1.8125,0 -3.25392,0.65625 -4.32423,1.96875 -1.22656,1.50781 -1.83983,3.92188 -1.83983,7.24219 0,2.96874 0.55469,5.10156 1.66406,6.39843 1.10938,1.28907 2.54298,1.9336 4.30077,1.9336 1.03125,0 1.95313,-0.2461 2.76563,-0.73827 0.8125,-0.49219 1.44921,-1.19923 1.91015,-2.1211 0.46875,-0.92969 0.70313,-1.93359 0.70313,-3.01173 0,-1.64061 -0.4961,-2.97656 -1.48828,-4.00781 -0.98438,-1.03906 -2.17969,-1.55859 -3.58594,-1.55859 -0.80469,0 -1.57422,0.1875 -2.30858,0.5625 -0.73438,0.375 -1.35548,0.94923 -1.8633,1.72265 0.0156,-1.71874 0.21486,-3.04297 0.59767,-3.97265 0.38281,-0.92969 0.90625,-1.63672 1.57031,-2.1211 0.50781,-0.375 1.09766,-0.5625 1.76952,-0.5625 0.83594,0 1.53907,0.30078 2.10938,0.90235 0.34375,0.375 0.60937,0.97656 0.79687,1.80469 l 2.09767,-0.16406 c -0.17187,-1.33594 -0.69142,-2.38282 -1.55859,-3.14063 -0.85938,-0.75781 -1.96484,-1.13672 -3.31641,-1.13672 z m 21.09375,0.0703 -7.83984,11.13281 v 1.9336 h 7.45312 v 4.11328 h 2.10938 v -4.11328 h 2.32031 v -1.9336 h -2.32031 v -11.13281 z m -47.03906,0.22266 v 2.02734 h 8.41406 c -1.07031,1.21875 -2.08204,2.71876 -3.03517,4.5 -0.94531,1.77344 -1.67187,3.61719 -2.17968,5.53125 -0.50779,1.91407 -0.77341,3.54688 -0.79688,4.89844 h 2.16798 c 0.11719,-1.71094 0.38672,-3.28516 0.80858,-4.72266 0.58594,-2.03905 1.41407,-4.02344 2.48438,-5.95312 1.07813,-1.92969 2.16407,-3.47656 3.25781,-4.64063 v -1.64062 z m 61.94531,0.0117 -1.66406,8.82423 1.98047,0.25781 c 0.3125,-0.49219 0.74219,-0.89063 1.28906,-1.19531 0.54688,-0.3125 1.16015,-0.46875 1.83985,-0.46875 1.09374,0 1.97656,0.34766 2.64843,1.04295 0.67969,0.69532 1.01954,1.64455 1.01954,2.84767 0,1.26563 -0.35157,2.28125 -1.05469,3.04688 -0.70313,0.7656 -1.5625,1.14843 -2.57813,1.14843 -0.84374,0 -1.5664,-0.26953 -2.16797,-0.80859 -0.59374,-0.54687 -0.97265,-1.35938 -1.13671,-2.4375 l -2.21485,0.1875 c 0.14063,1.44531 0.70313,2.60547 1.6875,3.48047 0.99219,0.875 2.26953,1.3125 3.83203,1.3125 1.90625,0 3.41016,-0.69531 4.51172,-2.08594 0.90625,-1.13281 1.35938,-2.47656 1.35938,-4.03125 0,-1.63281 -0.51563,-2.96875 -1.54688,-4.00781 -1.03124,-1.03907 -2.29687,-1.5586 -3.79687,-1.5586 -1.13282,0 -2.21484,0.35938 -3.2461,1.07813 l 0.92578,-4.61719 h 6.85547 v -2.01562 z m -136.57031,1.4414 c 0.98437,0 1.80467,0.46485 2.46094,1.39453 0.66406,0.9297 0.99609,2.80861 0.99609,5.63672 0,2.8125 -0.33203,4.6875 -0.99609,5.625 -0.65626,0.9375 -1.46876,1.40625 -2.4375,1.40625 -0.96876,0 -1.78516,-0.46484 -2.44922,-1.39453 -0.65626,-0.9375 -0.98438,-2.81641 -0.98438,-5.63672 0,-2.82031 0.36328,-4.75391 1.08985,-5.80078 0.57812,-0.82031 1.35156,-1.23047 2.32031,-1.23047 z m 121.27734,1.71094 v 7.74609 h -5.3789 z m -21.02344,4.51172 c 0.96094,0 1.75782,0.34375 2.39063,1.03125 0.63281,0.67969 0.94922,1.61328 0.94922,2.80078 0,1.23437 -0.32031,2.21094 -0.96094,2.92969 -0.64062,0.71874 -1.40625,1.07812 -2.29687,1.07812 -0.60938,0 -1.19141,-0.17188 -1.7461,-0.51562 -0.55468,-0.35157 -0.98828,-0.85938 -1.30078,-1.52344 -0.30469,-0.66406 -0.45703,-1.35937 -0.45703,-2.08594 0,-1.10937 0.33203,-2.0039 0.99609,-2.68359 0.66406,-0.6875 1.47266,-1.03125 2.42578,-1.03125 z" />
    </g>
    <use
       x="0"
       y="0"
       xlink:href="#g4987"
       id="use5146"
       transform="translate(200,240)" />
    <use
       x="0"
       y="0"
       xlink:href="#g4974"
       id="use5148"
       transform="translate(-200,640)" />
    <use
       x="0"
       y="0"
       xlink:href="#g3648"
       id="use5420"
       transform="translate(440,280)" />
    <use
       x="0"
       y="0"
       xlink:href="#g3648"
       id="use5420-8"
       transform="translate(440,480)" />
    <use
       x="0"
       y="0"
       xlink:href="#g3648"
       id="use5420-5"
       transform="translate(240,480)" />
    <use
       x="0"
       y="0"
       xlink:href="#g3648"
       id="use5420-0"
       transform="translate(440,720)" />
    <use
       x="0"
       y="0"
       xlink:href="#g3648"
       id="use5420-8-9"
       transform="translate(440,920)" />
    <use
       x="0"
       y="0"
       xlink:href="#g3648"
       id="use5420-5-6"
       transform="translate(240,920)" />
    <rect
       style="opacity:1;fill:none;fill-opacity:1;stroke:#f1d6b1;stroke-width:4;stroke-linecap:round;stroke-linejoin:round;stroke-dasharray:none;stroke-opacity:1"
       id="rect5553"
       width="439.99997"
       height="880"
       x="239.99998"
       y="40" />
    <path
       style="font-variation-settings:normal;opacity:1;vector-effect:none;fill:none;fill-opacity:1;stroke:#f1d6b1;stroke-width:4;stroke-linecap:round;stroke-linejoin:round;stroke-miterlimit:4;stroke-dasharray:none;stroke-dashoffset:0;stroke-opacity:1;-inkscape-stroke:none;stop-color:#000000;stop-opacity:1"
       d="M 240,480 H 680"
       id="path6333" />
  </g>
</svg>
