<?xml version="1.0" encoding="UTF-8" standalone="no"?>
<svg
   width="900"
   height="900"
   version="1.1"
   id="svg810"
   sodipodi:docname="Walsh_permutation_137.svg"
   inkscape:version="1.2.1 (2ed6d7ae0b, 2022-08-22, custom)"
   xmlns:inkscape="http://www.inkscape.org/namespaces/inkscape"
   xmlns:sodipodi="http://sodipodi.sourceforge.net/DTD/sodipodi-0.dtd"
   xmlns:xlink="http://www.w3.org/1999/xlink"
   xmlns="http://www.w3.org/2000/svg"
   xmlns:svg="http://www.w3.org/2000/svg">
  <sodipodi:namedview
     id="namedview812"
     pagecolor="#ffffff"
     bordercolor="#666666"
     borderopacity="1.0"
     inkscape:showpageshadow="2"
     inkscape:pageopacity="0.0"
     inkscape:pagecheckerboard="0"
     inkscape:deskcolor="#d1d1d1"
     showgrid="false"
     inkscape:zoom="0.54387097"
     inkscape:cx="450.4745"
     inkscape:cy="989.20522"
     inkscape:window-width="1720"
     inkscape:window-height="1403"
     inkscape:window-x="3640"
     inkscape:window-y="0"
     inkscape:window-maximized="0"
     inkscape:current-layer="svg810" />
  <defs
     id="defs230">
    <!-- numbers -->
    <path
       id="n0"
       d="m 33.199218,39.00293 c 0,-1.01562 0.103516,-1.832025 0.310547,-2.449219 0.210938,-0.621086 0.521484,-1.099602 0.931641,-1.435547 0.41406,-0.335929 0.933591,-0.503898 1.558594,-0.503906 0.460933,8e-6 0.86523,0.09376 1.21289,0.28125 0.347652,0.183602 0.634761,0.45118 0.861328,0.802734 0.226557,0.347664 0.404292,0.773445 0.533204,1.277344 0.1289,0.500006 0.193353,1.175786 0.193359,2.027344 -6e-6,1.007815 -0.103522,1.822268 -0.310547,2.443359 -0.207037,0.617189 -0.517583,1.095704 -0.931641,1.435547 -0.410159,0.335938 -0.92969,0.503906 -1.558593,0.503906 -0.828128,0 -1.478518,-0.296875 -1.951172,-0.890625 -0.566407,-0.714842 -0.84961,-1.878903 -0.84961,-3.492187 m 1.083985,0 c -2e-6,1.410159 0.164061,2.349611 0.492187,2.818359 0.332029,0.464845 0.740232,0.697266 1.22461,0.697266 0.484372,0 0.890622,-0.234374 1.21875,-0.703125 0.332026,-0.468748 0.498042,-1.406247 0.498047,-2.8125 -5e-6,-1.414057 -0.166021,-2.353509 -0.498047,-2.81836 -0.328128,-0.464836 -0.738285,-0.697257 -1.230469,-0.697265 -0.484378,8e-6 -0.871096,0.205085 -1.160156,0.615234 -0.363283,0.523444 -0.544924,1.49024 -0.544922,2.900391" />
    <path
       id="n1"
       d="m 36.91409,43.3125 h -1.054687 v -6.720703 c -0.253909,0.242194 -0.587894,0.484381 -1.001953,0.726563 -0.410158,0.242193 -0.779299,0.423833 -1.107422,0.544922 V 36.84375 c 0.589842,-0.277337 1.105466,-0.613274 1.546875,-1.007812 0.441403,-0.394524 0.753903,-0.777336 0.9375,-1.148438 h 0.679687 v 8.625" />
    <path
       id="n2"
       d="M 38.839335,42.298828 V 43.3125 H 33.1616 c -0.0078,-0.253906 0.0332,-0.498046 0.123047,-0.732422 0.144531,-0.386718 0.374999,-0.767576 0.691406,-1.142578 0.320311,-0.374998 0.781248,-0.808591 1.382813,-1.300781 0.93359,-0.765621 1.564449,-1.371089 1.892578,-1.816407 0.32812,-0.449213 0.492182,-0.873041 0.492187,-1.271484 -5e-6,-0.417962 -0.150395,-0.769524 -0.451171,-1.054687 -0.29688,-0.289055 -0.685551,-0.433586 -1.166016,-0.433594 -0.507815,8e-6 -0.914065,0.152351 -1.21875,0.457031 -0.304689,0.304695 -0.458986,0.726569 -0.462891,1.265625 l -1.083984,-0.111328 c 0.07422,-0.808587 0.353515,-1.423821 0.837891,-1.845703 0.484373,-0.425773 1.134763,-0.638663 1.951171,-0.638672 0.824215,9e-6 1.476558,0.228524 1.957032,0.685547 0.480463,0.457039 0.720697,1.023444 0.720703,1.699219 -6e-6,0.343756 -0.07032,0.681646 -0.210938,1.013671 -0.14063,0.332037 -0.375005,0.681646 -0.703125,1.048829 -0.324223,0.367191 -0.865238,0.871097 -1.623047,1.511718 -0.632815,0.531253 -1.039065,0.89258 -1.21875,1.083985 -0.179689,0.187501 -0.328127,0.376954 -0.445312,0.568359 h 4.212891" />
    <path
       id="n3"
       d="m 33.1875,40.968749 1.054688,-0.140625 c 0.121092,0.597658 0.32617,1.029298 0.615234,1.294922 0.292966,0.261719 0.648435,0.392579 1.066406,0.392578 0.49609,10e-7 0.914059,-0.171874 1.253906,-0.515625 0.343746,-0.343749 0.51562,-0.76953 0.515625,-1.277343 -5e-6,-0.484373 -0.158208,-0.88281 -0.474609,-1.195313 -0.31641,-0.316402 -0.718754,-0.474605 -1.207031,-0.474609 -0.199222,3e-6 -0.447269,0.03907 -0.744141,0.117187 l 0.117188,-0.925781 c 0.07031,0.0078 0.12695,0.01172 0.169922,0.01172 0.449215,6e-6 0.853511,-0.117182 1.21289,-0.351563 0.359371,-0.234369 0.539058,-0.595697 0.539063,-1.083984 -5e-6,-0.386712 -0.130864,-0.707024 -0.392578,-0.960937 -0.261723,-0.253899 -0.599613,-0.380852 -1.013672,-0.38086 -0.410159,8e-6 -0.751956,0.128914 -1.025391,0.386719 -0.273439,0.257819 -0.44922,0.644538 -0.527344,1.160156 l -1.054687,-0.1875 c 0.128905,-0.707024 0.421874,-1.253899 0.878906,-1.640625 0.457029,-0.390616 1.025388,-0.585929 1.705078,-0.585937 0.468747,8e-6 0.900387,0.101571 1.294922,0.304687 0.394526,0.199227 0.695307,0.472664 0.902344,0.820313 0.210932,0.347663 0.3164,0.716803 0.316406,1.107422 -6e-6,0.371099 -0.09962,0.70899 -0.298828,1.013671 -0.199224,0.304694 -0.494146,0.546881 -0.884766,0.726563 0.507808,0.117193 0.902339,0.361332 1.183594,0.732422 0.281244,0.367191 0.421869,0.828128 0.421875,1.382812 -6e-6,0.750002 -0.273443,1.38672 -0.820312,1.910157 -0.54688,0.519531 -1.238286,0.779296 -2.074219,0.779296 -0.753909,0 -1.380861,-0.224609 -1.88086,-0.673828 C 33.541015,42.265625 33.257812,41.683595 33.1875,40.96875" />
    <path
       id="n4"
       d="m 36.75586,43.294922 v -2.056641 h -3.726563 v -0.966796 l 3.919922,-5.566407 h 0.861328 v 5.566407 h 1.160156 v 0.966796 h -1.160156 v 2.056641 H 36.75586 m 0,-3.023437 v -3.873047 l -2.689453,3.873047 h 2.689453" />
    <path
       id="n5"
       d="m 33.152344,40.913085 1.107422,-0.09375 c 0.08203,0.539066 0.271482,0.945315 0.568359,1.21875 0.300779,0.269534 0.662107,0.404298 1.083985,0.404297 0.507808,10e-7 0.937495,-0.191405 1.289062,-0.574218 0.351558,-0.38281 0.527339,-0.890623 0.527344,-1.523438 -5e-6,-0.601559 -0.169927,-1.076168 -0.509766,-1.423828 -0.335941,-0.347651 -0.777347,-0.521479 -1.324218,-0.521484 -0.339847,4e-6 -0.646487,0.07813 -0.919922,0.234375 -0.27344,0.152349 -0.488283,0.351566 -0.644532,0.597656 l -0.990234,-0.128906 0.832031,-4.41211 h 4.271485 v 1.007813 h -3.427735 l -0.46289,2.308593 c 0.515622,-0.359369 1.056637,-0.539056 1.623047,-0.539062 0.749995,6e-6 1.382807,0.259771 1.898437,0.779297 0.515619,0.519535 0.773431,1.187504 0.773438,2.003906 -7e-6,0.777347 -0.226569,1.44922 -0.679688,2.015625 -0.550786,0.695313 -1.302739,1.042969 -2.255859,1.042969 -0.781253,0 -1.419924,-0.21875 -1.916016,-0.65625 -0.492188,-0.437499 -0.773438,-1.017577 -0.84375,-1.740235" />
    <path
       id="n6"
       d="m 38.683593,36.752931 -1.048828,0.08203 c -0.09376,-0.414056 -0.226567,-0.714837 -0.398437,-0.902344 -0.28516,-0.300774 -0.636722,-0.451164 -1.054688,-0.451172 -0.33594,8e-6 -0.630861,0.09376 -0.884765,0.28125 -0.332033,0.242195 -0.593752,0.59571 -0.785157,1.060547 -0.191407,0.46485 -0.291016,1.126958 -0.298828,1.986328 0.253905,-0.386714 0.564452,-0.673823 0.931641,-0.861328 0.367185,-0.187495 0.75195,-0.281244 1.154297,-0.28125 0.703121,6e-6 1.300776,0.259771 1.792968,0.779297 0.496088,0.515629 0.744135,1.183597 0.744141,2.003906 -6e-6,0.539065 -0.117193,1.041018 -0.351562,1.50586 -0.230475,0.460938 -0.548834,0.814453 -0.955079,1.060546 -0.406253,0.246094 -0.86719,0.369141 -1.382812,0.369141 -0.878908,0 -1.595704,-0.322265 -2.150391,-0.966797 -0.554687,-0.648436 -0.832031,-1.714841 -0.832031,-3.199219 0,-1.66015 0.306641,-2.86718 0.919922,-3.621093 0.535155,-0.656242 1.255857,-0.984367 2.162109,-0.984375 0.675777,8e-6 1.228511,0.189461 1.658203,0.568359 0.433588,0.378914 0.693354,0.902351 0.779297,1.570313 m -4.30664,3.703125 c -10e-7,0.363283 0.07617,0.710939 0.228515,1.042968 0.156249,0.332033 0.373046,0.585939 0.650391,0.761719 0.277342,0.171876 0.568357,0.257813 0.873047,0.257813 0.445309,0 0.828121,-0.179687 1.148437,-0.539063 0.320308,-0.359373 0.480464,-0.847654 0.480469,-1.464844 -5e-6,-0.593746 -0.158208,-1.060543 -0.474609,-1.40039 -0.31641,-0.343746 -0.714847,-0.515621 -1.195313,-0.515625 -0.476565,4e-6 -0.880861,0.171879 -1.21289,0.515625 -0.332033,0.339847 -0.498048,0.787112 -0.498047,1.341797" />
    <path
       id="n7"
       d="m 33.219727,35.774414 v -1.013672 h 5.560547 v 0.820312 c -0.546881,0.582038 -1.089849,1.355475 -1.628906,2.320313 -0.535161,0.964849 -0.949223,1.957034 -1.242188,2.976562 -0.21094,0.718753 -0.345706,1.50586 -0.404297,2.361328 h -1.083984 c 0.01172,-0.67578 0.144529,-1.492185 0.398437,-2.449218 0.253904,-0.957027 0.617185,-1.878902 1.089844,-2.765625 0.476559,-0.890619 0.982418,-1.640619 1.517578,-2.25 h -4.207031" />
    <!-- arrow points -->
    <marker
       id="arrowend-00cc00"
       viewBox="0 0 13 10"
       refX="2"
       refY="5"
       markerWidth="3.5"
       markerHeight="3.5"
       orient="auto">
      <path
         d="m 0,0 c 0,0 3,5 0,10 v 0 L 13,5"
         fill="#00cc00"
         id="path156" />
    </marker>
    <marker
       id="arrowend-ff0000"
       viewBox="0 0 13 10"
       refX="2"
       refY="5"
       markerWidth="3.5"
       markerHeight="3.5"
       orient="auto">
      <path
         d="m 0,0 c 0,0 3,5 0,10 v 0 L 13,5"
         fill="#ff0000"
         id="path159" />
    </marker>
    <marker
       id="arrowend-ff00ce"
       viewBox="0 0 13 10"
       refX="2"
       refY="5"
       markerWidth="3.5"
       markerHeight="3.5"
       orient="auto">
      <path
         d="m 0,0 c 0,0 3,5 0,10 v 0 L 13,5"
         fill="#ff00ce"
         id="path162" />
    </marker>
    <marker
       id="arrowend-0083ff"
       viewBox="0 0 13 10"
       refX="2"
       refY="5"
       markerWidth="3.5"
       markerHeight="3.5"
       orient="auto">
      <path
         d="m 0,0 c 0,0 3,5 0,10 v 0 L 13,5"
         fill="#0083ff"
         id="path165" />
    </marker>
    <marker
       id="arrowend-a300ff"
       viewBox="0 0 13 10"
       refX="2"
       refY="5"
       markerWidth="3.5"
       markerHeight="3.5"
       orient="auto">
      <path
         d="m 0,0 c 0,0 3,5 0,10 v 0 L 13,5"
         fill="#a300ff"
         id="path168" />
    </marker>
    <marker
       id="arrowend-ff7300"
       viewBox="0 0 13 10"
       refX="2"
       refY="5"
       markerWidth="3.5"
       markerHeight="3.5"
       orient="auto">
      <path
         d="m 0,0 c 0,0 3,5 0,10 v 0 L 13,5"
         fill="#ff7300"
         id="path171" />
    </marker>
    <marker
       id="arrowend-5a8800"
       viewBox="0 0 13 10"
       refX="2"
       refY="5"
       markerWidth="3.5"
       markerHeight="3.5"
       orient="auto">
      <path
         d="m 0,0 c 0,0 3,5 0,10 v 0 L 13,5"
         fill="#5a8800"
         id="path174" />
    </marker>
    <marker
       id="arrowend-e08300"
       viewBox="0 0 13 10"
       refX="2"
       refY="5"
       markerWidth="3.5"
       markerHeight="3.5"
       orient="auto">
      <path
         d="m 0,0 c 0,0 3,5 0,10 v 0 L 13,5"
         fill="#e08300"
         id="path177" />
    </marker>
    <marker
       id="arrowend-9a1a00"
       viewBox="0 0 13 10"
       refX="2"
       refY="5"
       markerWidth="3.5"
       markerHeight="3.5"
       orient="auto">
      <path
         d="m 0,0 c 0,0 3,5 0,10 v 0 L 13,5"
         fill="#9a1a00"
         id="path180" />
    </marker>
    <marker
       id="arrowstart-00cc00"
       viewBox="0 0 13 10"
       refX="11"
       refY="5"
       markerWidth="3.5"
       markerHeight="3.5"
       orient="auto">
      <path
         d="m 13,0 c 0,0 -3,5 0,10 v 0 L 0,5"
         fill="#00cc00"
         id="path183" />
    </marker>
    <marker
       id="arrowstart-ff0000"
       viewBox="0 0 13 10"
       refX="11"
       refY="5"
       markerWidth="3.5"
       markerHeight="3.5"
       orient="auto">
      <path
         d="m 13,0 c 0,0 -3,5 0,10 v 0 L 0,5"
         fill="#ff0000"
         id="path186" />
    </marker>
    <marker
       id="arrowstart-a300ff"
       viewBox="0 0 13 10"
       refX="11"
       refY="5"
       markerWidth="3.5"
       markerHeight="3.5"
       orient="auto">
      <path
         d="m 13,0 c 0,0 -3,5 0,10 v 0 L 0,5"
         fill="#a300ff"
         id="path189" />
    </marker>
    <!-- white ellipsis for arrows through center in Fano plane-->
    <path
       id="hex-arrow-ellipsis-white"
       style="fill:#ffffff"
       d="m 169.39453,714.08594 v 1.61718 h 5.86524 v -1.61718 z m 0,3.23242 v 1.61719 h 5.86524 v -1.61719 z m 0,3.23437 v 1.61719 h 5.86524 v -1.61719 z m 0,3.23243 v 36.41015 h 5.86524 v -36.41015 z m 0,38.02539 v 1.61718 h 5.86524 v -1.61718 z m 0,3.23437 v 1.61719 h 5.86524 v -1.61719 z m 0,3.23242 v 1.61719 h 5.86524 v -1.61719 z" />
    <path
       id="hex-arrow-ellipsis-gray"
       style="fill:#888888"
       d="m 171.33984,756.60352 v 3.59179 h 2 v -3.59179 z m 0,5.20703 v 1.61718 h 2 v -1.61718 z m 0,3.23437 v 1.61719 h 2 v -1.61719 z m 0,3.23242 v 1.61719 h 2 v -1.61719 z" />
    <g
       id="hex-arrow-ellipsis">
      <use
         xlink:href="#hex-arrow-ellipsis-white"
         id="use194" />
      <use
         xlink:href="#hex-arrow-ellipsis-gray"
         id="use196" />
    </g>
    <!-- degenerate triangles through center in Fano plane -->
    <g
       id="cycle257">
      <g
         transform="translate(-6)"
         id="g205">
        <g
           opacity="0.7"
           id="g201">
          <line
             x1="172.34026"
             y1="629.15723"
             x2="172.34"
             y2="806.784"
             stroke="#ff00ce"
             marker-end="url(#arrowend-ff00ce)"
             id="line199" />
        </g>
        <use
           xlink:href="#hex-arrow-ellipsis-white"
           id="use203" />
      </g>
      <g
         transform="translate(6)"
         opacity="0.7"
         id="g211">
        <line
           x1="172.34026"
           y1="837.284"
           x2="172.34"
           y2="772.51398"
           stroke="#ff00ce"
           marker-end="url(#arrowend-ff00ce)"
           id="line207" />
        <line
           x1="172.34026"
           y1="742.01434"
           x2="172.34"
           y2="659.65698"
           stroke="#ff00ce"
           marker-end="url(#arrowend-ff00ce)"
           id="line209" />
      </g>
    </g>
    <g
       id="cycle275">
      <g
         transform="translate(-6)"
         id="g220">
        <g
           opacity="0.7"
           id="g216">
          <line
             x1="172.34026"
             y1="837.284"
             x2="172.34"
             y2="659.65698"
             stroke="#ff00ce"
             marker-end="url(#arrowend-ff00ce)"
             id="line214" />
        </g>
        <use
           xlink:href="#hex-arrow-ellipsis-white"
           id="use218" />
      </g>
      <g
         transform="translate(6)"
         opacity="0.7"
         id="g226">
        <line
           x1="172.34026"
           y1="742.01434"
           x2="172.34"
           y2="806.784"
           stroke="#ff00ce"
           marker-end="url(#arrowend-ff00ce)"
           id="line222" />
        <line
           x1="172.34026"
           y1="629.15723"
           x2="172.34"
           y2="711.51398"
           stroke="#ff00ce"
           marker-end="url(#arrowend-ff00ce)"
           id="line224" />
      </g>
    </g>
    <!-- diagonal in heptagon -->
    <line
       id="heptadiag"
       x1="0"
       y1="0"
       x2="-88.088951"
       y2="195.2486"
       style="stroke:#808080;stroke-width:2" />
  </defs>
  <rect
     width="900"
     height="900"
     fill="#ffffff"
     stroke="none"
     id="rect232"
     x="0"
     y="0"
     style="stroke-width:9.99996" />
  <g
     transform="matrix(60,0,0,60,50,50)"
     id="g254">
    <!--background-->
    <rect
       width="3"
       height="3"
       stroke="#888888"
       stroke-width="0.18"
       id="rect234"
       x="0"
       y="0" />
    <rect
       width="3"
       height="3"
       stroke="none"
       fill="#eeeeee"
       id="rect236"
       x="0"
       y="0" />
    <!--entries-->
    <rect
       x="0"
       y="0"
       width="1"
       height="1"
       fill="#888888"
       id="rect238" />
    <rect
       x="1"
       y="0"
       width="1"
       height="1"
       fill="#888888"
       id="rect240" />
    <rect
       x="2"
       y="0"
       width="1"
       height="1"
       fill="#888888"
       id="rect242" />
    <rect
       x="1"
       y="1"
       width="1"
       height="1"
       fill="#888888"
       id="rect244" />
    <rect
       x="2"
       y="1"
       width="1"
       height="1"
       fill="#888888"
       id="rect246" />
    <rect
       x="2"
       y="2"
       width="1"
       height="1"
       fill="#888888"
       id="rect248" />
    <!--lines-->
    <rect
       x="0"
       y="0"
       width="3"
       height="3"
       stroke="#ffffff"
       stroke-width="0.1"
       fill="none"
       id="rect250" />
    <path
       stroke-dasharray="0.03, 0.97"
       d="m -0.015,1.5 h 4 M 1.5,-0.015 v 4"
       stroke="#ffffff"
       stroke-width="3"
       id="path252" />
  </g>
  <g
     transform="matrix(4,0,0,4,-62,140)"
     id="g262">
    <use
       x="0"
       xlink:href="#n1"
       id="use256" />
    <use
       x="15"
       xlink:href="#n3"
       id="use258" />
    <use
       x="30"
       xlink:href="#n7"
       id="use260" />
  </g>
  <g
     transform="matrix(4,0,0,4,148,-75)"
     id="g270">
    <use
       y="0"
       xlink:href="#n7"
       id="use264" />
    <use
       y="15"
       xlink:href="#n6"
       id="use266" />
    <use
       y="30"
       xlink:href="#n4"
       id="use268" />
  </g>
  <g
     transform="matrix(4.5,0,0,4.5,77.4,344.25)"
     id="g308">
    <!--INVERSE TRANSFORMATION MATRIX (3x3)-->
    <g
       transform="matrix(6,0,0,6,5,5)"
       id="g290">
      <!--background-->
      <rect
         width="3"
         height="3"
         stroke="#888888"
         stroke-width="0.18"
         id="rect272"
         x="0"
         y="0" />
      <rect
         width="3"
         height="3"
         stroke="none"
         fill="#eeeeee"
         id="rect274"
         x="0"
         y="0" />
      <!--entries-->
      <rect
         x="0"
         y="0"
         width="1"
         height="1"
         fill="#888888"
         id="rect276" />
      <rect
         x="1"
         y="0"
         width="1"
         height="1"
         fill="#888888"
         id="rect278" />
      <rect
         x="1"
         y="1"
         width="1"
         height="1"
         fill="#888888"
         id="rect280" />
      <rect
         x="2"
         y="1"
         width="1"
         height="1"
         fill="#888888"
         id="rect282" />
      <rect
         x="2"
         y="2"
         width="1"
         height="1"
         fill="#888888"
         id="rect284" />
      <!--lines-->
      <rect
         x="0"
         y="0"
         width="3"
         height="3"
         stroke="#ffffff"
         stroke-width="0.1"
         fill="none"
         id="rect286" />
      <path
         stroke-dasharray="0.03, 0.97"
         d="m -0.015,1.5 h 4 M 1.5,-0.015 v 4"
         stroke="#ffffff"
         stroke-width="3"
         id="path288" />
    </g>
    <!--VECTORS NEXT TO INVERSE TRANSFORMATION MATRIX-->
    <!-- along (horizontal) -->
    <g
       transform="matrix(0.4,0,0,0.4,-6.2,14)"
       id="g298">
      <use
         x="0"
         xlink:href="#n1"
         id="use292" />
      <use
         x="15"
         xlink:href="#n3"
         id="use294" />
      <use
         x="30"
         xlink:href="#n6"
         id="use296" />
    </g>
    <!-- across (vertical) -->
    <g
       transform="matrix(0.4,0,0,0.4,14.8,-7.5)"
       id="g306">
      <use
         y="0"
         xlink:href="#n3"
         id="use300" />
      <use
         y="15"
         xlink:href="#n6"
         id="use302" />
      <use
         y="30"
         xlink:href="#n4"
         id="use304" />
    </g>
  </g>
  <g
     transform="matrix(10,0,0,10,370,50)"
     id="g376">
    <g
       transform="scale(6)"
       id="g348">
      <!--background-->
      <rect
         width="8"
         height="3"
         stroke="#888888"
         stroke-width="0.18"
         id="rect310"
         x="0"
         y="0" />
      <rect
         width="8"
         height="3"
         stroke="none"
         fill="#eeeeee"
         id="rect312"
         x="0"
         y="0" />
      <!--entries-->
      <rect
         x="1"
         y="0"
         width="1"
         height="1"
         fill="#888888"
         id="rect314" />
      <rect
         x="2"
         y="0"
         width="1"
         height="1"
         fill="#888888"
         id="rect316" />
      <rect
         x="4"
         y="0"
         width="1"
         height="1"
         fill="#888888"
         id="rect318" />
      <rect
         x="7"
         y="0"
         width="1"
         height="1"
         fill="#888888"
         id="rect320" />
      <rect
         x="2"
         y="1"
         width="1"
         height="1"
         fill="#888888"
         id="rect322" />
      <rect
         x="3"
         y="1"
         width="1"
         height="1"
         fill="#888888"
         id="rect324" />
      <rect
         x="4"
         y="1"
         width="1"
         height="1"
         fill="#888888"
         id="rect326" />
      <rect
         x="5"
         y="1"
         width="1"
         height="1"
         fill="#888888"
         id="rect328" />
      <rect
         x="4"
         y="2"
         width="1"
         height="1"
         fill="#888888"
         id="rect330" />
      <rect
         x="5"
         y="2"
         width="1"
         height="1"
         fill="#888888"
         id="rect332" />
      <rect
         x="6"
         y="2"
         width="1"
         height="1"
         fill="#888888"
         id="rect334" />
      <rect
         x="7"
         y="2"
         width="1"
         height="1"
         fill="#888888"
         id="rect336" />
      <!--lines-->
      <rect
         x="0"
         y="0"
         width="8"
         height="3"
         stroke="#ffffff"
         stroke-width="0.1"
         fill="none"
         id="rect338" />
      <path
         stroke-dasharray="0.03, 0.97"
         d="m 4,-0.015 v 3"
         stroke="#ffffff"
         stroke-width="8"
         id="path340" />
      <g
         stroke="#ffffff"
         stroke-width="3"
         id="g346">
        <path
           stroke-dasharray="0.03, 0.97"
           d="m -0.015,1.5 h 8"
           id="path342" />
        <path
           stroke-dasharray="0.1, 3.9"
           d="m -0.05,1.5 h 8"
           id="path344" />
      </g>
    </g>
    <!--numbers (1, 2, 4)-->
    <g
       transform="matrix(0.4,0,0,0.4,-11.4,-12.6)"
       opacity="0.1"
       id="g374">
      <use
         x="15"
         y="0"
         xlink:href="#n1"
         id="use350" />
      <use
         x="30"
         y="0"
         xlink:href="#n1"
         id="use352" />
      <use
         x="60"
         y="0"
         xlink:href="#n1"
         id="use354" />
      <use
         x="105"
         y="0"
         xlink:href="#n1"
         id="use356" />
      <use
         x="30"
         y="15"
         xlink:href="#n2"
         id="use358" />
      <use
         x="45"
         y="15"
         xlink:href="#n2"
         id="use360" />
      <use
         x="60"
         y="15"
         xlink:href="#n2"
         id="use362" />
      <use
         x="75"
         y="15"
         xlink:href="#n2"
         id="use364" />
      <use
         x="60"
         y="30"
         xlink:href="#n4"
         id="use366" />
      <use
         x="75"
         y="30"
         xlink:href="#n4"
         id="use368" />
      <use
         x="90"
         y="30"
         xlink:href="#n4"
         id="use370" />
      <use
         x="105"
         y="30"
         xlink:href="#n4"
         id="use372" />
    </g>
  </g>
  <g
     transform="matrix(10,0,0,10,106.5,122)"
     id="g414">
    <!--top row-->
    <g
       transform="matrix(0.25,0,0,0.25,20.4,5.25)"
       opacity="0.4"
       id="g394">
      <use
         x="0"
         xlink:href="#n0"
         id="use378" />
      <use
         x="24"
         xlink:href="#n1"
         id="use380" />
      <use
         x="48"
         xlink:href="#n2"
         id="use382" />
      <use
         x="72"
         xlink:href="#n3"
         id="use384" />
      <use
         x="96"
         xlink:href="#n4"
         id="use386" />
      <use
         x="120"
         xlink:href="#n5"
         id="use388" />
      <use
         x="144"
         xlink:href="#n6"
         id="use390" />
      <use
         x="168"
         xlink:href="#n7"
         id="use392" />
    </g>
    <!--bottom row-->
    <g
       transform="matrix(0.4,0,0,0.4,15,4.2)"
       id="g412">
      <use
         x="0"
         xlink:href="#n0"
         id="use396" />
      <use
         x="15"
         xlink:href="#n1"
         id="use398" />
      <use
         x="30"
         xlink:href="#n3"
         id="use400" />
      <use
         x="45"
         xlink:href="#n2"
         id="use402" />
      <use
         x="60"
         xlink:href="#n7"
         id="use404" />
      <use
         x="75"
         xlink:href="#n6"
         id="use406" />
      <use
         x="90"
         xlink:href="#n4"
         id="use408" />
      <use
         x="105"
         xlink:href="#n5"
         id="use410" />
    </g>
  </g>
  <g
     transform="matrix(60,0,0,60,370,370)"
     id="g506">
    <!--background-->
    <rect
       width="8"
       height="8"
       stroke="#888888"
       stroke-width="0.18"
       id="rect416"
       x="0"
       y="0" />
    <rect
       width="8"
       height="8"
       stroke="none"
       fill="#eeeeee"
       id="rect418"
       x="0"
       y="0" />
    <!--entries-->
    <rect
       x="0"
       y="0"
       width="1"
       height="1"
       fill="#000000"
       fill-opacity="0.7"
       id="rect420" />
    <rect
       x="1"
       y="1"
       width="1"
       height="1"
       fill="#000000"
       fill-opacity="0.7"
       id="rect422" />
    <rect
       x="2"
       y="3"
       width="1"
       height="1"
       fill="#a300ff"
       fill-opacity="0.7"
       id="rect424" />
    <rect
       x="3"
       y="2"
       width="1"
       height="1"
       fill="#a300ff"
       fill-opacity="0.7"
       id="rect426" />
    <rect
       x="4"
       y="7"
       width="1"
       height="1"
       fill="#ff7300"
       fill-opacity="0.7"
       id="rect428" />
    <rect
       x="5"
       y="6"
       width="1"
       height="1"
       fill="#ff7300"
       fill-opacity="0.7"
       id="rect430" />
    <rect
       x="6"
       y="4"
       width="1"
       height="1"
       fill="#ff7300"
       fill-opacity="0.7"
       id="rect432" />
    <rect
       x="7"
       y="5"
       width="1"
       height="1"
       fill="#ff7300"
       fill-opacity="0.7"
       id="rect434" />
    <!--lines-->
    <rect
       x="0"
       y="0"
       width="8"
       height="8"
       stroke="#ffffff"
       stroke-width="0.1"
       fill="none"
       id="rect436" />
    <g
       stroke="#ffffff"
       stroke-width="8"
       id="g442">
      <path
         stroke-dasharray="0.03, 0.97"
         d="m -0.015,4 h 9 M 4,-0.015 v 9"
         id="path438" />
      <path
         stroke-dasharray="0.1, 3.9"
         d="m -0.05,4 h 9 M 4,-0.05 v 9"
         id="path440" />
    </g>
    <g
       transform="translate(0.5,0.5)"
       id="g504">
      <!--arrows-->
      <path
         stroke="#a300ff"
         stroke-width="0.075"
         fill="none"
         d="M 2,2 V 2.5 C 2,2.5 2,3 2.5,3 h 0.12"
         marker-end="url(#arrowend-a300ff)"
         id="path444" />
      <path
         stroke="#a300ff"
         stroke-width="0.075"
         fill="none"
         d="M 3,3 V 2.5 C 3,2.5 3,2 2.5,2 H 2.38"
         marker-end="url(#arrowend-a300ff)"
         id="path446" />
      <path
         stroke="#ff7300"
         stroke-width="0.075"
         fill="none"
         d="M 4,4 V 6.5 C 4,6.5 4,7 4.5,7 h 2.12"
         marker-end="url(#arrowend-ff7300)"
         id="path448" />
      <path
         stroke="#ff7300"
         stroke-width="0.075"
         fill="none"
         d="M 5,5 V 5.5 C 5,5.5 5,6 5.5,6 h 0.12"
         marker-end="url(#arrowend-ff7300)"
         id="path450" />
      <path
         stroke="#ff7300"
         stroke-width="0.075"
         fill="none"
         d="M 6,6 V 4.5 C 6,4.5 6,4 5.5,4 H 4.38"
         marker-end="url(#arrowend-ff7300)"
         id="path452" />
      <path
         stroke="#ff7300"
         stroke-width="0.075"
         fill="none"
         d="M 7,7 V 5.5 C 7,5.5 7,5 6.5,5 H 5.38"
         marker-end="url(#arrowend-ff7300)"
         id="path454" />
      <!--black circles-->
      <circle
         cx="0"
         cy="0"
         r="0.16"
         id="circle456" />
      <circle
         cx="1"
         cy="1"
         r="0.16"
         id="circle458" />
      <circle
         cx="2"
         cy="2"
         r="0.16"
         id="circle460" />
      <circle
         cx="3"
         cy="3"
         r="0.16"
         id="circle462" />
      <circle
         cx="4"
         cy="4"
         r="0.16"
         id="circle464" />
      <circle
         cx="5"
         cy="5"
         r="0.16"
         id="circle466" />
      <circle
         cx="6"
         cy="6"
         r="0.16"
         id="circle468" />
      <circle
         cx="7"
         cy="7"
         r="0.16"
         id="circle470" />
      <!--white numbers-->
      <g
         transform="matrix(0.025,0,0,0.025,-0.9,-0.975)"
         fill="#ffffff"
         id="g474">
        <use
           x="0"
           y="0"
           xlink:href="#n0"
           id="use472" />
      </g>
      <g
         transform="matrix(0.025,0,0,0.025,-0.9,-0.975)"
         fill="#ffffff"
         id="g478">
        <use
           x="40"
           y="40"
           xlink:href="#n1"
           id="use476" />
      </g>
      <g
         transform="matrix(0.025,0,0,0.025,-0.9,-0.975)"
         fill="#ffffff"
         id="g482">
        <use
           x="80"
           y="80"
           xlink:href="#n2"
           id="use480" />
      </g>
      <g
         transform="matrix(0.025,0,0,0.025,-0.9,-0.975)"
         fill="#ffffff"
         id="g486">
        <use
           x="120"
           y="120"
           xlink:href="#n3"
           id="use484" />
      </g>
      <g
         transform="matrix(0.025,0,0,0.025,-0.9,-0.975)"
         fill="#ffffff"
         id="g490">
        <use
           x="160"
           y="160"
           xlink:href="#n4"
           id="use488" />
      </g>
      <g
         transform="matrix(0.025,0,0,0.025,-0.9,-0.975)"
         fill="#ffffff"
         id="g494">
        <use
           x="200"
           y="200"
           xlink:href="#n5"
           id="use492" />
      </g>
      <g
         transform="matrix(0.025,0,0,0.025,-0.9,-0.975)"
         fill="#ffffff"
         id="g498">
        <use
           x="240"
           y="240"
           xlink:href="#n6"
           id="use496" />
      </g>
      <g
         transform="matrix(0.025,0,0,0.025,-0.9,-0.975)"
         fill="#ffffff"
         id="g502">
        <use
           x="280"
           y="280"
           xlink:href="#n7"
           id="use500" />
      </g>
    </g>
  </g>
  <!--HEXAGONAL CUBE WITH ARROWS-->
  <!--HEXAGONAL CUBE WITH GRAY VERTICES-->
</svg>
