<?xml version="1.0" encoding="UTF-8"?>
<svg xmlns="http://www.w3.org/2000/svg" xmlns:xlink="http://www.w3.org/1999/xlink" width="966" height="966" viewBox="-3 -3 966 966">

<g transform="scale(30, 30)">

    <rect width="32" height="32" fill="white"/>

<path fill="#f55" d="M1,1h1v1h-1M3,1h1v3h-3v-1h1v-1h1M5,1h1v1h-1M7,1h1v7h-7v-1h1v-1h1v-1h1v-1h1v-1h1v-1h1M9,1h1v1h-1M11,1h1v3h-3v-1h1v-1h1M13,1h1v1h-1M15,1h1v15h-15v-1h1v-1h1v-1h1v-1h1v-1h1v-1h1v-1h1v-1h1v-1h1v-1h1v-1h1v-1h1v-1h1v-1h1M17,1h1v1h-1M19,1h1v3h-3v-1h1v-1h1M21,1h1v1h-1M23,1h1v7h-7v-1h1v-1h1v-1h1v-1h1v-1h1v-1h1M25,1h1v1h-1M27,1h1v3h-3v-1h1v-1h1M29,1h1v1h-1M31,1h1v31h-31v-1h1v-1h1v-1h1v-1h1v-1h1v-1h1v-1h1v-1h1v-1h1v-1h1v-1h1v-1h1v-1h1v-1h1v-1h1v-1h1v-1h1v-1h1v-1h1v-1h1v-1h1v-1h1v-1h1v-1h1v-1h1v-1h1v-1h1v-1h1v-1h1v-1h1M1,5h1v1h-1M9,5h1v1h-1M17,5h1v1h-1M25,5h1v1h-1M1,9h1v1h-1M3,9h1v3h-3v-1h1v-1h1M5,9h1v1h-1M17,9h1v1h-1M19,9h1v3h-3v-1h1v-1h1M21,9h1v1h-1M1,13h1v1h-1M17,13h1v1h-1M1,17h1v1h-1M3,17h1v3h-3v-1h1v-1h1M5,17h1v1h-1M7,17h1v7h-7v-1h1v-1h1v-1h1v-1h1v-1h1v-1h1M9,17h1v1h-1M11,17h1v3h-3v-1h1v-1h1M13,17h1v1h-1M1,21h1v1h-1M9,21h1v1h-1M1,25h1v1h-1M3,25h1v3h-3v-1h1v-1h1M5,25h1v1h-1M1,29h1v1h-1"/>

    <g stroke="#000" stroke-width="32">
        <path stroke-dasharray=".03,  .97" d="M0,16h33M16,0v33"/>
        <path stroke-dasharray=".06, 3.94" d="M0,16h33M16,0v33"/>
        <path stroke-dasharray=".14 ,15.86 " d="M-.07,16h33M16,-.07v33"/>
        <rect x="0" y="0" width="32" height="32" stroke-width=".14" fill="none"/>
    </g>

</g>

</svg>